<svg preserveAspectRatio="xMidYMid meet" overflow="visible" style="display: block;" viewBox="0 0 99.9995 30.3909" fill="none" xmlns="http://www.w3.org/2000/svg">
<g id="Group">
<path id="Vector" d="M16.4324 7.74041C15.7297 6.72048 14.7991 6.001 13.642 5.58064C12.4849 5.16161 11.423 4.95077 10.4564 4.95077C7.7033 4.95077 5.27196 5.96279 3.16241 7.98682C1.05414 10.0122 0 12.6437 0 15.8827C0 19.1216 1.05414 21.7532 3.16369 23.7772C5.27196 25.8012 7.7033 26.8132 10.4577 26.8132C11.4243 26.8132 12.5158 26.5721 13.7308 26.0938C14.9458 25.6141 15.8468 24.9236 16.4324 24.0249V26.4087H22.4959V5.40143H16.4324V7.74041ZM14.9381 19.5038C13.9419 20.4196 12.7848 20.8755 11.4668 20.8755C10.1192 20.8755 8.92476 20.4025 7.88607 19.4577C6.84609 18.5129 6.3261 17.3216 6.3261 15.8813C6.3261 14.4424 6.84609 13.2498 7.88607 12.305C8.92476 11.3602 10.1192 10.8885 11.4668 10.8885C12.7848 10.8885 13.9419 11.3457 14.9381 12.2602C15.933 13.176 16.4324 14.3818 16.4324 15.8813C16.4324 17.3822 15.9343 18.5893 14.9381 19.5038Z" fill="var(--fill-0, #2B2624)"/>
<path id="Vector_2" d="M31.5931 0H25.4858V26.4086H31.5931V0Z" fill="var(--fill-0, #2B2624)"/>
<path id="Vector_3" d="M44.0663 4.95077C41.0493 4.95077 38.5086 5.9562 36.4428 7.96442C34.377 9.97396 33.3447 12.5976 33.3447 15.8365C33.3447 19.0755 34.377 21.7229 36.4428 23.7759C38.5073 25.8302 41.048 26.8567 44.0663 26.8567C48.4308 26.8567 51.5495 25.4323 53.4248 22.5833L48.9869 19.4801C47.9906 20.8004 46.4963 21.4593 44.5052 21.4593C43.3043 21.4593 42.1987 21.1602 41.1883 20.5593C40.1779 19.9597 39.5988 19.09 39.4533 17.9502H54.4802C54.5381 17.2307 54.5677 16.5863 54.5677 16.0158C54.5677 12.7478 53.5638 10.086 51.5585 8.03163C49.5506 5.9786 47.0536 4.95077 44.0663 4.95077ZM39.5408 14.0378C39.7751 12.8387 40.3466 11.9387 41.254 11.3391C42.1614 10.7396 43.1138 10.4391 44.11 10.4391C45.105 10.4391 46.0355 10.7475 46.9005 11.3615C47.7641 11.9769 48.2699 12.869 48.4167 14.0378H39.5408Z" fill="var(--fill-0, #2B2624)"/>
<path id="Vector_4" d="M68.1904 4.95077C66.8724 4.95077 65.6639 5.2209 64.566 5.75986C63.4681 6.29881 62.6688 7.04991 62.172 8.00922V5.40012H56.1084V30.3909H62.172V23.8431C62.6701 24.7734 63.4681 25.5074 64.566 26.0476C65.6639 26.5879 66.8724 26.8567 68.1904 26.8567C70.9152 26.8567 73.25 25.8381 75.1987 23.7983C77.1461 21.7597 78.1204 19.1058 78.1204 15.8365C78.1204 12.6279 77.1461 10.0109 75.1987 7.98682C73.25 5.9641 70.9152 4.95077 68.1904 4.95077ZM70.4094 19.571C69.4866 20.5013 68.3668 20.9652 67.0488 20.9652C65.7308 20.9652 64.6097 20.5158 63.6882 19.6158C62.7666 18.7158 62.3045 17.5008 62.3045 15.9723C62.3045 14.503 62.7653 13.2894 63.6882 12.3287C64.611 11.3694 65.7308 10.8898 67.0488 10.8898C68.3668 10.8898 69.4878 11.3615 70.4094 12.3063C71.3323 13.2512 71.7943 14.4727 71.7943 15.9723C71.7943 17.4415 71.3323 18.642 70.4094 19.571Z" fill="var(--fill-0, #2B2624)"/>
<path id="Vector_5" d="M97.8886 7.56114C96.4831 5.82174 94.4469 4.95203 91.7813 4.95203C90.668 4.95203 89.5251 5.27488 88.3551 5.91925C87.1825 6.56494 86.4064 7.48603 86.0267 8.68517V0H79.9194V26.4087H86.0267V15.2975C86.0267 13.8283 86.4296 12.749 87.2353 12.0586C88.041 11.3694 88.9999 11.0241 90.1133 11.0241C91.1082 11.0241 91.9873 11.3997 92.7492 12.1482C93.5112 12.898 93.8922 13.9179 93.8922 15.2066V26.4073H99.9995V14.9826C99.9982 11.7739 99.2954 9.30055 97.8886 7.56114Z" fill="var(--fill-0, #2B2624)"/>
</g>
</svg>
