<svg preserveAspectRatio="xMidYMid meet" overflow="visible" style="display: block;" viewBox="0 0 292.999 26.0011" fill="none" xmlns="http://www.w3.org/2000/svg">
<g id="Clip path group mask">
<path id="Path 3009" d="M12.0019 3.35301V20.5098C12.0019 22.6521 11.9641 24.1223 14.0028 25.2891V25.4009H6.38518V25.2891C8.30692 24.5742 8.07797 21.8265 8.07797 20.1344V3.35301H4.69415C3.03809 3.35301 1.30678 3.76504 0.116781 4.85603H0L1.34565 0.384461H1.46421C1.92565 0.571036 2.42384 0.571036 2.92238 0.642022H18.2332C18.889 0.642022 19.5034 0.605401 20.0055 0.384461H20.1205L18.889 4.85621H18.7739C18.2758 3.53716 16.7349 3.35319 15.4647 3.35319L12.0019 3.35301ZM40.2805 13.3235V20.1344C40.2805 21.8263 40.5453 24.5741 38.586 25.2891V25.4009H45.9317V25.2891C43.973 24.5742 44.206 21.8265 44.206 20.1344V5.91231C44.206 4.21682 43.973 1.47406 45.9317 0.760736V0.642369H38.586V0.761083C40.5453 1.47441 40.2805 4.21716 40.2805 5.95327V10.6128H26.3901V5.95327C26.3901 4.21768 26.1626 1.47441 28.0813 0.761083V0.642369H20.7759V0.761083C22.7346 1.47441 22.4664 4.21716 22.4664 5.91266V20.135C22.4664 21.8268 22.6984 24.5746 20.7759 25.2897V25.4014H28.0813V25.2897C26.1626 24.5748 26.3901 21.827 26.3901 20.135V13.3235H40.2805ZM53.3189 13.3235H56.1655C57.3574 13.3235 58.9723 13.2887 59.5908 14.3754H59.7037V10.3919H59.5908C59.1294 10.6128 58.5107 10.6128 57.898 10.6128H53.3191V3.61023C54.5476 3.38859 55.8977 3.35301 57.2405 3.35301C59.0135 3.35301 60.5876 3.50418 61.782 4.85603H61.8981V0.45614H61.782C61.2783 0.714743 60.631 0.642369 59.9783 0.642369H47.664V0.761083C49.6232 1.47406 49.3959 4.21768 49.3959 5.95327V20.1348C49.3959 21.8266 49.6241 24.607 47.6642 25.2895V25.4012H63.7045L65.4359 20.464H65.3206C64.3469 21.2815 63.2157 21.9002 61.9937 22.2834C60.7717 22.6666 59.4835 22.8067 58.2053 22.6955L53.3191 22.2385L53.3189 13.3235ZM93.5396 13.3235V20.1344C93.5396 21.8263 93.8101 24.5741 91.8484 25.2891V25.4009H99.1979V25.2891C97.2317 24.5742 97.4671 21.8265 97.4671 20.1344V5.91231C97.4671 4.21682 97.2317 1.47406 99.1979 0.760736V0.642369H91.8484V0.761083C93.8101 1.47441 93.5396 4.21716 93.5396 5.95327V10.6128H79.6528V5.95327C79.6528 4.21768 79.422 1.47441 81.3443 0.761083V0.642369H74.0359V0.761083C75.9972 1.47441 75.7294 4.21716 75.7294 5.91266V20.135C75.7294 21.8268 75.9601 24.5746 74.0359 25.2897V25.4014H81.3443V25.2897C79.4229 24.5748 79.6528 21.827 79.6528 20.135V13.3235H93.5396ZM114.621 0.00436645C122.703 -0.0284362 128.393 5.98469 128.393 12.7629C128.393 20.4326 121.894 25.9999 114.237 25.9999C106.619 25.9999 100.192 20.6601 100.192 12.9371C100.192 5.79742 106.545 -0.1803 114.621 0.00419289M114.353 2.71171C108.39 2.71171 104.582 6.92607 104.582 12.608C104.582 17.8773 108.391 23.2955 114.426 23.2955C120.28 23.2955 124.008 19.1127 124.008 13.5132C124.008 8.02227 120.429 2.71171 114.353 2.71171ZM147.624 25.4009H153.281V25.2891C151.318 24.5742 151.551 21.8265 151.551 20.1344V5.95327C151.551 4.21768 151.318 1.47441 153.281 0.761083L153.238 0.642369H145.933V0.761083C147.858 1.47441 147.625 4.21716 147.625 5.91266V17.2374C147.625 18.5911 147.664 19.5334 146.816 20.6607C145.545 22.4273 143.355 23.296 141.202 23.296C137.24 23.296 135.085 20.9642 135.085 15.9638V5.91231C135.085 4.21682 134.855 1.47406 136.778 0.760736V0.642369H129.466V0.761083C131.425 1.47441 131.159 4.21716 131.159 5.91266V15.9635C131.159 18.659 131.082 21.1805 133.126 23.3647C134.854 25.2096 137.548 26 140.085 26C142.778 26 145.934 25.092 147.625 22.9143L147.624 25.4009ZM155.815 0.642369V0.761083C157.778 1.47441 157.515 4.21716 157.515 5.95327V20.1348C157.515 21.8266 157.778 24.607 155.815 25.2895V25.4012H163.167V25.2895C161.202 24.6072 161.432 21.8608 161.432 20.1348V3.27699C162.297 3.12401 163.171 3.02494 164.049 2.98038C166.621 2.85889 169.015 4.4414 169.015 7.15447C169.015 10.689 165.433 12.0815 162.36 12.5313L165.895 17.8377L170.588 23.5247C171.748 24.9076 173.014 25.4011 175.05 25.4011H178.591C176.394 24.0435 173.976 22.0852 172.359 20.1348L166.815 13.3235C169.974 12.6082 172.938 10.0135 172.938 6.70253C172.938 3.27699 170.132 0.642369 164.974 0.642369H155.815ZM205.504 0.686106C203.518 0.266614 201.493 0.0513876 199.461 0.0439379C190.15 0.0439379 183.571 5.08878 183.571 13.1742C183.571 20.7358 189.384 26.0002 199.237 26.0002C202.349 26.0002 205.354 25.4424 208.429 24.8766C208.198 24.3455 208.237 23.7406 208.237 23.1757V14.5243C208.237 13.9622 208.237 13.3587 208.429 12.9081V12.7898H202.54V12.9081C204.272 13.5821 204.312 15.4287 204.312 17.1562V22.5712C202.572 23.0538 200.772 23.2975 198.963 23.2955C192.887 23.2955 187.962 18.7078 187.962 12.6518C187.962 6.59041 192.54 2.75441 198.538 2.75441C200.889 2.75441 203.807 3.27682 205.39 5.00842H205.504L205.504 0.686106ZM215.851 22.3527V5.95327C215.851 4.25483 215.579 1.47441 217.543 0.761083V0.642369H210.195V0.761083C212.156 1.47441 211.922 4.21716 211.922 5.95327V20.1348C211.922 21.8266 212.156 24.607 210.195 25.2895V25.4012H226.005L228.007 20.3955H227.885C225.972 21.9811 223.698 22.8456 221.081 22.6955L215.851 22.3527ZM246.344 16.1065H236.652L234.647 21.4129C233.844 23.5237 233.575 24.6063 235.421 25.2883V25.4H228.345V25.2883C230.574 24.1926 231.233 22.0842 232.07 19.9354L238.503 4.25378C239.038 2.90002 239.767 1.32289 237.923 0.760042V0.642369H243.999L252.004 19.9364C252.883 22.0852 253.579 24.1938 255.772 25.2893V25.4011H247.885V25.2893C249.774 24.4583 249.465 24.0435 248.424 21.4139L246.344 16.1065ZM245.231 13.3228L241.461 3.84904L237.654 13.3235L245.231 13.3228ZM271.546 0.869558C269.687 0.315515 267.755 0.0371546 265.812 0.0437643C261.118 0.0437643 256.155 1.84635 256.155 6.59058C256.155 14.5637 269.389 13.5133 269.389 19.3833C269.389 22.0153 266.079 23.2958 263.888 23.2958C260.887 23.2958 257.732 22.0851 255.465 20.1681L256.58 24.8766C258.789 25.6417 261.119 26.022 263.462 26.0002C269.467 26.0002 273.777 22.2381 273.777 18.2123C273.777 11.2552 260.54 11.3298 260.54 6.16727C260.54 3.57951 263.313 2.75458 265.501 2.75458C267.66 2.75458 270.046 3.6104 271.546 5.12262V0.869558ZM290.772 0.869558C288.912 0.315165 286.977 0.036802 285.033 0.0437643C280.342 0.0437643 275.383 1.84635 275.383 6.59058C275.383 14.5637 288.618 13.5133 288.618 19.3833C288.618 22.0153 285.306 23.2958 283.113 23.2958C280.116 23.2958 276.958 22.0851 274.689 20.1681L275.799 24.8766C278.011 25.6409 280.343 26.0209 282.689 25.9993C288.689 25.9993 292.999 22.2373 292.999 18.2114C292.999 11.2543 279.767 11.3289 279.767 6.1664C279.767 3.57864 282.538 2.75371 284.729 2.75371C286.882 2.75371 289.269 3.60953 290.771 5.12175L290.772 0.869558Z" fill="var(--fill-0, #563017)" fill-opacity="0.8"/>
</g>
</svg>
