<svg width="820" height="820" viewBox="0 0 820 820" fill="none" xmlns="http://www.w3.org/2000/svg">
<circle cx="410" cy="410" r="409.5" fill="#F8F6F2" stroke="#D8D3CB"/>
<mask id="mask0_42_2094" style="mask-type:alpha" maskUnits="userSpaceOnUse" x="0" y="0" width="820" height="820">
<circle cx="410" cy="410" r="409.5" fill="#333333" stroke="#2C2825"/>
</mask>
<g mask="url(#mask0_42_2094)">
<path d="M313 36.0001C305 41.6001 286.667 33.6668 278.5 29.0001L206 5.5L-19 184L1 530.5L17 522.5C18.3333 516 23.9 496 35.5 468C50 433 58 446 76.5 451.5C95 457 98.5 483.5 103 481C107.5 478.5 109.5 455 126 468C142.5 481 150 502 153 514.5C169 517 186 543 205.5 553.5C225 564 215.5 553.5 213 549.5C211 546.3 199.833 532.5 194.5 526C171.5 526 171.5 518 161.5 496.5C151.808 475.66 167.5 457 190.5 474.5C213.5 492 212 496 222 490.5C239.001 456.5 229 441 190.5 429.5C182.119 426.997 194.5 407.716 203 402.5C220.6 391.7 232.334 407 235 416C228.834 418.333 219 425.3 229 434.5C241.5 446 243 417 243 402.5C243 388 222 378 247.5 368C273 358 272.5 315.5 269.5 293.5C266.5 271.5 229 268.5 225 262.5C221 256.5 247.5 233 243 230.5C238.5 228 204 241 205 225C206 209 273.5 205.5 278.5 212C283.5 218.5 294.5 248.5 305 241C315.5 233.5 306.015 210.365 294.5 205.5C259 190.5 286.5 194 294.5 181C302.5 168 340.5 131 338 87.5C335.5 44 348 65.5 358.5 87.5C375.5 107 371 137.5 376 141C381 144.5 403.5 114.5 396.5 115C389.5 115.5 373.5 112.5 371 100C368.5 87.5 362 63.0001 348 36.0001C334 9.0001 323 29.0001 313 36.0001Z" fill="#D8D3CB"/>
<path d="M450 648.5C449 654 420 682.5 419.5 686.5C419 690.5 470.5 737 478.5 738C486.5 739 497 729 498.5 720C500 711 520.5 704 525 703C529.5 702 534 689.5 536 686.5C538 683.5 559.5 670.5 564 670.5C568.5 670.5 589 686.5 591.5 686.5C594 686.5 589.5 666 591.5 664.5C593.5 663 624 675 633 674.5C642 674 672 654.5 674.5 648.5C677 642.5 676.5 623 679 615C681.5 607 676 577.5 666 564.5C656 551.5 630.5 555 626.5 553.5C622.5 552 611 536.5 606.5 533.5C602 530.5 585 528.5 579.5 526C574 523.5 560 510 555 514.5C550 519 570.5 556 564.5 564.5C558.5 573 531 571.5 525 564.5C519 557.5 524 548 520 544C516 540 486.5 560 484 564.5C481.5 569 480.5 593 478.5 595.5C476.5 598 465 594 461.5 595.5C458 597 446.5 627.5 446.5 630.5C446.5 633.5 451 643 450 648.5Z" fill="#D8D3CB"/>
<path d="M367 192C368 183.5 366 158.5 371 157.5C376 156.5 377 159.5 379 164.5C381 169.5 391 189.5 390.5 197.5C390 205.5 384 228 379 232C374 236 348.5 247 347 251.5C345.5 256 338.5 278 331 276.5C323.5 275 322.5 263.5 324 260C325.5 256.5 349.5 230 353.5 226C357.5 222 366 200.5 367 192Z" fill="#D8D3CB"/>
<path d="M276.5 363.5C273.5 357.5 283 333.5 288.5 333C294 332.5 293.5 335.5 294 342.5C294.5 349.5 293 361.5 288 369.5C283 377.5 279.5 369.5 276.5 363.5Z" fill="#D8D3CB"/>
<path d="M291 437C283 428.6 289.667 410.5 294 402.5C301 401 304.5 410.5 309.5 418C314.5 425.5 306.5 429.5 312.5 440C318.5 450.5 317 453.5 314 449.5C311 445.5 301 447.5 291 437Z" fill="#D8D3CB"/>
<path d="M349.5 490.5C346.5 492.5 324.5 502.5 326.5 506C328.5 509.5 347.5 504.5 354.5 509.5C361.5 514.5 370 518 375.5 516.5C381 515 380.5 499 379 492.5C377.5 486 366.5 474.5 361.5 474.5C356.5 474.5 352.5 488.5 349.5 490.5Z" fill="#D8D3CB"/>
<path d="M293 564C287.5 566 269 576 266.5 579.5C264 583 263 585.5 266.5 592.5C270 599.5 286 613 289.5 615C293 617 320 618 322.5 615C325 612 322.5 595 322.5 589.5C322.5 584 333 579.5 333 576C333 572.5 326.5 568 326.5 562C326.5 556 335.5 546 335.5 542C335.5 538 326.5 530.5 322.5 529.5C318.5 528.5 309.5 537.5 308 540C306.5 542.5 298.5 562 293 564Z" fill="#D8D3CB"/>
<path d="M192.5 573.5C189 569 161.5 547.5 158.5 553.5C155.5 559.5 164.5 564 168 566.5C171.5 569 190.5 592.5 192.5 598C194.5 603.5 204 623 212 626.5C220 630 248 649.5 251.5 645.5C255 641.5 251.5 633.5 249.5 628C247.5 622.5 240 613 236.5 608C233 603 215.5 594.5 210.5 592.5C205.5 590.5 196 578 192.5 573.5Z" fill="#D8D3CB"/>
<path d="M300.5 648.5C293 646 266.5 639.5 261.5 642.5C256.5 645.5 256.5 655.5 261.5 655.5C266.5 655.5 290.5 657 298.5 659C306.5 661 330 665 335.5 665C341 665 336.5 657.5 333 655.5C329.5 653.5 308 651 300.5 648.5Z" fill="#D8D3CB"/>
<path d="M467 487C461.5 487 447.5 484 440 490C432.5 496 443 508 451.5 506C460 504 482.5 493 488.5 491.5C494.5 490 495.5 507.5 499.5 509.5C503.5 511.5 532 499.5 533.5 496.5C535 493.5 533.5 486 535 484C536.5 482 554.5 483 559.5 482C564.5 481 581.5 473.5 582 469.5C582.5 465.5 552.5 458.5 548.5 458.5C544.5 458.5 533 463 529 462.5C525 462 520 458.5 513.5 458.5C507 458.5 474.5 473.5 472.5 476.5C470.5 479.5 472.5 487 467 487Z" fill="#D8D3CB"/>
<path d="M666 695C661 693 658.167 685.333 655.5 682C655.5 677.5 658 679.5 661.5 676.5C665 673.5 679.5 672.5 680.5 675.5C681.5 678.5 676.5 686 675.5 689C674.5 692 677 699 674.5 700.5C672 702 671 697 666 695Z" fill="#D8D3CB"/>
<path d="M741.5 512C735 509 735 510 730.5 508.5C722.5 512 743.5 519 748.5 524C753.5 529 742.5 532.5 743.5 539C744.5 545.5 754.5 551 756.5 550C758.5 549 769.5 523.5 770 521C770.5 518.5 769.5 519 761.5 518C753.5 517 748 515 741.5 512Z" fill="#D8D3CB"/>
<path d="M758 560.5C756.5 558 748.5 551.5 746 551.5C743.5 551.5 720 608.5 721 611C722 613.5 741 611.5 743.5 607.5C746 603.5 759.5 563 758 560.5Z" fill="#D8D3CB"/>
</g>
</svg>
