<svg xmlns="http://www.w3.org/2000/svg" xmlns:xlink="http://www.w3.org/1999/xlink" width="1650.896" height="149.805" viewBox="0 0 1650.896 149.805">
  <defs>
    <clipPath id="clip-path">
      <rect id="Rectangle_1745" data-name="Rectangle 1745" width="1650.896" height="149.805"/>
    </clipPath>
  </defs>
  <g id="Group_7836" data-name="Group 7836" transform="translate(0 0)">
    <g id="Group_7835" data-name="Group 7835" transform="translate(0 0)" clip-path="url(#clip-path)">
      <path id="Path_3009" data-name="Path 3009" d="M67.624,19.318v98.853c0,12.343-.213,20.814,11.274,27.537v.644H35.977v-.644c10.828-4.119,9.538-19.951,9.538-29.7V19.318H26.449c-9.331,0-19.086,2.374-25.791,8.66H0L7.582,2.214H8.25c2.6,1.075,5.407,1.075,8.216,1.484h86.268c3.695,0,7.157-.211,9.986-1.484h.648l-6.939,25.765h-.648c-2.807-7.6-11.489-8.66-18.646-8.66ZM226.959,76.765v39.243c0,9.748,1.492,25.58-9.548,29.7v.644H258.8v-.644c-11.036-4.119-9.723-19.951-9.723-29.7V34.064c0-9.769-1.313-25.572,9.723-29.682V3.7H217.411v.684c11.04,4.11,9.548,19.913,9.548,29.916V61.147H148.694V34.3c0-10-1.282-25.806,9.529-29.916V3.7H117.061v.684c11.036,4.11,9.525,19.913,9.525,29.682v81.945c0,9.748,1.307,25.58-9.525,29.7v.644h41.162v-.644c-10.811-4.119-9.529-19.951-9.529-29.7V76.765Zm73.464,0h16.039c6.716,0,15.815-.2,19.3,6.061h.636V59.874h-.636c-2.6,1.273-6.086,1.273-9.538,1.273h-25.8V20.8c6.922-1.277,14.529-1.482,22.095-1.482,9.99,0,18.859.871,25.589,8.66h.654V2.627h-.654C345.27,4.117,341.623,3.7,337.945,3.7H268.561v.684C279.6,8.492,278.319,24.3,278.319,34.3v81.71c0,9.748,1.286,25.768-9.757,29.7v.644h90.378l9.756-28.447h-.65a54.17,54.17,0,0,1-40.091,12.857l-27.531-2.633Zm226.622,0v39.243c0,9.748,1.524,25.58-9.529,29.7v.644h41.41v-.644c-11.078-4.119-9.752-19.951-9.752-29.7V34.064c0-9.769-1.326-25.572,9.752-29.682V3.7h-41.41v.684c11.053,4.11,9.529,19.913,9.529,29.916V61.147H448.8V34.3c0-10-1.3-25.806,9.531-29.916V3.7H417.152v.684c11.051,4.11,9.542,19.913,9.542,29.682v81.945c0,9.748,1.3,25.58-9.542,29.7v.644h41.179v-.644c-10.826-4.119-9.531-19.951-9.531-29.7V76.765ZM645.826.024c45.537-.189,77.6,34.457,77.6,73.511,0,44.191-36.621,76.268-79.765,76.268-42.921,0-79.136-30.766-79.136-75.264,0-41.137,35.8-75.579,81.3-74.516m-1.507,15.6c-33.6,0-55.058,24.282-55.058,57.02,0,30.36,21.462,61.578,55.471,61.578,32.98,0,53.987-24.1,53.987-56.363,0-31.637-20.165-62.235-54.4-62.235M831.783,146.352h31.871v-.644c-11.061-4.119-9.744-19.951-9.744-29.7V34.3c0-10-1.317-25.806,9.744-29.916l-.242-.684H822.255v.684c10.843,4.11,9.529,19.913,9.529,29.682v65.25c0,7.8.223,13.229-4.558,19.724-7.16,10.179-19.5,15.184-31.629,15.184-22.323,0-34.465-13.435-34.465-42.246V34.064c0-9.769-1.3-25.572,9.538-29.682V3.7h-41.2v.684c11.038,4.11,9.538,19.913,9.538,29.682V91.976c0,15.531-.431,30.059,11.087,42.644,9.735,10.63,24.911,15.184,39.209,15.184,15.171,0,32.952-5.232,42.48-17.779ZM877.932,3.7v.684c11.061,4.11,9.58,19.913,9.58,29.916v81.71c0,9.748,1.48,25.768-9.58,29.7v.644h41.425v-.644c-11.07-3.931-9.776-19.755-9.776-29.7V18.88a116.913,116.913,0,0,1,14.746-1.709c14.494-.7,27.982,8.418,27.982,24.05,0,20.365-20.182,28.388-37.5,30.98l19.917,30.574,26.447,32.767c6.534,7.968,13.665,10.811,25.141,10.811h19.947c-12.379-7.822-26-19.105-35.114-30.343L939.912,76.765c17.8-4.121,34.5-19.071,34.5-38.148C974.41,18.88,958.6,3.7,929.537,3.7Zm279.972.252a164.183,164.183,0,0,0-34.049-3.7c-52.461,0-89.532,29.067-89.532,75.653,0,43.568,32.752,73.9,88.269,73.9,17.533,0,34.466-3.214,51.79-6.474-1.3-3.06-1.077-6.545-1.077-9.8V83.684c0-3.239,0-6.716,1.077-9.312V73.69h-33.177v.682c9.756,3.883,9.98,14.523,9.98,24.476v31.2a109.952,109.952,0,0,1-30.134,4.173c-34.236,0-61.99-26.433-61.99-61.326,0-34.924,25.8-57.026,59.591-57.026,13.25,0,29.691,3.01,38.611,12.987h.64Zm58.3,124.837V34.3c0-9.786-1.536-25.806,9.533-29.916V3.7h-41.4v.684c11.049,4.11,9.727,19.913,9.727,29.916v81.71c0,9.748,1.322,25.768-9.727,29.7v.644h89.08l11.276-28.842h-.684c-10.779,9.136-23.594,14.117-38.336,13.252ZM1388.013,92.8h-54.606l-11.3,30.574c-4.521,12.162-6.04,18.4,4.365,22.329v.644H1286.6v-.644c12.558-6.313,16.272-18.461,20.988-30.842l36.244-90.353c3.02-7.8,7.124-16.887-3.264-20.13V3.7H1374.8l45.108,111.167c4.952,12.381,8.87,24.53,21.228,30.842v.644H1396.7v-.644c10.64-4.788,8.9-7.178,3.035-22.329Zm-6.269-16.039L1360.5,22.176l-21.447,54.589ZM1530.013,5.009A109.483,109.483,0,0,0,1497.705.251c-26.447,0-54.412,10.386-54.412,37.721,0,45.939,74.565,39.887,74.565,73.708,0,15.165-18.65,22.543-30.993,22.543-16.906,0-34.687-6.976-47.461-18.021l6.286,27.129a112.942,112.942,0,0,0,38.778,6.474c33.83,0,58.116-21.676,58.116-44.872,0-40.085-74.582-39.655-74.582-69.4,0-14.91,15.624-19.663,27.954-19.663,12.16,0,25.606,4.931,34.057,13.644Zm108.328,0A109.534,109.534,0,0,0,1606.005.251c-26.428,0-54.372,10.386-54.372,37.721,0,45.939,74.575,39.887,74.575,73.708,0,15.165-18.661,22.543-31.021,22.543-16.887,0-34.68-6.976-47.461-18.021l6.251,27.129A113.337,113.337,0,0,0,1592.8,149.8c33.805,0,58.093-21.676,58.093-44.872,0-40.085-74.557-39.655-74.557-69.4,0-14.91,15.611-19.663,27.958-19.663,12.133,0,25.58,4.931,34.043,13.644Z" transform="translate(0 0.001)"/>
    </g>
  </g>
</svg>
