<svg width="209" height="58" viewBox="0 0 209 58" fill="none" xmlns="http://www.w3.org/2000/svg">
<g clip-path="url(#clip0_129_76)">
<path d="M44.1003 0C42.3003 0 40.3003 0.2 38.2003 0.7C38.2003 0.7 27.1003 3.4 14.9003 14.8C14.9003 14.8 9.10033 20.7 4.90033 28.3C4.90033 28.3 0.600333 36.3 0.000332745 42.8C0.000332745 42.8 -0.599667 50.3 3.60033 54.1C3.60033 54.1 8.40033 58.5 19.1003 57.7C19.1003 57.7 25.7003 56.8 33.0003 52.4C33.0003 52.4 36.4003 50.2 38.8003 48C38.8003 48 37.7003 51.8 39.3003 54.5C39.3003 54.5 40.8003 57.1 44.1003 57.7C44.1003 57.7 46.6003 58.2 50.0003 56.8C50.0003 56.8 52.2003 55.8 53.7003 55.1C53.7003 55.1 56.6003 53.5 59.6003 51.2C59.6003 51.2 59.0003 53.4 60.3003 55.4C60.3003 55.4 61.9003 57.6 64.7003 57.9C64.7003 57.9 72.3003 58.5 82.9003 45.5L75.4003 57.4L82.2003 57.3L88.0003 47.1C88.0003 47.1 94.1003 36.5 95.5003 35.3C95.5003 35.3 98.7003 31.1 103.5 30.1L106.7 30.3C106.7 30.3 108.1 30.9 108.1 32.4L105.8 32C105.8 32 104.4 32.1 103.7 33.6C103.7 33.6 103.1 35 103.3 36.3C103.3 36.3 103.7 37.4 104.8 37.9L105.5 38.1L107.8 37.7C107.8 37.7 112 36.1 117.6 29.1L116.2 31.4L111.4 39.5L105.9 49.3C105.9 49.3 104.3 52.5 105 54.5C105 54.5 105.7 56.3 108.2 56.8L113.5 56.4C113.5 56.4 116.4 55.5 118.9 53.5L122.3 50.7C122.3 50.7 126.5 47.1 130.3 43L130.1 43.4C130.1 43.4 126.8 49.4 126.2 51.5C126.2 51.5 124.8 55.8 127.9 57.5L131.3 57.9C131.3 57.9 134.1 57.5 137 55.4L141.7 51.5C141.7 51.5 145.6 47.8 147.7 45.1C147.7 45.1 146.6 47.6 146.3 49.3C146.3 49.3 145.4 55 150.7 57.3L155.6 57.7C155.6 57.7 157.6 57.6 160.5 56.5C160.5 56.5 167.5 54.3 177.2 45.2C177.2 45.2 182.1 40.7 185.6 36.6L173.3 57.2H179.3L183.8 49.6L189.6 40.1C189.6 40.1 192.9 34.8 198.9 31.5C198.9 31.5 201.4 30 203.2 29.8C203.2 29.8 205.2 29.4 205.5 30.4C205.5 30.4 202.8 29.8 202.1 32.6C202.1 32.6 201.5 35.4 203.7 36.3C203.7 36.3 205.4 36.9 206.8 35.9C206.8 35.9 208 35 208.4 33.3C208.4 33.3 208.8 31.6 207.9 30.4C207.9 30.4 206.9 28.9 204.7 28.8C204.7 28.8 202.2 28.7 197.2 32C197.2 32 193.5 34.5 191.9 35.9L196.1 28.9H190C190 28.9 184.2 38.7 173.9 47.2C173.9 47.2 163.8 55.3 158.2 55.6C158.2 55.6 152.7 56 152.2 51.8C152.2 51.8 151.8 49.3 153.3 45.8C153.3 45.8 156.7 46.2 161.3 44.7C161.3 44.7 165.6 43.3 169.2 40.9C169.2 40.9 173 38.3 174.4 35.6C174.4 35.6 176 32.5 174.2 29.9C174.2 29.9 170.8 26.6 163.4 29.7C163.4 29.7 155.8 32.9 150.1 40.4L148.6 42.6L148.5 42.8L144.4 47.5L140.2 51.7C140.2 51.7 135.2 56.6 132.7 55.1C132.7 55.1 131.7 54.5 131.7 52.9C131.7 52.9 131.7 51.3 132.8 49.5L144.5 29.1H139.2C139.2 29.1 136.3 33.9 132.9 38.4C132.9 38.4 126.3 47.2 119 52.3C119 52.3 114.1 56.1 111.3 54.8C111.3 54.8 110.1 54.2 110.2 52.7C110.2 52.7 110.3 51 111.9 48.6L123.3 29.1L129.7 29L130.6 28.1H124.1L131 16L125.2 16.1C125.2 16.1 121.1 23 118.1 27.2C118.1 27.2 112.4 34.7 107.8 36.7C107.8 36.7 108.7 35.6 108.7 34L108.6 32.6C108.6 32.6 108.2 30.9 106.6 30.1L105.1 29.7L102.4 29.9C102.4 29.9 99.2003 30.6 96.1003 33.2L98.6003 29H92.8003C92.8003 29 87.5003 38.3 80.6003 46.4C80.6003 46.4 71.6003 56.7 66.7003 55.5C66.7003 55.5 65.2003 54.8 65.1003 53C65.1003 53 65.1003 51.3 66.7003 48.7L78.4003 28.9L72.6003 29L70.8003 32.2L69.6003 34.5C69.6003 34.5 69.8003 33.8 69.6003 32.3C69.6003 32.3 69.1003 28.6 65.7003 27.9L63.0003 27.7C63.0003 27.7 56.0003 27.6 48.1003 34.6C48.1003 34.6 42.7003 39.4 38.5003 46.8C38.5003 46.8 30.3003 54.5 21.5003 56.1C21.5003 56.1 13.8003 57.7 10.4003 54.3C10.4003 54.3 6.70033 50.6 6.70033 44.1C6.70033 44.1 6.80033 36.4 12.2003 26C12.2003 26 18.0003 17.4 21.5003 13.6C21.5003 13.6 30.6003 3.6 39.9003 1.2C39.9003 1.2 47.6003 -0.8 51.8003 2.7C51.8003 2.7 55.5003 5.6 55.7003 11.8L58.0003 8.4C58.0003 8.4 60.7003 4.2 63.0003 1.8C63.0003 1.8 60.8003 2.8 58.2003 3.2C58.2003 3.2 54.9003 3.6 53.3003 2.6C53.6003 2.3 50.0003 0.1 44.1003 0ZM63.9003 28.6C66.2003 28.6 67.5003 29.7 67.5003 29.7C70.3003 32.3 68.1003 37.2 68.1003 37.2C63.7003 46.3 57.3003 51.7 57.3003 51.7L53.4003 54.4C47.4003 57.3 44.8003 55.3 44.8003 55.3C42.7003 53.6 43.6003 49.5 43.6003 49.5C44.2003 46.8 46.4003 42.7 46.4003 42.7L50.8003 36.3C54.7003 31.9 59.3003 29.7 59.3003 29.7C61.1003 28.9 62.7003 28.6 63.9003 28.6ZM168 29.4H168.2C168.2 29.4 169.6 29.5 170 30.3C170 30.3 170.6 31.2 170.4 32.8C170.4 32.8 170 37.1 165.2 41.2C165.2 41.2 159.8 45.9 153.5 45.6L154.7 43.1C154.7 43.1 157.4 37.8 161.5 33.6C161.6 33.4 165.4 29.4 168 29.4Z" fill="#1A1715"/>
<path d="M143.4 20.3C143.4 20.3 143.4 21.4 144.3 22.1C144.3 22.1 145 22.8 146.1 22.8C146.1 22.8 147.2 22.8 147.8 22.1C147.8 22.1 148.5 21.2 148.5 20.3L147.8 18.5C147.8 18.5 146.9 17.8 146.1 17.8C146.1 17.8 145 17.8 144.3 18.5C144.2 18.4 143.4 19.2 143.4 20.3Z" fill="#1A1715"/>
</g>
<defs>
<clipPath id="clip0_129_76">
<rect width="208.6" height="58" fill="white"/>
</clipPath>
</defs>
</svg>
