<svg width="479" height="278" viewBox="0 0 479 278" fill="none" xmlns="http://www.w3.org/2000/svg">
<path d="M43.2088 148.884H52.4678V166.182H19.7526V148.884H29.0116V138.382H0V148.884H9.25902V200.778H0V211.28H29.0116V200.778H19.7526V176.684H52.4678V200.778H43.2088V211.28H72.2204V200.778H62.9613V148.884H72.2204V138.382H43.2088M393.817 200.16H365.423V176.067H390.113V165.564H365.423V148.267H394.434V158.151H404.311V137.764H345.053V148.267H354.929V200.16H345.053V210.662H404.311V186.569H393.817M145.675 186.569H135.182V200.16H106.787V176.067H131.478V165.564H106.787V148.267H135.799V158.151H145.675V137.764H86.4175V148.267H96.2938V200.16H86.4175V210.662H145.675M367.892 134.676H388.879L383.323 128.498H361.719M461.717 169.271C454.309 167.418 449.371 167.418 441.964 164.947C435.174 162.476 433.939 158.769 433.939 155.68C433.939 153.209 437.026 145.796 447.519 145.796C458.013 145.796 464.803 152.591 465.42 158.769H475.296V137.764H465.42V142.089V143.324C465.42 143.324 464.803 142.707 464.186 141.471C461.099 138.382 454.927 135.911 446.285 135.911C435.791 135.911 422.829 142.707 422.829 155.68C422.829 168.036 432.088 172.36 439.495 174.831C446.902 176.684 451.223 176.684 457.396 178.538C463.568 180.391 467.889 184.098 467.889 189.658C467.889 195.218 464.803 202.013 451.223 202.013C437.643 202.013 432.088 194.6 430.853 184.098H420.977V209.427H430.853V204.484L430.236 203.249C430.236 203.249 430.853 203.867 431.47 205.102C436.409 208.809 443.198 211.28 451.84 211.28C461.099 211.28 477.765 206.338 477.765 189.04C479 177.92 472.827 172.36 461.717 169.271ZM301.844 200.16V210.662H331.473V200.16H321.597V148.267H331.473V137.764H304.93L287.647 179.773L287.03 181.627L286.412 179.773L269.129 137.764H242.586V148.267H252.463V200.16H242.586V210.662H272.215V200.16H262.956V152.591V149.502L263.573 151.973L283.943 200.16H290.116L310.486 151.973L311.103 149.502V152.591V200.778M100.615 108.111V110.582H110.491C109.256 109.964 108.639 109.347 107.405 108.111H100.615ZM367.892 108.111H362.954C361.719 108.111 360.485 109.347 360.485 110.582H368.509L367.892 108.111ZM100.615 117.378H367.892V112.436H195.674C191.353 114.289 185.798 114.289 181.477 112.436H129.626C124.688 114.907 119.133 114.289 114.195 112.436H100.615V117.378ZM175.921 108.111H135.799C135.799 108.111 133.947 109.964 133.33 110.582H179.008C177.156 109.347 176.539 108.729 175.921 108.111Z" fill="#1A1715"/>
<path d="M104.936 89.5778C104.318 91.4311 104.318 92.6667 104.318 94.52C104.318 103.787 112.343 111.818 122.219 111.2C131.478 111.2 138.885 103.787 138.885 94.52C138.885 92.6667 138.268 90.8133 137.651 88.96C139.503 88.3422 141.354 88.3422 143.206 87.7244C143.823 87.7244 143.823 87.1067 143.206 87.1067C140.737 86.4889 137.651 85.8711 135.182 85.2533C132.095 80.9289 126.54 77.84 120.985 77.84C118.515 77.84 116.664 78.4578 114.812 79.0756C114.195 77.84 114.195 75.9867 114.812 74.1333C116.664 71.0444 120.367 70.4267 123.454 69.8089C124.688 69.8089 127.157 69.8089 127.157 70.4267C127.775 71.0444 129.009 71.0444 130.244 70.4267C131.478 71.0444 131.478 71.0444 132.713 71.6622C143.823 75.3689 156.169 77.2222 167.897 75.3689C169.749 77.2222 170.983 80.3111 172.218 82.7822C172.835 83.4 172.835 82.1644 179.008 82.1644C180.86 82.1644 183.946 82.1644 185.798 82.1644C180.86 82.7822 177.156 85.2533 174.687 88.96C170.983 90.1956 167.897 91.4311 166.662 92.0489C166.662 92.0489 166.662 92.6667 167.897 92.6667C169.749 93.2844 171.601 93.2844 173.452 93.9022C173.452 94.52 173.452 95.7556 173.452 96.3733C173.452 105.022 180.242 111.818 188.884 111.818C197.526 111.818 204.316 105.022 204.316 96.3733C204.316 93.9022 203.698 91.4311 202.464 88.96C204.316 88.3422 206.168 87.7244 208.637 86.4889C210.488 87.1067 211.723 88.3422 212.34 89.5778C213.575 90.8133 215.427 90.1956 216.661 90.1956C218.513 89.5778 219.13 87.7244 219.13 85.8711C219.13 85.2533 219.13 84.0178 219.747 83.4C222.217 77.84 232.093 77.2222 237.031 75.9867C237.031 75.9867 234.562 79.0756 232.71 79.6933C232.093 87.7244 229.006 95.1378 229.006 103.169C231.476 103.169 231.476 106.258 232.093 107.493C231.476 108.729 230.241 107.493 229.006 108.111C225.303 106.258 229.624 102.551 227.155 100.08C228.389 93.2844 231.476 87.1067 230.858 80.3111C229.624 80.3111 229.624 81.5467 229.006 82.1644C228.389 88.96 226.537 95.1378 224.686 100.698C225.303 101.316 226.537 101.316 226.537 102.551C224.068 103.787 226.537 106.258 225.92 108.111H202.464L199.995 110.582H236.414L237.031 109.347C231.476 103.787 233.945 95.1378 236.414 88.96L242.586 80.3111C247.525 78.4578 251.228 71.6622 256.166 69.8089C256.166 72.28 253.08 73.5156 251.228 75.3689C249.376 79.6933 243.204 80.3111 242.586 85.2533C245.055 87.7244 248.142 89.5778 251.228 92.0489C254.314 93.9022 253.08 97.6089 255.549 99.4622C256.166 100.08 255.549 100.698 254.932 101.316C252.463 101.933 252.463 103.787 254.314 105.022C255.549 105.64 256.166 106.876 256.166 107.493H239.5C239.5 108.111 240.117 108.729 240.735 109.964H333.325C333.942 108.729 332.708 106.876 332.09 105.64C325.3 103.169 325.3 96.9911 325.3 90.1956C325.3 90.1956 324.683 89.5778 325.3 87.7244C324.066 87.1067 319.745 75.9867 322.214 67.3378L323.449 64.2489C324.683 62.3956 323.449 61.16 324.066 59.3067L343.818 55.6C344.436 55.6 343.818 54.3644 343.818 54.3644L337.646 55.6C332.708 53.7467 325.918 49.4222 321.597 43.2444C322.831 33.36 322.214 25.9467 321.597 20.3867C324.683 17.9156 326.535 16.0622 326.535 16.0622C328.387 17.2978 329.004 16.68 329.004 16.0622C328.387 15.4444 325.918 14.2089 326.535 12.9733C328.387 13.5911 329.004 12.9733 329.004 11.7378L325.3 12.3556V11.7378C325.918 11.12 327.152 11.7378 328.387 11.7378C329.621 11.12 328.387 9.88444 328.387 9.26667C325.918 6.17778 320.979 6.17778 317.893 4.32444C317.276 2.47111 316.659 1.85333 315.424 1.23556C314.807 0 310.486 0 309.251 0C308.634 0 306.782 1.85333 306.782 1.85333C304.313 2.47111 302.461 1.23556 299.992 0C299.992 0 300.61 2.47111 303.079 3.70667C301.227 4.32444 299.992 6.17778 299.375 8.64889C296.906 9.26667 296.289 12.3556 296.906 13.5911C294.437 14.8267 294.437 16.68 295.671 19.1511C293.82 20.3867 293.82 22.8578 294.437 24.0933C292.585 25.3289 294.437 28.4178 294.437 30.2711C299.375 29.0356 306.165 40.7733 315.424 42.0089C317.276 33.9778 314.807 29.6533 312.955 25.9467C314.807 24.7111 316.041 23.4756 317.893 22.24C319.128 27.1822 319.745 35.2133 318.51 43.2444C317.893 43.2444 317.276 42.6267 316.659 42.6267C316.659 42.6267 317.893 44.48 317.893 45.0978C317.893 45.0978 314.807 46.9511 308.634 44.48C306.782 48.1867 286.412 57.4533 286.412 57.4533C287.03 63.0133 290.116 66.72 292.585 69.8089C296.906 72.8978 301.844 74.7511 307.4 75.9867C308.634 79.0756 312.338 88.96 312.955 90.8133C313.572 92.6667 314.189 92.6667 314.189 92.6667C314.807 93.2844 316.659 96.3733 316.659 98.2267L317.276 103.787C317.276 105.022 319.128 103.787 319.128 105.022L318.51 108.729H256.784C257.401 104.404 255.549 100.698 256.784 96.9911C254.314 92.6667 247.525 89.5778 248.759 84.0178C251.845 79.6933 262.339 75.3689 259.87 69.8089C269.129 64.8667 274.067 72.8978 282.709 72.28C285.795 72.28 288.881 71.6622 291.968 71.0444C288.264 67.9556 285.178 63.6311 283.326 59.9244C264.808 67.3378 247.525 73.5156 227.155 77.2222L225.92 76.6044C224.686 76.6044 202.464 81.5467 196.909 84.0178C195.674 83.4 193.822 82.1644 191.97 82.1644H192.588C194.439 82.1644 197.526 80.9289 199.378 80.3111C208.019 77.2222 211.106 64.8667 214.809 57.4533C217.896 69.1911 225.92 70.4267 230.241 69.1911L230.858 72.8978C230.858 72.8978 234.562 72.8978 237.648 71.6622C237.648 71.0444 237.031 69.1911 236.414 66.72C238.265 66.1022 238.883 64.8667 240.117 64.8667C240.117 67.9556 240.735 70.4267 239.5 71.6622L249.376 69.1911C251.228 60.5422 256.784 48.1867 266.043 39.5378C253.697 34.5956 244.438 40.1556 241.969 42.6267C230.241 46.3333 229.624 62.3956 230.241 68.5733C228.389 69.1911 219.747 71.6622 215.427 56.8356C217.278 49.4222 221.599 43.2444 227.155 38.3022C227.772 37.6844 227.155 37.0667 225.92 37.6844C216.044 44.48 212.34 56.8356 206.785 67.3378C202.464 73.5156 196.909 77.2222 188.267 76.6044C177.773 76.6044 172.218 65.4844 167.28 58.0711C159.872 41.3911 140.12 47.5689 125.305 43.8622C124.688 43.2444 122.836 38.92 120.367 38.92C118.515 38.92 120.367 40.7733 119.133 41.3911C117.281 40.7733 116.046 39.5378 113.577 39.5378C112.343 39.5378 111.726 41.3911 111.726 42.6267C112.96 48.1867 118.515 50.04 122.836 51.8933C124.688 54.3644 124.071 62.3956 122.219 65.4844C120.367 68.5733 113.577 67.3378 112.343 74.7511C112.343 75.9867 112.343 77.84 112.96 78.4578C110.491 79.6933 108.022 82.1644 106.17 84.6356C103.084 85.2533 100.615 85.8711 97.5284 87.1067C96.9111 87.1067 96.9111 87.7244 97.5284 87.7244C100.615 88.96 103.084 88.96 104.936 89.5778ZM320.979 48.1867C323.449 50.6578 329.621 54.9822 333.325 56.2178L322.214 58.0711C323.449 53.7467 319.128 51.8933 320.979 48.1867ZM322.214 10.5022C322.831 10.5022 324.066 10.5022 324.066 11.12C324.066 11.12 324.066 11.7378 324.066 12.3556C323.449 12.3556 322.214 12.3556 322.214 11.7378C321.597 11.12 321.597 10.5022 322.214 10.5022ZM322.214 12.9733C322.214 13.5911 322.831 14.8267 323.449 15.4444C323.449 16.0622 321.597 17.9156 319.128 19.7689C318.51 16.68 317.893 14.8267 317.893 14.2089C317.893 13.5911 320.979 12.9733 322.214 12.9733ZM311.72 3.08889C312.338 3.08889 312.955 3.08889 312.955 3.08889C312.955 3.08889 312.955 3.70667 312.955 4.32444L311.72 4.94222C311.72 4.94222 310.486 4.32444 310.486 3.70667C311.103 3.70667 311.103 3.08889 311.72 3.08889ZM312.955 24.7111C311.72 22.24 310.486 19.1511 311.103 15.4444C312.338 15.4444 314.189 16.0622 316.659 15.4444C316.659 15.4444 317.276 17.9156 317.893 21.6222C316.041 22.24 314.189 23.4756 312.955 24.7111ZM296.289 70.4267C292.585 68.5733 295.054 69.8089 295.671 69.1911C301.844 72.28 304.93 71.6622 309.869 71.0444C310.486 71.6622 311.72 72.8978 311.72 74.1333C305.548 75.3689 301.227 73.5156 296.289 70.4267ZM318.51 101.316C317.893 98.2267 317.893 96.3733 316.659 94.52C315.424 91.4311 312.338 82.7822 309.869 75.3689C311.103 74.1333 312.338 74.7511 312.955 78.4578C313.572 81.5467 314.807 84.0178 315.424 86.4889C316.659 88.96 317.276 92.6667 317.893 94.52C317.893 94.52 318.51 94.52 319.128 95.7556C320.979 101.316 321.597 102.551 321.597 105.022C322.214 106.876 325.3 105.64 324.683 108.111H318.51H320.979C320.362 105.64 321.597 103.169 318.51 101.316ZM196.291 106.258C194.439 107.493 192.588 108.111 190.119 108.729L189.501 108.111L188.884 100.08C188.884 100.08 189.501 100.08 190.119 99.4622C190.119 99.4622 190.119 99.4622 190.736 99.4622L195.674 105.64C196.291 105.64 196.291 106.258 196.291 106.258ZM188.267 108.729C186.415 108.729 183.946 108.111 182.711 106.876C182.711 106.876 182.711 106.258 182.711 105.64L187.032 98.8444H187.65L188.267 106.876C188.884 108.111 188.884 108.729 188.267 108.729ZM177.773 92.6667L177.156 92.0489C177.773 90.8133 177.773 90.1956 179.008 88.96C180.242 88.96 180.86 88.3422 182.094 88.3422L185.18 92.6667C182.711 92.6667 180.86 93.2844 179.008 93.2844L177.773 92.6667ZM187.032 83.4L187.65 84.0178V84.6356C185.798 85.2533 183.329 85.2533 181.477 85.8711V85.2533C183.329 84.6356 185.18 84.0178 187.032 83.4ZM186.415 92.0489L182.711 87.7244C184.563 87.1067 186.415 87.1067 187.65 86.4889V91.4311C187.65 92.0489 187.032 92.0489 186.415 92.0489ZM185.798 93.2844C185.798 93.9022 185.18 93.9022 185.18 93.9022C185.18 93.9022 185.18 93.9022 184.563 93.9022L182.094 93.2844C183.946 93.9022 184.563 93.9022 185.798 93.2844ZM188.884 91.4311V86.4889C190.736 85.8711 193.205 85.8711 195.057 85.2533V85.8711L191.97 90.8133C190.736 90.8133 190.119 91.4311 188.884 91.4311ZM195.674 86.4889L196.291 85.8711C196.909 86.4889 198.143 87.1067 198.76 88.3422C196.909 88.96 195.057 89.5778 193.205 90.1956C193.205 90.1956 195.674 86.4889 195.674 86.4889ZM188.884 84.6356C188.884 84.0178 188.884 83.4 189.501 83.4C190.736 83.4 191.97 83.4 193.205 84.0178C191.353 84.6356 190.119 84.6356 188.884 84.6356ZM170.366 92.0489C169.749 92.0489 169.749 91.4311 170.366 92.0489C171.601 90.8133 173.452 90.1956 174.687 89.5778C174.07 90.1956 174.07 91.4311 173.452 92.6667C172.835 92.6667 171.601 92.6667 170.366 92.0489ZM176.539 93.9022C177.773 93.9022 178.39 93.9022 179.625 93.9022L185.18 95.1378C185.18 95.1378 185.18 95.7556 185.18 96.3733L177.773 99.4622C177.773 99.4622 177.156 99.4622 176.539 99.4622C175.921 98.2267 175.921 96.9911 175.921 95.7556C175.921 95.7556 175.921 94.52 176.539 93.9022ZM177.156 101.933L177.773 101.316L185.18 98.2267L185.798 98.8444C185.798 98.8444 185.798 98.8444 185.798 99.4622L181.477 106.258L180.86 106.876C179.625 105.022 178.391 103.787 177.156 101.933ZM197.526 105.022C197.526 105.022 196.909 105.022 196.909 104.404L191.97 98.2267C191.97 98.2267 191.97 97.6089 192.588 97.6089C192.588 97.6089 192.588 97.6089 193.205 97.6089L200.612 99.4622L201.229 100.08C199.995 101.933 199.378 103.787 197.526 105.022ZM201.229 98.8444C201.229 98.8444 200.612 98.8444 199.995 98.8444L192.588 96.9911V96.3733C192.588 96.3733 192.588 96.3733 192.588 95.7556L199.995 92.6667C199.995 92.6667 200.612 92.6667 201.229 92.6667C201.847 93.9022 201.847 95.1378 201.847 96.3733C201.229 96.9911 201.229 97.6089 201.229 98.8444ZM199.995 90.8133L191.97 94.52L191.353 93.9022C191.353 93.9022 191.353 93.9022 191.353 93.2844L191.97 92.0489C194.439 91.4311 196.909 90.8133 199.378 89.5778C199.995 90.1956 199.995 90.1956 199.995 90.8133ZM220.365 79.6933C217.278 82.1644 218.513 85.2533 216.661 85.8711C216.044 85.8711 211.723 86.4889 211.106 87.1067C209.871 85.8711 208.019 84.6356 206.168 84.0178C209.871 81.5467 216.661 80.3111 220.365 79.6933ZM206.785 85.8711C206.168 86.4889 204.316 87.1067 201.229 87.7244C200.612 86.4889 199.995 85.8711 198.76 85.2533C202.464 84.6356 204.933 85.2533 206.785 85.8711ZM243.204 42.6267C238.266 48.1867 238.883 55.6 239.5 61.7778C238.265 62.3956 237.031 63.6311 235.796 63.6311C235.179 56.2178 236.414 45.0978 243.204 42.6267ZM115.429 45.0978C114.812 43.8622 113.577 42.0089 114.195 40.7733C114.812 40.1556 116.664 40.7733 117.281 40.7733C117.898 41.3911 123.454 44.48 125.305 44.48C137.034 47.5689 151.848 43.2444 160.49 51.2756C161.107 51.8933 161.107 51.8933 161.107 52.5111C147.527 44.48 127.157 58.0711 115.429 45.0978ZM125.923 60.5422C127.157 61.16 127.157 62.3956 128.392 63.6311C130.244 66.72 133.33 67.3378 135.182 69.8089C134.564 69.8089 133.947 69.8089 133.33 69.8089C132.095 69.8089 131.478 69.1911 130.861 68.5733C130.244 67.9556 129.009 67.3378 128.392 67.9556C127.775 67.9556 125.305 67.9556 124.071 67.3378C124.071 65.4844 126.54 63.0133 125.923 60.5422ZM112.343 85.2533L116.046 88.96C113.577 88.96 111.108 88.96 108.639 88.96V88.3422C109.256 87.1067 109.874 86.4889 110.491 85.8711C111.108 85.2533 111.726 85.2533 112.343 85.2533ZM133.33 85.8711C133.947 86.4889 133.947 87.1067 134.564 87.7244C132.713 87.7244 130.861 88.3422 129.009 88.3422L131.478 85.8711C132.713 85.8711 133.33 85.8711 133.33 85.8711ZM130.861 85.2533L127.157 88.3422C125.923 88.3422 125.305 88.3422 124.071 88.3422L125.923 84.0178C127.775 84.0178 129.626 84.0178 131.478 84.6356C131.478 85.2533 131.478 85.2533 130.861 85.2533ZM130.244 105.64C129.009 106.876 127.157 107.493 125.305 108.111C125.305 108.111 124.688 107.493 124.071 106.876L122.836 98.8444C122.836 98.8444 123.454 98.8444 123.454 98.2267L129.009 104.404C130.244 105.022 130.244 105.64 130.244 105.64ZM117.898 91.4311C117.898 92.0489 117.898 92.0489 117.281 92.0489L111.108 89.5778C112.96 89.5778 114.812 89.5778 116.664 89.5778C117.281 90.1956 117.898 91.4311 117.898 91.4311ZM124.071 90.8133L123.454 90.1956V89.5778H125.923L124.071 90.8133C124.688 90.8133 124.688 90.8133 124.071 90.8133ZM122.836 88.96C122.219 88.96 121.602 88.96 120.985 88.96L120.367 84.0178H120.985C122.219 84.0178 123.454 84.0178 124.071 84.0178L122.836 88.96ZM119.133 84.6356L119.75 88.96C119.133 88.96 117.898 88.96 117.281 88.96L113.577 84.6356C115.429 84.6356 117.281 84.6356 119.133 84.6356ZM120.367 90.1956C119.75 90.1956 119.75 90.8133 119.75 90.8133L119.133 90.1956C119.133 90.1956 119.75 90.1956 120.367 90.1956ZM107.405 90.8133C107.405 90.8133 108.022 90.1956 109.256 90.1956L117.281 93.2844V93.9022L109.256 95.1378C108.639 95.1378 108.022 95.1378 108.022 94.52C108.022 93.9022 108.022 93.9022 108.022 93.2844C106.787 93.2844 107.405 92.0489 107.405 90.8133ZM107.405 98.2267C107.405 97.6089 108.022 96.9911 108.639 96.9911L116.664 95.7556V96.3733L111.108 101.933C110.491 102.551 109.874 102.551 109.256 101.933C108.639 100.698 108.022 99.4622 107.405 98.2267ZM111.108 104.404C111.108 104.404 111.108 103.169 111.726 102.551L118.515 97.6089L119.133 98.2267L116.046 106.258C116.046 106.876 114.812 107.493 114.812 107.493C113.577 106.258 112.343 105.64 111.108 104.404ZM117.898 108.111C117.898 108.111 117.281 107.493 117.281 106.258L120.367 98.2267H120.985L122.836 106.258C122.836 106.876 122.836 107.493 122.219 107.493C121.602 107.493 121.602 107.493 120.985 107.493C120.367 108.729 119.133 108.729 117.898 108.111ZM132.095 103.787C132.095 103.787 130.861 103.787 130.244 103.169L124.688 96.9911C124.688 96.9911 124.688 96.3733 125.305 96.3733L133.33 99.4622C133.947 100.08 134.564 100.698 134.564 100.698C133.947 101.933 133.33 103.169 132.095 103.787ZM134.564 100.08C134.564 100.08 134.564 99.4622 135.182 99.4622C135.182 99.4622 134.564 100.08 134.564 100.08ZM135.799 97.6089C135.799 97.6089 135.182 98.2267 133.947 98.2267L125.923 95.1378V94.52L134.564 93.2844C135.182 93.2844 135.799 93.2844 135.799 93.9022V94.52C135.799 95.1378 135.799 96.3733 135.799 97.6089ZM135.799 90.8133C135.799 91.4311 135.182 92.0489 134.564 92.0489L125.923 93.2844C125.923 93.2844 125.923 92.6667 125.305 92.6667L127.775 90.8133C130.244 90.8133 132.713 90.1956 135.182 90.1956C135.182 89.5778 135.182 90.1956 135.799 90.8133ZM140.12 86.4889C140.737 86.4889 140.737 87.1067 140.12 87.1067C139.503 87.1067 138.268 87.7244 137.651 87.7244C137.034 87.1067 137.034 86.4889 136.416 85.8711C137.651 85.8711 138.885 85.8711 140.12 86.4889ZM125.923 83.4L126.54 82.1644C126.54 81.5467 127.775 80.9289 127.775 80.9289C129.009 81.5467 130.244 82.1644 131.478 83.4C129.626 83.4 127.775 83.4 125.923 83.4ZM125.305 80.3111C125.305 80.3111 125.923 81.5467 125.923 82.1644L125.305 83.4C124.071 83.4 122.836 83.4 121.602 83.4C120.985 83.4 120.985 83.4 120.367 83.4L119.75 81.5467C119.75 80.9289 119.75 80.3111 120.367 80.3111C120.985 80.3111 120.985 80.3111 121.602 80.3111C122.836 79.6933 124.071 79.6933 125.305 80.3111ZM117.281 80.3111C117.898 80.3111 117.898 80.9289 118.515 81.5467V82.7822C117.898 82.1644 117.281 81.5467 116.664 80.9289L117.281 80.3111ZM117.281 83.4C116.046 83.4 114.812 83.4 112.96 84.0178C112.96 83.4 112.96 82.7822 112.96 82.7822C113.577 82.1644 114.195 82.1644 114.812 81.5467C115.429 82.1644 116.046 82.7822 117.281 83.4ZM102.467 87.1067C103.701 86.4889 104.936 86.4889 106.17 85.8711C105.553 86.4889 105.553 87.1067 104.936 88.3422C103.701 88.3422 103.084 88.3422 101.849 87.7244C101.849 87.7244 101.849 87.7244 102.467 87.1067ZM357.398 46.3333C357.398 46.3333 356.781 46.9511 357.398 46.9511C358.016 46.9511 358.016 46.9511 358.633 47.5689C358.633 47.5689 358.633 47.5689 358.633 46.9511C358.633 46.3333 358.016 45.7156 357.398 46.3333Z" fill="#1A1715"/>
<path d="M346.904 108.111H333.324C333.324 108.729 333.942 109.965 334.559 110.582H349.373L353.694 108.729C354.312 106.876 353.077 105.022 353.077 103.787C353.077 99.4623 350.608 95.1379 349.373 90.8134C349.991 90.1956 351.225 87.7245 352.46 88.3423C355.546 93.2845 356.163 99.4623 355.546 106.258C354.929 108.111 352.46 109.347 352.46 110.582C352.46 111.2 356.163 110.582 357.398 109.347C357.398 108.111 359.25 106.876 359.867 106.876C360.484 105.022 359.25 105.022 359.867 103.787C360.484 103.169 359.867 94.5201 359.25 93.2845C359.25 93.2845 359.25 93.2845 358.632 93.2845C358.015 91.4312 359.867 88.9601 360.484 87.1067L365.422 86.489C364.805 82.1645 363.571 77.8401 362.336 73.5156C362.953 72.2801 364.188 71.6623 364.805 71.0445C369.743 67.9556 365.422 62.3956 365.422 58.0712C364.805 56.2179 361.719 54.3645 361.102 51.8934C361.719 52.5112 362.336 51.8934 362.336 52.5112C363.571 51.2756 363.571 50.0401 362.953 48.1867C365.422 45.7156 366.657 44.4801 366.657 43.8623C366.657 41.3912 362.953 38.3023 361.102 38.3023C359.867 38.9201 359.25 40.1556 356.781 42.009C356.781 42.009 354.312 41.3912 353.077 42.009C352.46 42.6267 352.46 44.4801 353.694 45.7156C353.694 46.3334 353.077 46.3334 353.077 46.9512C353.077 47.569 353.077 47.569 353.077 47.569C353.694 48.1867 353.694 48.8045 353.077 49.4223C352.46 50.6579 353.694 51.2756 354.312 51.2756C354.312 51.2756 354.312 51.2756 354.929 51.8934C354.929 53.129 351.225 54.9823 351.225 56.2179C350.608 58.689 349.373 58.689 347.522 67.9556C347.522 70.4267 347.522 72.2801 347.522 73.5156C345.67 79.0756 343.818 82.1645 342.583 85.8712C341.349 88.9601 348.139 98.2267 348.139 104.405C348.139 107.493 346.904 107.493 346.904 108.111ZM357.398 98.2267C356.781 97.609 356.781 96.3734 356.781 95.1379C357.398 94.5201 358.632 95.1379 358.632 95.1379C359.867 98.2267 359.867 98.8445 357.398 98.2267ZM357.398 54.3645L358.015 53.7467C359.867 52.5112 358.632 53.129 356.781 52.5112C356.163 51.8934 356.163 51.2756 356.163 50.6579C356.163 49.4223 355.546 49.4223 355.546 48.8045C355.546 48.8045 355.546 48.1867 356.163 47.569C356.781 46.9512 356.781 45.0979 357.398 45.0979C361.102 45.0979 359.867 46.9512 360.484 46.9512C360.484 47.569 362.336 49.4223 362.953 50.0401C362.953 51.8934 361.102 50.6579 361.719 53.129C361.719 56.8356 357.398 56.2179 355.546 59.3067C354.312 55.6001 357.398 55.6001 357.398 54.3645ZM353.694 69.809C354.929 70.4267 355.546 71.6623 356.163 71.6623C356.781 72.8979 354.929 72.8979 354.312 73.5156C353.077 73.5156 352.46 72.2801 351.842 72.8979H350.608C351.225 72.2801 352.46 70.4267 353.694 69.809ZM345.053 88.3423C344.435 85.8712 348.139 82.1645 349.991 74.1334C350.608 73.5156 351.225 75.9867 352.46 75.369C354.312 75.369 353.694 80.929 355.546 77.2223C355.546 75.9867 355.546 74.1334 356.781 73.5156C358.015 73.5156 358.632 74.1334 359.25 74.7512L357.398 77.8401C361.102 77.8401 356.163 84.0179 361.102 82.7823C361.102 85.2534 359.867 91.4312 358.632 90.8134C358.015 87.1067 357.398 88.9601 357.398 89.5779C357.398 90.8134 357.398 92.049 358.015 93.2845C358.015 93.2845 356.781 93.2845 356.781 93.9023C354.312 90.1956 354.312 84.6356 352.46 80.3112L351.842 80.929C351.842 83.4001 350.608 87.1067 348.756 88.3423C347.522 88.9601 351.843 88.3423 348.139 90.1956C349.373 90.8134 348.139 92.049 346.904 92.049C346.287 90.8134 345.67 89.5779 345.053 88.3423ZM348.756 96.9912C348.139 96.3734 347.522 94.5201 346.904 93.9023L348.756 93.2845C349.373 93.9023 349.991 95.1379 349.991 96.3734C349.991 96.3734 349.373 96.9912 348.756 96.9912ZM283.943 55.6001C283.943 51.2756 285.178 48.1867 283.326 43.8623C283.326 42.009 284.56 40.7734 284.56 38.9201L281.474 39.5379C280.857 43.2445 280.239 43.8623 280.857 47.569C281.474 51.2756 282.091 54.3645 283.943 55.6001ZM251.845 67.3379C263.573 64.249 272.215 61.1601 281.474 56.8356C277.153 48.1867 278.388 45.7156 278.388 40.1556C278.388 40.1556 273.449 40.1556 267.277 38.9201C261.104 42.6267 253.08 58.689 251.845 67.3379ZM292.585 69.809C293.202 69.809 291.968 69.1912 292.585 69.809ZM306.782 43.2445C301.844 39.5379 298.14 31.5067 292.585 32.1245C291.968 25.9467 289.498 16.0623 297.523 5.56008C298.757 4.9423 300.609 4.9423 301.227 4.32452C298.14 3.70674 293.202 6.17786 290.116 4.32452C290.116 4.32452 291.35 6.79563 293.202 7.41341C292.585 8.64897 290.116 9.88452 291.35 12.3556C288.881 14.209 289.498 16.6801 290.733 17.9156C289.498 19.1512 288.264 21.6223 290.116 23.4756C287.647 25.9467 290.733 27.8001 291.35 28.4179C290.116 30.889 291.35 32.7423 291.35 32.7423C291.35 34.5956 288.264 37.0667 287.029 37.6845C285.795 42.009 286.412 50.0401 286.412 54.9823C293.819 51.2756 301.227 48.1867 306.782 43.2445ZM221.599 185.333C221.599 181.009 218.513 176.067 214.809 173.596C213.574 172.978 212.957 172.978 211.723 172.36C212.957 172.36 214.192 172.36 215.426 171.742C219.13 169.889 224.068 164.947 224.068 156.298C224.068 150.12 221.599 144.56 216.661 141.471C212.34 138.382 207.402 137.765 201.846 137.765H161.724V148.267H170.983V200.16H161.724V210.662H190.736V200.16H181.477V177.302H201.229C208.019 177.302 210.488 181.627 211.105 185.951L211.723 210.662H231.475V200.16H222.216L221.599 185.333ZM203.081 167.418H180.859V148.267H201.846C203.698 148.267 206.785 148.267 208.636 149.502C211.105 150.738 213.574 153.827 213.574 158.151C214.192 163.711 209.254 167.418 203.081 167.418ZM158.02 235.991H144.44V277.382H150.613V259.467H157.403C167.279 259.467 171.6 254.525 171.6 247.729C171.6 241.551 167.279 235.991 158.02 235.991ZM158.02 254.525H150.613V241.551H158.02C163.576 241.551 165.428 244.64 165.428 247.729C165.428 252.053 162.341 254.525 158.02 254.525ZM195.056 235.991L176.538 277.382H183.328L188.266 265.027H206.167L211.105 277.382H217.895L198.76 235.991H195.056ZM190.736 260.085L196.908 244.022L203.698 260.085H190.736ZM281.474 235.991H287.647V277.382H281.474V235.991ZM312.955 245.876C312.955 242.787 316.041 240.933 320.362 240.933C323.448 240.933 327.152 242.169 330.855 245.258V238.462C327.769 236.609 324.065 235.373 320.979 235.373C312.955 235.373 307.399 239.698 307.399 246.493C307.399 257.613 327.152 258.849 327.152 267.498C327.152 269.969 324.683 272.44 319.745 272.44C315.424 272.44 311.103 270.587 308.016 266.262V273.676C311.72 276.147 315.424 277.382 320.362 277.382C327.769 277.382 332.707 272.44 332.707 266.262C332.09 253.907 312.955 253.907 312.955 245.876ZM259.87 269.351C256.783 264.409 254.314 260.085 249.993 257.613C254.931 255.76 257.4 252.053 257.4 247.729C257.4 240.316 251.845 235.991 243.203 235.991H232.092V277.382H238.265V259.467H240.734C243.821 259.467 246.29 260.702 252.462 268.733L258.018 277.382H265.425L262.339 272.44C261.104 271.822 260.487 270.587 259.87 269.351ZM241.969 253.907H238.265V240.933H241.969C248.141 240.933 250.611 243.405 250.611 247.111C250.611 250.818 248.759 253.907 241.969 253.907Z" fill="#1A1715"/>
</svg>
