<svg width="282" height="459" viewBox="0 0 282 459" fill="none" xmlns="http://www.w3.org/2000/svg">
<g clip-path="url(#clip0_129_2)">
<path d="M8.5 31.7C8.5 16.7 20.7 4.5 35.7 4.5H245.3C260.5 4.5 272.7 16.7 272.7 31.7V426.4C272.7 441.4 260.5 453.6 245.3 453.6H35.7C20.7 453.6 8.5 441.4 8.5 426.4V31.7Z" fill="#F8F6F2"/>
<path d="M16.2998 78.1999V31.6C16.2998 22.8 23.6998 15.7 32.6998 15.7H249.2C258.5 15.7 265.9 22.8 265.9 31.6V78.1999H16.2998Z" fill="#1A1715"/>
<path d="M16.2998 379.8V426.4C16.2998 435.2 23.6998 442.3 32.6998 442.3H249.2C258.5 442.3 265.9 435.1 265.9 426.4V379.8H16.2998Z" fill="#1A1715"/>
<path d="M32.6 8.9C19.6 8.9 9 19.1 9 31.6V426.3C9 438.8 19.6 449 32.6 449H249.1C262.3 449 273 438.8 273 426.3V31.7C273 19.2 262.3 9 249.1 9H32.6V8.9ZM249.2 458H32.6C14.6 458 0 443.8 0 426.3V31.7C0 14.2 14.6 0 32.6 0H249.1C267.2 0 281.9 14.2 281.9 31.7V426.4C282 443.8 267.2 458 249.2 458Z" fill="#1A1715"/>
<path d="M266 85.3999H16.2998V373.1H266V85.3999Z" fill="#1A1715"/>
<path d="M75.0998 220H76.8998C150.3 218.7 158.2 181.7 158.2 165.8C158.2 151.8 152.6 140.1 142.3 132.8C134.5 127.3 124.7 124.6 111.7 124.4H74.9998V220H75.0998ZM147.5 316.8V313.9C153.4 312 154.4 307.6 154.6 304.3V304C154.6 303.8 154.6 303.5 154.6 303.3V302.6C154.6 298.6 153.4 287.5 153.4 287.5C150.2 264.3 140.2 240.3 127.4 224.8L126.7 223.9L125.6 224.2C111 228 94.0998 230.1 76.9998 230.1H75.1998L75.2998 297.6C75.2998 306.1 78.8998 311.7 85.6998 313.9V316.9H43.9998V313.9C50.5998 311.8 53.9998 306.5 54.3998 297.7V297.6C54.3998 296 54.3998 134.2 54.3998 132.3C54.1998 123 50.7998 117.7 43.7998 115.6V112.7H113C133.3 112.7 146.5 117.1 157.1 124.2C170.6 133.4 180 149.8 179.8 165.7C179.8 187.3 167.6 205.4 145.5 216.7C145.1 216.9 144.7 217.1 144.4 217.2C144 217.4 143.6 217.6 143.1 217.8L141 218.8L142.5 220.6C156.9 237.1 165.9 260.6 170 273.2C171.7 278.5 173.1 283.9 175.5 293.8L176 295.8C179.3 309 186.8 312.9 190.6 314V316.9L147.5 316.8Z" fill="#F8F6F2"/>
<path d="M102.4 161.3C102.4 162 102.4 183.2 102.4 209.2C112.5 207.6 120 204.4 123.3 202.7V153.4H148.1C146.2 147.5 142.5 143.2 140.9 141.6H91.7998V144.5C98.8998 146.7 102.3 152.1 102.4 161.3Z" fill="#F8F6F2"/>
<path d="M123.4 326.6L123.3 259.1H125.1C129 259.1 134.2 259 138.1 258.8C137.1 254.9 135.4 251.2 134.1 248.9C131.7 249 127.7 249.1 125.2 249.2H123.4V232.9C118.6 234.3 107.5 235.9 102.5 236.5C102.5 279.5 102.5 325.8 102.5 326.6V326.7C102.1 335.5 98.6996 340.8 92.0996 342.9V345.9H133.8V342.9C127 340.7 123.4 335.1 123.4 326.6Z" fill="#F8F6F2"/>
<path d="M224 324.8L223.5 322.8C221.1 312.9 219.8 307.4 218 302.2C213.9 289.7 204.9 266.2 190.5 249.6L189 247.8L191.1 246.8C191.6 246.6 192 246.4 192.4 246.2C192.8 246 193.1 245.9 193.5 245.7C215.6 234.4 227.8 216.3 227.8 194.7C228 178.8 218.6 162.4 205.1 153.2C199.3 149.3 191.7 145.4 183.2 143.9C185.8 148.6 187.7 156.7 188.1 160.4C188.9 160.9 189.7 161.4 190.5 161.9C200.7 169.2 206.4 180.9 206.4 194.9C206.4 207 201.5 231.5 165.8 243.4C168.1 247.4 170 251.5 171 253.8C171.5 253.7 173.2 253.3 173.7 253.2L174.8 252.9L175.5 253.8C188.3 269.3 198.3 293.3 201.5 316.5C201.5 316.6 202.7 327.6 202.7 331.6V332.3C202.7 332.6 202.7 332.8 202.7 333V333.3C202.5 336.5 201.6 340.9 195.6 342.9V345.8H238.6V343C234.9 341.9 227.3 337.9 224 324.8Z" fill="#F8F6F2"/>
<path d="M44.3 410.3H48.1C53.4 410.3 56 408.2 56 404.1C56 402.1 55.3 400.6 54.1 399.6C52.8 398.6 50.9 398.1 48.4 398.1H44.4L44.3 410.3ZM37 391.9H49.5C53.9 391.9 57.4 393 59.9 395.2C62.4 397.4 63.7 400.3 63.7 404.1C63.7 406.4 63.1 408.4 62 410.2C60.9 412 59.3 413.5 57.2 414.6L67.5 430.3H58.8L50.6 416.5C50 416.5 49.5 416.6 49.2 416.6C48.8 416.6 48.4 416.6 48.1 416.6H44.4V430.3H37V391.9Z" fill="#F8F6F2"/>
<path d="M44.3 410.3H48.1C53.4 410.3 56 408.2 56 404.1C56 402.1 55.3 400.6 54.1 399.6C52.8 398.6 50.9 398.1 48.4 398.1H44.4L44.3 410.3ZM37 391.9H49.5C53.9 391.9 57.4 393 59.9 395.2C62.4 397.4 63.7 400.3 63.7 404.1C63.7 406.4 63.1 408.4 62 410.2C60.9 412 59.3 413.5 57.2 414.6L67.5 430.3H58.8L50.6 416.5C50 416.5 49.5 416.6 49.2 416.6C48.8 416.6 48.4 416.6 48.1 416.6H44.4V430.3H37V391.9Z" stroke="#F8F6F2" stroke-width="0.044" stroke-miterlimit="10"/>
<path d="M98.0004 424.1C100.3 424.1 102.4 423.6 104.2 422.5C106.1 421.4 107.5 419.9 108.6 417.9C109.7 415.9 110.2 413.6 110.2 411C110.2 408.6 109.7 406.4 108.7 404.4C107.7 402.4 106.2 400.8 104.4 399.7C102.5 398.5 100.4 397.9 98.0004 397.9C95.7004 397.9 93.7004 398.4 91.8004 399.5C90.0004 400.6 88.5004 402.1 87.4004 404.1C86.3004 406.1 85.8004 408.4 85.8004 411C85.8004 413.4 86.3004 415.6 87.3004 417.6C88.3004 419.6 89.7004 421.2 91.6004 422.3C93.4004 423.5 95.6004 424.1 98.0004 424.1ZM98.0004 431C94.3004 431 90.9004 430.2 87.9004 428.5C84.8004 426.8 82.4004 424.5 80.6004 421.4C78.8004 418.4 77.9004 414.9 77.9004 411C77.9004 407.4 78.7004 404.1 80.4004 401.1C82.1004 398.1 84.5004 395.6 87.6004 393.8C90.7004 392 94.2004 391.1 98.1004 391.1C101.8 391.1 105.2 391.9 108.3 393.6C111.4 395.3 113.8 397.6 115.6 400.7C117.4 403.7 118.3 407.2 118.3 411.1C118.3 414.7 117.5 418 115.8 421C114.1 424 111.7 426.5 108.6 428.3C105.4 430 101.9 431 98.0004 431Z" fill="#F8F6F2"/>
<path d="M98.0004 424.1C100.3 424.1 102.4 423.6 104.2 422.5C106.1 421.4 107.5 419.9 108.6 417.9C109.7 415.9 110.2 413.6 110.2 411C110.2 408.6 109.7 406.4 108.7 404.4C107.7 402.4 106.2 400.8 104.4 399.7C102.5 398.5 100.4 397.9 98.0004 397.9C95.7004 397.9 93.7004 398.4 91.8004 399.5C90.0004 400.6 88.5004 402.1 87.4004 404.1C86.3004 406.1 85.8004 408.4 85.8004 411C85.8004 413.4 86.3004 415.6 87.3004 417.6C88.3004 419.6 89.7004 421.2 91.6004 422.3C93.4004 423.5 95.6004 424.1 98.0004 424.1ZM98.0004 431C94.3004 431 90.9004 430.2 87.9004 428.5C84.8004 426.8 82.4004 424.5 80.6004 421.4C78.8004 418.4 77.9004 414.9 77.9004 411C77.9004 407.4 78.7004 404.1 80.4004 401.1C82.1004 398.1 84.5004 395.6 87.6004 393.8C90.7004 392 94.2004 391.1 98.1004 391.1C101.8 391.1 105.2 391.9 108.3 393.6C111.4 395.3 113.8 397.6 115.6 400.7C117.4 403.7 118.3 407.2 118.3 411.1C118.3 414.7 117.5 418 115.8 421C114.1 424 111.7 426.5 108.6 428.3C105.4 430 101.9 431 98.0004 431Z" stroke="#F8F6F2" stroke-width="0.044" stroke-miterlimit="10"/>
<path d="M140.9 414.2L126.8 391.9H135.4L144.9 408.2L154.5 391.9H162.8L148.6 414.2V430.1H140.9V414.2Z" fill="#F8F6F2"/>
<path d="M140.9 414.2L126.8 391.9H135.4L144.9 408.2L154.5 391.9H162.8L148.6 414.2V430.1H140.9V414.2Z" stroke="#F8F6F2" stroke-width="0.044" stroke-miterlimit="10"/>
<path d="M191.8 430.7C187.8 430.7 184.3 429.9 181.3 428.4C178.2 426.8 175.8 424.6 174.1 421.6C172.4 418.6 171.5 415.2 171.5 411.2C171.5 407.4 172.3 404.1 174 401.1C175.7 398.1 178.1 395.7 181.3 394C184.5 392.3 188.1 391.4 192.2 391.4C194.3 391.4 196.4 391.7 198.6 392.2C200.8 392.8 202.6 393.5 204.2 394.4L202.9 400.9C199.2 399.1 195.7 398.2 192.3 398.2C189.8 398.2 187.6 398.7 185.6 399.8C183.6 400.8 182.1 402.3 181 404.3C179.9 406.2 179.3 408.5 179.3 411.2C179.3 415.1 180.5 418.2 182.8 420.5C185.2 422.8 188.3 424 192.3 424C194 424 195.9 423.7 197.9 423.2C199.9 422.7 201.7 422 203.5 421.1L204.3 427.8C202.6 428.8 200.6 429.5 198.4 430.1C196.3 430.4 194 430.7 191.8 430.7Z" fill="#F8F6F2"/>
<path d="M191.8 430.7C187.8 430.7 184.3 429.9 181.3 428.4C178.2 426.8 175.8 424.6 174.1 421.6C172.4 418.6 171.5 415.2 171.5 411.2C171.5 407.4 172.3 404.1 174 401.1C175.7 398.1 178.1 395.7 181.3 394C184.5 392.3 188.1 391.4 192.2 391.4C194.3 391.4 196.4 391.7 198.6 392.2C200.8 392.8 202.6 393.5 204.2 394.4L202.9 400.9C199.2 399.1 195.7 398.2 192.3 398.2C189.8 398.2 187.6 398.7 185.6 399.8C183.6 400.8 182.1 402.3 181 404.3C179.9 406.2 179.3 408.5 179.3 411.2C179.3 415.1 180.5 418.2 182.8 420.5C185.2 422.8 188.3 424 192.3 424C194 424 195.9 423.7 197.9 423.2C199.9 422.7 201.7 422 203.5 421.1L204.3 427.8C202.6 428.8 200.6 429.5 198.4 430.1C196.3 430.4 194 430.7 191.8 430.7Z" stroke="#F8F6F2" stroke-width="0.044" stroke-miterlimit="10"/>
<path d="M219.2 391.9H244.6V398.3H226.7V407.5H242.5V413.9H226.7V423.7H245.3V430.1H219.2V391.9Z" fill="#F8F6F2"/>
<path d="M219.2 391.9H244.6V398.3H226.7V407.5H242.5V413.9H226.7V423.7H245.3V430.1H219.2V391.9Z" stroke="#F8F6F2" stroke-width="0.044" stroke-miterlimit="10"/>
<path d="M46.6998 47.1001H50.4998C55.7998 47.1001 58.3998 45.0001 58.3998 40.9001C58.3998 38.9001 57.7998 37.4001 56.4998 36.4001C55.1998 35.4001 53.2998 34.9001 50.7998 34.9001H46.7998L46.6998 47.1001ZM39.2998 28.6001H51.7998C56.1998 28.6001 59.6998 29.7001 62.1998 31.8001C64.6998 34.0001 65.9998 36.9001 65.9998 40.7001C65.9998 43.0001 65.3998 45.0001 64.2998 46.8001C63.1998 48.6001 61.5998 50.1001 59.4998 51.2001L69.7998 66.9001H61.0998L52.8998 53.1001C52.2998 53.1001 51.7998 53.2001 51.4998 53.2001C51.0998 53.2001 50.6998 53.2001 50.3998 53.2001H46.6998V66.9001H39.2998V28.6001Z" fill="#F8F6F2"/>
<path d="M46.6998 47.1001H50.4998C55.7998 47.1001 58.3998 45.0001 58.3998 40.9001C58.3998 38.9001 57.7998 37.4001 56.4998 36.4001C55.1998 35.4001 53.2998 34.9001 50.7998 34.9001H46.7998L46.6998 47.1001ZM39.2998 28.6001H51.7998C56.1998 28.6001 59.6998 29.7001 62.1998 31.8001C64.6998 34.0001 65.9998 36.9001 65.9998 40.7001C65.9998 43.0001 65.3998 45.0001 64.2998 46.8001C63.1998 48.6001 61.5998 50.1001 59.4998 51.2001L69.7998 66.9001H61.0998L52.8998 53.1001C52.2998 53.1001 51.7998 53.2001 51.4998 53.2001C51.0998 53.2001 50.6998 53.2001 50.3998 53.2001H46.6998V66.9001H39.2998V28.6001Z" stroke="#F8F6F2" stroke-width="0.044" stroke-miterlimit="10"/>
<path d="M100.3 60.9001C102.6 60.9001 104.7 60.4 106.5 59.3C108.4 58.2 109.8 56.7001 110.9 54.7001C112 52.7001 112.5 50.4 112.5 47.8C112.5 45.4 112 43.2001 111 41.2001C110 39.2001 108.5 37.6 106.7 36.5C104.8 35.3 102.7 34.7001 100.3 34.7001C98.0002 34.7001 96.0002 35.2 94.1002 36.3C92.3002 37.4 90.8002 38.9001 89.7002 40.9001C88.6002 42.9001 88.1002 45.2 88.1002 47.8C88.1002 50.2 88.6002 52.4001 89.6002 54.4001C90.6002 56.4001 92.0002 58 93.9002 59.1C95.8002 60.3 97.9002 60.9001 100.3 60.9001ZM100.3 67.7C96.6002 67.7 93.2002 66.9 90.2002 65.2C87.1002 63.5 84.7002 61.2 82.9002 58.1C81.1002 55.1 80.2002 51.6001 80.2002 47.7001C80.2002 44.1001 81.0002 40.8 82.7002 37.8C84.4002 34.8 86.8002 32.4 89.9002 30.5C93.0002 28.7 96.5002 27.8 100.4 27.8C104.1 27.8 107.5 28.6 110.6 30.3C113.7 32 116.1 34.3001 117.9 37.4001C119.7 40.4001 120.6 43.9 120.6 47.8C120.6 51.4 119.8 54.7001 118.1 57.7001C116.4 60.7001 114 63.2 110.9 65C107.7 66.8 104.2 67.7 100.3 67.7Z" fill="#F8F6F2"/>
<path d="M100.3 60.9001C102.6 60.9001 104.7 60.4 106.5 59.3C108.4 58.2 109.8 56.7001 110.9 54.7001C112 52.7001 112.5 50.4 112.5 47.8C112.5 45.4 112 43.2001 111 41.2001C110 39.2001 108.5 37.6 106.7 36.5C104.8 35.3 102.7 34.7001 100.3 34.7001C98.0002 34.7001 96.0002 35.2 94.1002 36.3C92.3002 37.4 90.8002 38.9001 89.7002 40.9001C88.6002 42.9001 88.1002 45.2 88.1002 47.8C88.1002 50.2 88.6002 52.4001 89.6002 54.4001C90.6002 56.4001 92.0002 58 93.9002 59.1C95.8002 60.3 97.9002 60.9001 100.3 60.9001ZM100.3 67.7C96.6002 67.7 93.2002 66.9 90.2002 65.2C87.1002 63.5 84.7002 61.2 82.9002 58.1C81.1002 55.1 80.2002 51.6001 80.2002 47.7001C80.2002 44.1001 81.0002 40.8 82.7002 37.8C84.4002 34.8 86.8002 32.4 89.9002 30.5C93.0002 28.7 96.5002 27.8 100.4 27.8C104.1 27.8 107.5 28.6 110.6 30.3C113.7 32 116.1 34.3001 117.9 37.4001C119.7 40.4001 120.6 43.9 120.6 47.8C120.6 51.4 119.8 54.7001 118.1 57.7001C116.4 60.7001 114 63.2 110.9 65C107.7 66.8 104.2 67.7 100.3 67.7Z" stroke="#F8F6F2" stroke-width="0.044" stroke-miterlimit="10"/>
<path d="M135.5 28.6001H143.2V60.6001H160.6V66.9001H135.5V28.6001Z" fill="#F8F6F2"/>
<path d="M135.5 28.6001H143.2V60.6001H160.6V66.9001H135.5V28.6001Z" stroke="#F8F6F2" stroke-width="0.044" stroke-miterlimit="10"/>
<path d="M175.8 28.6001H183.5V60.6001H200.9V66.9001H175.8V28.6001Z" fill="#F8F6F2"/>
<path d="M175.8 28.6001H183.5V60.6001H200.9V66.9001H175.8V28.6001Z" stroke="#F8F6F2" stroke-width="0.044" stroke-miterlimit="10"/>
<path d="M227.3 67.6999C224.9 67.6999 222.5 67.4 220.1 66.8C217.7 66.2 215.8 65.4 214.4 64.5L215.2 57.9C216.8 58.9 218.7 59.8 220.9 60.4C223.1 61 225.1 61.2999 227.1 61.2999C229.4 61.2999 231.2 60.9 232.5 60C233.8 59.1 234.4 57.9 234.4 56.4C234.4 55.1 233.9 54 232.8 53.2C231.7 52.4 229.7 51.4999 226.8 50.5999C222.6 49.2999 219.7 47.7 217.9 45.9C216.1 44.1 215.2 41.7 215.2 38.7C215.2 36.5 215.7 34.7 216.8 33C217.9 31.4 219.5 30.1 221.6 29.1C223.7 28.2 226.1 27.7 228.9 27.7C230.9 27.7 232.9 28 235 28.5C237.1 29 238.9 29.7 240.4 30.6L239.3 37C237.9 36.2 236.2 35.5 234.4 35C232.6 34.5 230.8 34.2 229.2 34.2C227 34.2 225.4 34.6 224.3 35.4C223.2 36.2 222.7 37.3 222.7 38.7C222.7 39.6 222.9 40.4 223.3 40.9C223.7 41.5 224.4 42 225.4 42.5C226.4 43 227.7 43.4999 229.5 44.0999C234.1 45.4999 237.3 47.1999 239.2 49.0999C241.1 50.9999 242.1 53.4 242.1 56.4C242.1 59.9 240.8 62.6999 238.2 64.6999C235.4 66.6999 231.8 67.6999 227.3 67.6999Z" fill="#F8F6F2"/>
<path d="M227.3 67.6999C224.9 67.6999 222.5 67.4 220.1 66.8C217.7 66.2 215.8 65.4 214.4 64.5L215.2 57.9C216.8 58.9 218.7 59.8 220.9 60.4C223.1 61 225.1 61.2999 227.1 61.2999C229.4 61.2999 231.2 60.9 232.5 60C233.8 59.1 234.4 57.9 234.4 56.4C234.4 55.1 233.9 54 232.8 53.2C231.7 52.4 229.7 51.4999 226.8 50.5999C222.6 49.2999 219.7 47.7 217.9 45.9C216.1 44.1 215.2 41.7 215.2 38.7C215.2 36.5 215.7 34.7 216.8 33C217.9 31.4 219.5 30.1 221.6 29.1C223.7 28.2 226.1 27.7 228.9 27.7C230.9 27.7 232.9 28 235 28.5C237.1 29 238.9 29.7 240.4 30.6L239.3 37C237.9 36.2 236.2 35.5 234.4 35C232.6 34.5 230.8 34.2 229.2 34.2C227 34.2 225.4 34.6 224.3 35.4C223.2 36.2 222.7 37.3 222.7 38.7C222.7 39.6 222.9 40.4 223.3 40.9C223.7 41.5 224.4 42 225.4 42.5C226.4 43 227.7 43.4999 229.5 44.0999C234.1 45.4999 237.3 47.1999 239.2 49.0999C241.1 50.9999 242.1 53.4 242.1 56.4C242.1 59.9 240.8 62.6999 238.2 64.6999C235.4 66.6999 231.8 67.6999 227.3 67.6999Z" stroke="#F8F6F2" stroke-width="0.044" stroke-miterlimit="10"/>
</g>
<defs>
<clipPath id="clip0_129_2">
<rect width="281.9" height="458.1" fill="white"/>
</clipPath>
</defs>
</svg>
