<svg width="1929" height="323" viewBox="0 0 1929 323" fill="none" xmlns="http://www.w3.org/2000/svg">
<path d="M615.854 177.62C614.721 181.02 614.154 184.416 613.021 187.812C607.926 201.404 595.474 221.787 567.733 221.787C533.768 221.787 511.122 179.32 511.122 147.611C511.122 119.87 522.445 68.9107 568.3 71.7398C576.79 72.3065 583.585 74.0066 589.246 76.8357C607.36 85.8941 611.321 101.748 611.888 104.582V105.149H613.588V90.4233C613.588 89.2942 611.888 87.0275 609.622 84.765C602.827 77.9691 586.413 67.7773 564.9 67.7773H562.638C518.483 68.9107 485.08 105.711 485.08 147.611C485.08 172.524 496.403 191.212 510.555 205.366C526.407 220.087 544.524 226.316 563.205 226.316C586.413 226.316 616.421 212.162 616.421 211.029V177.62H615.854Z" fill="#1A1715"/>
<path d="M675.844 220.083V71.1738H643.574V72.3072C644.707 72.3072 656.597 74.574 656.597 81.9323V219.521C656.597 223.488 652.635 224.617 651.502 224.617V226.317H680.372V225.184C679.239 224.613 675.844 224.046 675.844 220.083Z" fill="#1A1715"/>
<path d="M1787.92 220.083V71.1738H1755.65V72.3072C1756.78 72.3072 1768.67 74.574 1768.67 81.9323V219.521C1768.67 223.488 1764.71 224.617 1763.57 224.617V226.317H1792.44V225.184C1791.88 224.613 1787.92 224.046 1787.92 220.083Z" fill="#1A1715"/>
<path d="M167.487 68.3311V69.4644C173.715 69.4644 177.11 73.4269 174.848 77.9561L129.555 192.899L84.2671 80.7852C80.8719 72.2936 86.5292 69.4644 93.8905 69.4644V68.3311H37.8457V69.4644C46.9025 69.4644 57.0925 73.4269 61.6252 84.1854L116.537 221.207H122.198L178.243 79.0895C180.505 73.4269 187.3 69.4644 192.962 69.4644V68.3311H167.487Z" fill="#1A1715"/>
<path d="M1856.99 226.313C1838.87 226.313 1821.89 214.421 1821.89 213.854V194.037H1823.02C1826.98 207.629 1835.47 224.046 1858.12 224.046C1867.74 224.046 1876.23 218.95 1876.23 206.496C1876.23 195.737 1869.44 192.342 1861.52 190.075L1843.96 184.412C1834.9 181.583 1821.89 177.054 1821.89 158.366C1821.89 142.512 1835.47 130.058 1854.15 130.058C1867.74 130.058 1880.2 137.983 1880.2 139.116V157.233C1876.23 144.212 1870.57 132.887 1855.28 132.887C1841.14 132.887 1832.64 139.683 1832.64 149.874C1832.64 158.933 1839.43 162.895 1852.45 166.862L1868.87 171.958C1882.46 176.487 1892.65 183.846 1892.65 196.871C1892.65 211.596 1879.63 226.313 1856.99 226.313Z" fill="#1A1715"/>
<path d="M1354.28 161.203H1306.73L1330.51 100.615L1354.28 161.203ZM1400.14 215.558L1342.96 72.3066H1337.86L1280.12 218.391C1277.86 224.05 1271.06 224.616 1268.79 224.616V226.316H1290.87V225.183C1289.17 225.183 1281.81 224.05 1284.08 217.825L1303.33 168.562H1357.11L1375.79 215.558C1378.62 222.921 1370.69 224.616 1369 224.616V226.316H1414.29V225.183C1410.33 224.612 1402.4 221.787 1400.14 215.558Z" fill="#1A1715"/>
<path d="M1489.57 129.495C1470.89 129.495 1462.97 144.783 1460.13 153.274H1459.56V131.758H1435.79V132.891C1436.92 132.891 1440.88 134.024 1440.88 136.853V220.654C1440.88 223.488 1437.49 224.617 1435.79 224.617V226.317H1464.66V225.183C1463.53 225.183 1460.13 224.617 1460.13 221.788V171.958C1460.13 148.174 1473.72 134.02 1483.34 134.02C1488.44 134.02 1491.27 137.416 1491.27 143.078V153.27C1491.27 156.67 1494.09 159.499 1500.33 159.499C1505.99 159.499 1509.38 157.233 1509.38 153.27C1509.38 136.282 1503.73 129.495 1489.57 129.495Z" fill="#1A1715"/>
<path d="M243.547 204.229C240.719 211.591 233.924 217.254 225.434 217.254C214.677 217.254 205.054 210.458 205.054 196.87C205.054 178.754 230.529 175.92 245.247 175.92V186.679V187.808V196.87C245.243 199.704 244.68 202.533 243.547 204.229ZM282.607 219.521C279.208 221.787 273.551 221.787 271.284 221.221C266.756 220.087 263.361 217.825 263.361 209.896V158.366C263.361 143.078 253.737 128.924 226.563 128.924C203.916 128.924 187.498 140.249 187.498 152.703C187.498 157.799 187.498 161.766 197.122 161.766C202.783 161.766 205.612 158.366 205.612 154.97V145.345C205.612 135.153 216.368 132.32 225.992 132.32C240.71 132.32 244.672 140.816 244.672 154.403V173.653H244.11C223.163 172.52 185.803 178.183 185.803 204.795C185.803 218.95 195.993 226.312 210.144 226.312C223.163 226.312 236.186 220.083 244.11 210.458V209.329V209.896C246.376 220.087 252.037 226.317 266.189 226.317C273.551 226.317 279.208 223.487 283.174 221.221L282.607 219.521Z" fill="#1A1715"/>
<path d="M402.988 220.083V157.804C402.988 137.987 389.399 129.495 369.585 129.495H365.624H364.491C363.357 129.495 362.791 129.495 361.662 130.062H360.529C359.396 130.062 358.829 130.629 357.696 130.629H356.563C355.429 131.191 354.863 131.191 353.734 131.758H353.167C349.206 133.458 345.239 135.724 342.411 138.553L340.711 140.254C339.011 141.949 337.312 144.216 336.183 145.916V146.483C335.616 147.045 335.616 147.612 335.049 148.179V130.629H308.441V131.758C309.008 131.758 312.97 132.324 312.97 135.724V220.654C312.97 224.05 309.004 225.183 308.441 225.183V226.317H336.745V225.183C336.178 225.183 332.217 223.488 332.217 220.088V172.52V167.991V166.295C332.217 165.162 332.217 164.595 332.783 163.462C332.783 162.895 332.783 162.329 333.35 162.329C337.878 144.778 353.163 135.72 365.053 135.72C379.205 135.72 382.604 139.683 383.737 153.27C384.304 155.537 384.3 158.366 384.3 161.199V220.65C384.3 224.612 380.338 225.746 379.205 225.746V226.312H408.075V225.179C406.384 224.612 402.988 224.046 402.988 220.083Z" fill="#1A1715"/>
<path d="M983.445 67.7734C970.422 67.7734 957.97 75.6984 950.609 85.3235C944.947 92.1195 940.419 100.611 940.419 120.432V126.091C939.285 130.624 934.757 136.849 929.662 136.849C929.662 136.849 937.586 136.849 940.419 134.02V221.217C940.419 224.046 937.019 225.179 935.89 225.179V226.312H964.194V225.179C963.061 225.179 959.665 224.612 959.665 221.783V137.982H981.745V132.32H959.665V102.878C959.665 81.361 969.855 71.1692 982.312 71.1692C987.973 71.1692 994.764 73.436 994.764 80.7943V92.1195C994.764 95.5153 997.592 98.3487 1003.82 98.3487C1009.49 98.3487 1012.88 96.082 1012.88 92.1195C1012.88 79.1029 1007.79 67.7734 983.445 67.7734Z" fill="#1A1715"/>
<path d="M1148.4 215.537C1147.27 216.103 1146.14 217.232 1145.01 217.799C1144.44 218.366 1143.87 218.366 1143.31 218.933C1143.31 218.933 1142.74 218.933 1142.74 219.499C1128.59 226.862 1114.44 221.766 1105.94 213.837C1099.15 205.912 1094.06 196.282 1094.06 189.491C1094.06 185.528 1094.62 182.128 1095.76 179.303C1097.46 175.341 1099.72 172.507 1102.55 170.245C1104.81 168.545 1107.07 167.411 1109.34 166.278C1115 173.074 1126.89 186.662 1150.67 214.408L1151.23 214.974C1149.53 214.403 1148.97 214.966 1148.4 215.537ZM1117.83 148.157C1099.72 126.64 1109.91 112.486 1119.53 111.352H1121.23C1132.55 111.352 1139.34 123.244 1139.34 134.003C1138.21 147.024 1134.25 152.119 1124.63 156.082C1122.36 153.249 1120.1 150.982 1117.83 148.157ZM1205.58 161.745V160.049H1174.44C1174.44 160.049 1173.88 179.866 1163.69 197.416C1163.12 198.549 1161.99 199.682 1161.43 200.816C1151.8 190.057 1144.44 180.432 1134.25 167.974L1126.33 158.349C1134.25 156.082 1141.61 153.253 1147.84 147.024L1150.1 144.761C1150.1 144.194 1150.67 144.194 1150.67 143.628C1151.8 141.928 1152.37 140.228 1152.93 138.532V137.965V136.832V134.569C1152.93 119.282 1142.18 109.652 1123.49 109.652C1106.51 109.652 1092.93 120.977 1092.93 137.965C1092.93 147.59 1098.02 154.386 1101.98 158.915L1104.81 162.311C1104.25 162.311 1103.11 162.878 1102.55 162.878C1101.42 162.878 1100.29 163.445 1099.15 164.011C1089.53 166.84 1073.11 175.899 1073.11 194.587C1073.11 208.174 1082.17 229.691 1117.83 228.558C1135.39 227.991 1143.31 222.895 1150.67 216.67C1151.24 217.232 1151.24 217.232 1151.8 217.799C1158.03 224.028 1164.83 227.424 1176.71 227.424C1187.47 227.424 1194.26 222.895 1199.36 218.366L1198.23 216.67C1185.77 225.162 1173.88 216.103 1161.99 203.645C1165.96 197.416 1172.75 186.091 1176.14 182.128C1184.64 172.499 1196.52 161.745 1205.58 161.745Z" fill="#1A1715"/>
<path d="M739.812 144.212C743.778 137.416 748.873 134.02 754.53 133.453H755.663C755.663 133.453 756.23 133.453 756.797 133.453H757.363C774.348 133.453 780.576 152.703 780.576 167.424H734.721C735.85 157.804 737.545 149.874 739.812 144.212ZM790.762 205.929C787.933 211.025 785.1 214.421 782.271 217.254C777.743 220.083 772.648 221.783 766.986 221.783C748.873 221.783 734.721 204.229 731.888 184.412C731.322 180.45 730.755 174.787 730.755 171.391H799.823V170.829C799.823 148.745 785.671 135.158 766.42 130.629H765.853C763.025 130.062 760.192 129.495 757.363 129.495H753.968C750.573 129.495 747.173 130.062 743.778 130.629C723.398 135.724 708.68 156.675 708.68 178.187C708.68 207.067 730.755 226.317 753.968 226.317C778.876 226.317 790.766 214.992 796.428 205.933L790.762 205.929Z" fill="#1A1715"/>
<path d="M851.357 144.212C855.323 137.416 860.414 134.02 866.075 133.453H867.208C867.208 133.453 867.775 133.453 868.341 133.453H868.908C885.893 133.453 892.121 152.703 892.121 167.424H846.266C846.828 157.804 848.528 149.874 851.357 144.212ZM902.307 205.929C899.478 211.025 896.645 214.421 893.816 217.254C889.288 220.083 884.193 221.783 878.531 221.783C860.418 221.783 846.266 204.229 843.433 184.412C842.867 180.45 842.3 174.787 842.3 171.391H911.368V170.829C911.368 148.745 897.216 135.158 877.965 130.629H877.398C874.57 130.062 871.737 129.495 868.908 129.495H865.513C862.113 129.495 858.718 130.062 855.323 130.629C834.943 135.724 820.225 156.675 820.225 178.187C820.225 207.067 842.3 226.317 865.513 226.317C890.421 226.317 902.311 214.992 907.968 205.933L902.307 205.929Z" fill="#1A1715"/>
<path d="M1682.04 143.087C1686 136.291 1691.1 132.895 1696.76 132.328H1697.89C1697.89 132.328 1698.46 132.328 1699.02 132.328H1699.59C1716.57 132.328 1722.8 151.579 1722.8 166.304H1676.94C1677.51 156.674 1679.21 149.316 1682.04 143.087ZM1732.99 205.371C1730.16 210.467 1727.33 213.862 1724.5 216.696C1719.97 219.525 1714.87 221.225 1709.22 221.225C1691.1 221.225 1676.95 203.671 1674.12 183.854C1673.55 179.891 1672.99 174.229 1672.99 170.833H1742.05V170.266C1742.05 148.183 1727.9 134.595 1708.65 130.066H1708.08C1705.26 129.499 1702.42 128.933 1699.59 128.933H1696.19C1692.8 128.933 1689.4 129.499 1686.01 130.066C1665.63 135.162 1650.91 156.112 1650.91 177.625C1650.91 206.504 1672.99 225.754 1696.2 225.754C1721.11 225.754 1733 214.429 1738.66 205.371H1732.99Z" fill="#1A1715"/>
<path d="M1572.79 221.203C1570.52 221.203 1568.82 220.636 1567.12 220.074C1562.59 218.374 1558.06 214.412 1556.37 208.182C1555.8 206.482 1555.23 204.22 1555.23 202.52L1554.67 158.357V155.523C1554.67 144.765 1567.69 137.407 1575.05 137.407C1583.54 137.407 1589.2 139.102 1594.86 145.898C1601.65 153.823 1604.48 165.149 1604.48 175.907C1604.48 197.995 1593.73 221.203 1572.79 221.203ZM1612.98 144.765C1606.18 136.84 1595.43 131.177 1585.24 131.744C1569.39 131.744 1558.07 139.669 1554.11 144.198V132.877H1530.89V134.007C1532.03 134.007 1535.42 134.007 1535.42 137.407V273.295C1535.42 280.658 1523.54 282.92 1522.4 282.92V284.054H1554.67V221.77V214.978C1554.67 214.978 1557.5 220.636 1565.42 224.037C1568.82 225.17 1572.21 225.732 1575.61 226.299H1578.44C1603.92 226.299 1624.3 205.916 1624.3 177.607C1624.3 165.72 1620.34 153.261 1612.98 144.765Z" fill="#1A1715"/>
</svg>
