<svg width="1029" height="774" viewBox="0 0 1029 774" fill="none" xmlns="http://www.w3.org/2000/svg">
<g clip-path="url(#clip0_147_60)">
<path d="M310.251 638.149C315.177 637.085 321.124 636.406 325.905 638.873C340.5 646.406 332.48 663.81 333.821 676.97C334.301 684.853 336.477 692.504 339.093 699.894C347.916 726.091 372.701 743.891 400.075 732.222C437.39 716.315 450.325 662.696 435.857 627.234C427.145 605.88 412.529 592.602 389.445 588.725C382.958 587.635 375.893 588.478 369.827 585.865L369.696 584.578C375.331 581.679 388.724 581 396.214 578.022C409.72 573.022 418.547 564.767 424.622 551.579C443.569 510.447 410.28 441.101 358.237 461.155C341.794 467.492 336.446 484.136 338.438 500.47C339.573 509.791 342.822 518.773 346.655 527.316C348.772 532.35 352.04 539.181 349.347 544.563C346.202 550.697 340.518 555.493 333.242 554.751C300.719 551.433 292.897 518.962 308.036 493.661C335.008 448.584 409.938 435.398 453.424 461.57C468.531 470.481 479.406 485.107 483.587 502.139C493.876 545.522 461.548 573.666 422.764 582.072L411.337 585.722L418.274 586.132C419.622 586.14 420.97 586.156 422.318 586.178C468.745 586.982 509.326 611.05 506.966 662.23C504.207 722.12 435.127 743.818 384.936 742.305C342.609 741.033 289.891 724.952 290.291 673.664C290.465 658.045 299.289 648.201 310.251 638.149Z" fill="#D8D3CB"/>
<path d="M581.981 544.184C579.508 548.336 575.502 553.296 570.69 554.166C555.5 557.139 536.385 544.678 533.579 529.326C526.101 488.447 568.144 459.278 603.022 451.645C631.062 445.508 662.528 447.182 686.822 462.575C701.831 471.968 712.382 487.047 716.061 504.361C718.974 518.182 718.141 534.801 710.083 546.702C697.539 565.219 676.371 577.586 654.816 582.03C650.777 583.277 646.538 584.666 642.486 585.808C646.412 585.966 651.344 586.299 655.196 586.181C686.535 587.046 722.946 599.783 734.57 631.648C736.989 638.273 737.829 644.185 738.602 651.055C749.1 743.878 595.091 765.09 541.737 718.401C530.307 708.385 523.295 694.257 522.228 679.095C521.375 666.072 525.441 655.832 533.966 646.037C538.011 641.391 542.637 637.557 549.035 637.204C553.641 636.958 558.16 638.548 561.599 641.625C570.73 649.952 564.971 665.526 565.851 676.97C567.897 703.626 585.186 737.427 616.186 735.661C655.822 733.402 675.351 688.785 673.425 653.655C671.652 621.351 654.016 593.101 619.745 588.336C615.399 587.721 604.608 588.668 601.929 586.26L601.936 585.096C606.854 580.359 629.389 581.558 643.326 569.479C683.702 534.496 653.803 444.878 595.497 459.294C569.957 465.608 565.731 493.333 573.656 515.329C577.882 527.06 582.774 531.077 581.981 544.184Z" fill="#D8D3CB"/>
<path d="M762.651 126.7C777.494 125.314 781.36 137.608 773.369 148.263C771.869 150.264 769.516 154.883 768.097 157.349C762.431 167.187 756.633 176.957 751.007 186.814C730.679 222.662 710.071 258.353 689.196 293.886C679.805 310.093 670.82 326.872 660.969 342.857C658.563 346.762 656.877 348.51 652.871 350.528C651.165 350.66 649.452 350.624 647.746 350.424C642.387 349.743 636.542 344.063 638.302 339.334C644.633 322.36 657.51 302.783 666.475 287.261L711.697 208.948L741.97 156.227C747.002 147.562 754.407 131.757 762.651 126.7Z" fill="#D8D3CB"/>
<path d="M426.424 66.0723C441.001 68.1035 439.756 82.7954 441.948 94.9449L451.721 150.621L469.64 251.977C472.621 268.854 475.721 285.722 478.484 302.633C480.177 312.992 479.516 315.563 469.24 318.791C456.214 317.8 456.778 312.43 454.906 301.334C454.136 296.772 453.253 291.883 452.446 287.307L441.94 227.826L424.107 126.63C421.565 111.911 418.99 97.2167 416.636 82.4669C415.159 73.211 417.059 68.9285 426.424 66.0723Z" fill="#D8D3CB"/>
<path d="M260.385 126.632C266.478 126.009 270.542 127.643 273.698 133.133C299.767 178.479 325.946 223.764 352.017 269.11L377.45 312.965C381.965 320.722 386.793 328.612 390.872 336.585C394.025 342.75 387.687 347.974 382.914 350.499C377.05 350.856 372.399 350.082 369.12 344.584C360.344 329.866 351.866 314.965 343.3 300.121L294.93 216.196C285.877 200.384 276.746 184.619 267.536 168.899C262.466 160.197 256.978 151.334 252.565 142.299C249.052 135.105 253.905 129.344 260.385 126.632Z" fill="#D8D3CB"/>
<path d="M598.657 66.74C604.069 66.0513 609.008 67.1505 612.094 72.2773C613.774 75.0789 613.427 77.6466 613.061 80.7955C611.588 93.3315 608.782 105.65 606.609 118.064L592.752 196.651L580.895 263.932C578.336 278.998 575.843 294.586 572.517 309.531C571.411 314.497 568.478 316.198 564.399 318.475C557.921 318.941 549.623 316.151 550.349 308.182C551.196 298.851 553.115 289.504 554.755 280.264L562.34 237.166C571.831 183.116 582.528 127.327 591.146 73.3156C593.739 69.9321 595.045 68.8186 598.657 66.74Z" fill="#D8D3CB"/>
<path d="M985.35 389.888C990.089 390.141 996.881 392.297 998.227 397.534C1000.8 407.537 995.341 410.867 986.903 413.991C974.366 418.631 961.809 423.121 949.266 427.698L865.013 458.339L803.248 480.777C794.31 484.034 779.74 489.916 771.076 492.307C764.251 492.585 758.592 491.076 757.379 483.01C755.42 470.007 773.282 467.217 783.746 463.474C796.016 459.121 808.26 454.691 820.477 450.182C875.23 429.79 930.73 410.597 985.35 389.888Z" fill="#D8D3CB"/>
<path d="M37.6807 390.587C40.0788 390.371 43.2907 390.108 45.5821 390.891C59.3461 395.601 73.2774 400.798 86.9234 405.806L163.586 433.807L229.496 457.777C241.277 462.042 253.691 466.143 265.165 471.054C275.081 475.299 274.891 487.188 264.569 492.104C256.326 492.87 243.759 487.454 235.736 484.519C223.542 479.956 211.317 475.477 199.061 471.084L97.6701 434.121C79.3146 427.413 60.955 420.795 42.5655 414.125C34.6821 411.266 27.01 407.103 31.2943 397.225C32.8492 393.64 34.5148 392.561 37.6807 390.587Z" fill="#D8D3CB"/>
<path d="M124.749 239.363C129.01 238.974 133.234 238.522 136.774 241.497C144.232 247.765 151.656 254.073 159.115 260.34C176.3 274.67 193.412 289.088 210.45 303.592L278.384 360.596C290.087 370.391 307.433 384.041 318.154 395.246C319.144 396.281 319.442 401.4 318.562 403.382C316.568 407.874 315.396 408.641 311.356 410.697C304.419 411.857 301.6 409.542 296.363 405.33C284.206 395.55 272.29 385.443 260.325 375.425L185.576 312.6L144.764 278.316C136.144 271.15 126.48 263.649 118.771 255.611C114.217 250.862 120.302 242.349 124.749 239.363Z" fill="#D8D3CB"/>
<path d="M899.556 238.858C908.307 239.465 915.332 248.833 910.094 255.218C904.049 262.593 893.444 270.563 885.893 276.912L838.425 316.592L761.896 380.958C750.753 390.314 739.835 399.947 728.498 409.085C726.852 410.408 723.913 410.957 721.806 411.447C713.888 409.946 705.744 402.024 711.822 394.4C717.121 387.752 727.512 380.007 734.203 374.352L784.078 332.51L856.42 271.759C868.524 261.609 880.514 250.957 893.005 241.311C895.324 239.519 896.75 239.236 899.556 238.858Z" fill="#D8D3CB"/>
<path d="M781.959 562.608C788.204 561.945 806.073 562.409 813.271 562.416L874.59 562.41L965.294 562.446C982.337 562.405 999.393 562.239 1016.43 562.435C1022.11 562.499 1027.74 564.768 1028.59 571.12C1029.57 578.299 1028.16 583.815 1020.06 584.945C1003 585.718 980.75 585.092 963.328 585.09L853.668 585.074C842.724 585.074 786.951 586.408 780.979 584.648C778.187 583.837 775.867 581.875 774.614 579.253C771.062 571.943 774.827 565.588 781.959 562.608Z" fill="#D8D3CB"/>
<path d="M240.594 562.137C247.821 560.94 255.315 566.263 255.965 573.755C256.22 576.588 255.261 579.397 253.328 581.484C251.98 582.925 249.862 584.474 247.886 584.636C239.698 585.302 230.973 585.096 222.759 585.102L175.875 585.104L15.4539 585.073C11.7715 585.142 7.74447 585.523 4.66655 583.043C-2.8896 577.29 0.0143507 563.068 9.97792 562.473C16.3004 562.095 23.2313 562.381 29.6071 562.393L69.3488 562.407L178.601 562.433C198.18 562.44 221.227 563.003 240.594 562.137Z" fill="#D8D3CB"/>
<path d="M375.187 192.138C390.65 190.381 390.753 199.376 395.177 211.702L405.636 240.663L423.388 289.177C426.805 298.48 430.407 307.777 433.322 317.244C435.351 323.831 431.668 327.64 426.288 330.497C410.991 332.926 409.647 319.288 405.335 307.451L392.713 272.656L377.858 231.889C375.065 224.298 370.848 213.771 368.854 206.268C368.282 204.072 368.291 201.765 368.881 199.574C369.899 195.778 372.038 193.965 375.187 192.138Z" fill="#D8D3CB"/>
<path d="M511.232 168.062C517.451 167.657 525.182 169.051 525.782 176.655C526.369 184.131 526.162 191.778 526.155 199.283L526.109 237.073L526.182 280.02C526.195 288.407 526.389 296.819 525.922 305.194C525.469 313.461 519.957 314.287 513.225 314.833C505.027 313.529 503.367 308.584 503.301 301.164C503.008 268.234 503.174 235.288 503.154 202.354C503.148 193.815 502.588 182.431 503.914 174.182C506.387 170.925 507.573 169.552 511.232 168.062Z" fill="#D8D3CB"/>
<path d="M645.166 192.044C656.07 190.933 663.435 195.176 659.902 207.171C657.336 215.896 654.29 224.023 651.131 232.537L635.575 274.524L622.811 309.65C619.565 318.438 618.732 325.465 610.454 330.568C601.437 332.032 593.279 326.62 596.171 316.66C598.517 308.567 601.51 300.826 604.409 292.918L619.859 250.84C623.738 240.26 627.55 229.656 631.303 219.028C634.289 210.617 637.554 196.765 645.166 192.044Z" fill="#D8D3CB"/>
<path d="M168.392 365.404C170.472 365.282 172.73 365.052 174.801 365.286C179.231 365.787 271.019 419.294 281.592 425.958C284.358 427.701 288.184 429.908 290.077 432.605C291.691 434.907 292.369 438.067 291.707 440.806C290.676 445.071 287.678 447.227 284.135 449.277C279.656 450.549 274.723 448.432 270.812 446.191C237.145 426.906 203.589 407.397 169.898 388.149C168.144 387.146 164.783 384.817 163.623 383.189C161.746 380.603 161.064 377.338 161.748 374.216C162.725 369.913 164.968 367.701 168.392 365.404Z" fill="#D8D3CB"/>
<path d="M766.277 260.038C771.509 259.988 776.755 262.069 778.907 267.127C782.053 274.762 775.055 281.237 770.51 286.521C746.242 314.757 722.888 343.772 698.507 371.891C695.981 374.8 693.855 376.559 690.216 377.77C685.444 377.825 679.465 376.753 677.579 371.656C674 361.968 687.19 349.852 693.022 342.898L725.76 304.262C737.064 290.776 748.202 276.431 759.939 263.314C761.552 261.508 763.991 260.779 766.277 260.038Z" fill="#D8D3CB"/>
<path d="M257.448 260.654C263.933 259.904 266.435 260.464 270.833 265.47C276.498 271.916 281.833 278.607 287.367 285.161C299.267 299.061 311.06 313.052 322.746 327.131C332.423 338.711 343.059 350.297 351.544 362.687C355.056 367.813 349.656 375.069 344.663 377.536C339.91 377.896 335.914 378.013 332.358 374.075C326.953 368.093 321.748 361.892 316.546 355.729L284.881 317.899L263.772 292.627C255.997 283.359 240.488 269.76 257.448 260.654Z" fill="#D8D3CB"/>
<path d="M123.073 493.819C130.885 493.414 247.819 514.602 253.861 517.107C256.233 518.092 258.634 520.707 259.519 523.102C261.08 527.329 259.354 531.119 257.584 534.896C255.964 535.917 253.88 536.936 252.154 537.84C250.656 538.007 249.147 538.054 247.64 537.979C242.686 537.694 230.031 535.179 224.658 534.234L179.202 526.197L142.748 519.809C136.199 518.685 129.147 517.553 122.661 516.056C119.515 515.331 116.792 512.018 114.693 509.615C114.87 501.488 115.392 497.812 123.073 493.819Z" fill="#D8D3CB"/>
<path d="M852.802 365.269C869.124 364.3 872.057 379.638 861.539 386.114C831.047 404.9 799.388 421.995 768.522 440.185C763.263 443.283 756.645 447.613 750.96 449.55C737.077 452.307 733.131 435.193 741.669 429.682C753.412 422.105 766.576 414.921 778.74 407.89C803.314 393.488 828.001 379.281 852.802 365.269Z" fill="#D8D3CB"/>
<path d="M900.004 493.977C905.363 493.75 911.395 494.729 913.581 500.537C915.814 506.469 913.281 514.034 906.683 515.738C896.725 518.312 886.148 519.842 875.957 521.637L816.311 532.176C806.414 533.913 793.77 535.584 784.246 538.025C763.364 539.173 767.93 518.162 777.088 516.171C817.438 507.398 859.721 502.751 900.004 493.977Z" fill="#D8D3CB"/>
<path d="M642.486 585.808C646.539 584.666 650.778 583.277 654.817 582.03L656.876 584.598C655.376 585.531 653.15 585.178 651.078 585.198C652.424 585.515 653.864 585.829 655.197 586.181C651.344 586.299 646.412 585.966 642.486 585.808Z" fill="#D8D3CB"/>
<path d="M411.338 585.722L422.765 582.072C424.524 583.331 424.681 582.985 425.151 584.6C421.924 585.519 420.108 584.68 418.275 586.132L411.338 585.722Z" fill="#D8D3CB"/>
</g>
<defs>
<clipPath id="clip0_147_60">
<rect width="1029" height="774" fill="white"/>
</clipPath>
</defs>
</svg>
