<svg width="1509" height="413" viewBox="0 0 1509 413" fill="none" xmlns="http://www.w3.org/2000/svg">
<path fill-rule="evenodd" clip-rule="evenodd" d="M1494.59 230.064V406.115H1491.64C1409.48 303.29 1308.24 173.592 1291.1 149.053H1290.33V269.789C1290.33 381.962 1292.89 400.271 1295.38 400.271V401.832H1262.34V400.271C1264.96 400.271 1269.85 381.962 1269.85 269.789V92.9666H1272.81C1354.98 195.792 1456.22 325.489 1473.35 350.029H1474.13V230.064C1474.13 117.891 1471.7 99.5881 1469.06 99.5881V98.0336H1502.11V99.5881C1499.48 99.5881 1494.59 117.891 1494.59 230.064ZM1090.86 401.828V400.271C1094.84 398.398 1089.93 382.354 1057.22 299.416C1057.22 299.416 1003.49 158.841 998.819 144.041H998.455C993.397 158.841 936.937 299.416 936.937 299.416C903.455 382.354 897.378 398.193 901.505 400.271V401.828H868.128V400.271C876.389 400.271 997.456 93.0285 997.456 93.0285H1001.41C1001.41 93.0285 1117.01 400.271 1125.27 400.271V401.828H1090.86ZM698.042 401.828V400.271C706.111 400.271 681.691 183.373 680.527 158.448H679.75C668.07 189.603 651.32 225.424 630.297 269.43C615.504 300.192 595.259 348.095 569.564 401.828H562.557C536.862 348.095 516.618 300.192 501.824 269.43C480.801 225.424 464.05 189.603 452.371 158.448H451.6C450.428 183.373 426.009 400.271 434.084 400.271V401.828H401.086V400.271C411.938 400.271 439.693 93.0285 439.693 93.0285H442.642C553.213 322.785 555.156 337.191 565.671 360.939H566.448C576.962 337.191 578.905 322.785 689.477 93.0285H692.426C692.426 93.0285 720.181 400.271 731.033 400.271V401.828H698.042ZM229.626 401.828V400.271C233.589 398.398 228.683 382.354 195.979 299.416C195.979 299.416 142.254 158.841 137.575 144.041H137.211C132.148 158.841 75.6926 299.416 75.6926 299.416C42.2119 382.354 36.1274 398.193 40.262 400.271V401.828H6.89062V400.271C15.1457 400.271 136.205 93.0285 136.205 93.0285H140.158C140.158 93.0285 255.767 400.271 264.022 400.271V401.828H229.626ZM91.595 6.88171H184.644V27.2021H91.595V6.88171Z" fill="#D8D3CB"/>
</svg>
