<svg width="2100" height="578" viewBox="0 0 2100 578" fill="none" xmlns="http://www.w3.org/2000/svg">
<path d="M374.322 119.215L427.218 119.172C444.949 119.164 475.63 117.02 488.514 130.939C507.485 151.433 508.146 197.426 508.481 223.924C508.865 254.241 504.088 297.869 482.101 320.022C466.731 331.843 452.271 328.774 433.762 328.771L374.348 328.722C374.349 327.358 374.142 325.566 374.353 324.243C374.669 322.258 386.28 319.113 389.856 310.534C391.452 306.706 392.202 302.414 392.478 298.292C393.065 289.506 392.606 280.484 392.56 271.678L392.559 228.878L392.603 178.722C392.609 169.121 392.961 159.332 392.377 149.762C391.484 135.158 388.092 130.796 375.173 125.461C373.99 123.657 374.373 121.658 374.322 119.215ZM463.018 313.117C469.828 305.549 475.612 293.113 476.983 282.922C480.702 254.968 481.414 225.97 480.191 197.712C479.37 178.722 476.61 149.294 463.291 135.012C457.311 128.598 443.316 128.131 435.068 128.843C426.545 130.993 423.978 134.239 423.378 142.932C422.537 155.102 422.86 167.38 422.856 179.585L422.848 237.459L422.867 285.222C422.871 290.561 421.516 316.21 426.44 317.796C436.667 321.091 454.206 319.8 463.018 313.117Z" fill="#D8D3CB"/>
<path d="M1309.77 73.877L1379.51 73.8292C1391.19 73.8254 1404.71 73.2774 1416.15 74.722C1419.85 75.1911 1424.58 78.0753 1427.22 80.7245C1434.28 87.7994 1435.94 97.4081 1435.96 107.023C1436 133.048 1436.17 158.98 1435.88 185.012C1436.45 195.678 1430.3 213.078 1418.05 214.891C1403.15 217.097 1383.09 216.037 1367.79 215.987L1367.74 268.277C1367.74 280.133 1367.21 294.741 1369.05 306.178C1372.47 320.171 1378.2 321.452 1391.22 322.32C1391.25 324.399 1391.46 326.593 1390.65 328.483C1384.19 329.271 1360.93 328.818 1352.9 328.666C1343.12 328.481 1318.8 329.54 1310.43 328.456C1309.6 326.928 1309.84 324.141 1309.86 322.302C1318.02 321.918 1328.88 320.126 1331.06 310.382C1334.79 293.752 1333.54 274.746 1333.54 257.596L1333.55 190.8L1333.54 135.413C1333.54 122.725 1335.24 104.2 1330.13 92.3998C1325.85 82.5165 1318.85 83.083 1310.46 80.2599C1309.44 78.8496 1309.76 75.7958 1309.77 73.877ZM1367.81 206.282C1374.52 206.338 1396.16 207.782 1400.61 204.138C1401.53 202.165 1402.38 199.934 1402.42 197.73C1402.99 164.1 1402.7 130.414 1402.58 96.7765C1402.57 93.9171 1401.82 84.9565 1398.37 84.1466C1388.81 82.2437 1377.68 83.0664 1367.81 83.1696V206.282Z" fill="#D8D3CB"/>
<path d="M645.022 119.215H698.488L738.888 265.368C743.324 248.824 748.875 231.178 753.757 214.602L781.851 119.215H833.283C833.379 120.968 833.27 122.859 833.207 124.624C832.174 126.182 827.331 127.335 825.361 128.303C810.734 135.483 814.354 162.441 814.348 176.184L814.354 228.872L814.329 272.156C814.297 281.218 813.915 290.553 814.558 299.574C815.553 313.466 820.027 318.252 832.62 322.484C833.723 324.303 833.309 326.321 833.309 328.722C812.436 328.745 786.012 329.529 765.58 328.498C764.152 327.166 764.605 327.82 763.993 325.74C765.529 321.213 773.094 320.673 776.172 317.729C779.422 314.277 782.533 307.985 782.877 303.085C783.89 288.647 783.444 273.026 783.444 258.593L783.425 162.184L783.444 146.075C770.328 192.956 755.829 239.602 742.578 286.458C738.659 300.316 734.593 314.382 730.284 328.108C728.78 329.053 727.639 328.827 725.887 328.728C723.777 327.087 678.597 162.264 673.741 145.221C674.384 196.802 673.001 248.528 674.168 300.099C674.48 313.797 679.948 317.917 691.624 322.487C692.879 324.308 692.44 326.102 692.465 328.637C676.927 328.716 661.395 328.669 645.864 328.498L645.22 327.435C645.52 322.179 647.521 322.386 652.263 320.151C667.883 312.789 664.015 283.55 664.021 268.527L664.002 214.571L663.989 168.685C663.977 159.227 664.537 147.77 662.823 138.568C660.089 123.941 650.338 128.313 645.602 125.241C644.761 123.717 645.01 121.074 645.022 119.215Z" fill="#D8D3CB"/>
<path d="M980.742 119.214L1030.65 119.188C1052.79 119.162 1093.59 114.056 1093.09 145.209C1092.78 164.98 1094.47 184.924 1093.42 204.714C1092.56 220.961 1082.33 225.352 1068.61 228.839L1092.77 286.121C1097.27 296.763 1102.07 309.834 1108.09 319.462C1110.18 322.8 1111.45 321.398 1113.91 322.913C1114.03 324.73 1113.84 328.78 1111.09 328.741C1080.59 328.305 1080.26 333.953 1068.59 304.76L1057.79 277.69L1039.13 231.281H1029.18L1029.11 275.942C1029.1 284.144 1028.54 296.506 1030.14 304.234C1033.54 320.561 1038.26 317.016 1047.08 322.791C1047.52 325.397 1047.48 325.877 1047.18 328.515C1042.08 329.254 1027.31 328.579 1021.42 328.652C1009.47 328.8 997.039 328.696 985.07 328.78C982.291 328.799 981.539 328.795 980.041 327.137C980.054 321.097 991.698 318.721 994.91 311.819C1000.43 299.966 998.823 286.957 998.747 274.096L998.708 234.275L998.734 181.294C998.772 168.095 1000.09 151.543 996.599 138.715C994.222 129.942 988.62 128.868 981.437 125.37C980.404 123.951 980.717 121.091 980.742 119.214ZM1029.18 221.324C1037.74 221.343 1043.03 221.652 1051.4 219.507C1055.77 217.656 1062.77 213.53 1063.49 208.422C1066.44 187.547 1065.12 162.976 1064.35 141.911C1063.91 130.314 1050.78 128.931 1041.73 129.683C1034.5 129.715 1029.87 128.807 1029.43 137.751C1028.95 147.487 1029.13 157.188 1029.13 166.931L1029.18 221.324Z" fill="#D8D3CB"/>
<path d="M150.197 73.9229H207.769L207.796 220.189C207.79 246.004 207.592 272.286 208.024 297.964C208.221 309.61 212.22 320.438 224.699 321.735C226.623 321.935 229.589 322.537 231.051 323.865C231.989 325.662 231.808 326.147 231.475 328.073C230.04 328.852 154.029 329.4 150.461 328.102C149.597 322.748 150.148 322.186 155.507 322.161C164.337 322.527 172 315.299 172.946 306.433C174.928 287.873 174.048 266.675 173.99 247.942H134.157H117.314C112.182 260.942 106.583 273.637 101.36 286.785C97.867 295.575 94.1138 311.905 103.136 318.943C107.162 322.083 111.475 322.156 110.113 328.511C98.4629 329.453 68.5939 328.758 56.3593 328.618L55.8293 327.809C55.4664 319.372 64.2237 321.675 68.6965 317.779C84.8266 303.727 93.5944 276.166 101.383 256.73L127.991 189.873L150.84 132.221C155.056 121.572 159.606 110.665 163.236 99.8201C164.466 96.1462 164.688 92.3691 163.877 88.5424C162.28 81.0029 156.813 83.392 151.131 79.7035C149.786 77.4163 150.22 76.7823 150.197 73.9229ZM121.996 238.65H173.99L174.028 144.801C174.029 140.442 174.248 112.409 173.675 110.067L136.07 202.858C133.853 208.322 122.192 235.465 121.996 238.65Z" fill="#D8D3CB"/>
<path d="M884.568 118.531H921.986C925.568 133.297 928.837 151.627 931.96 166.834L951.437 261.714L957.989 293.769C959.486 301.124 960.532 309.432 964.024 316.123C966.261 320.407 968.333 320.756 972.405 322.52C972.826 325.206 972.787 325.75 972.411 328.461C969.467 328.769 966.197 328.839 963.228 328.743C948.83 328.282 933.611 329.402 919.296 328.552C918.997 327.89 918.525 327.002 918.436 326.283C917.875 321.429 926.779 321.483 929.181 317.805C933.63 311.008 923.286 274.377 921.145 264.79H878.15C874.129 279.73 868.138 296.969 868.049 312.517C868.004 320.974 876.659 320.089 879.527 324.301C880.031 326.283 880.062 326.536 879.323 328.481C876.264 328.994 848.923 328.726 844.194 328.722C844.187 327.278 843.862 325.029 844.168 323.678C844.27 323.238 852.498 318.296 854.576 314.725C860.057 305.306 863.243 283.346 865.78 272.007L878.15 216.635C883.402 193.102 888.934 169.31 893.899 145.7C894.657 142.091 895.371 134.596 894.498 130.985C893.491 126.818 889.699 126.922 885.594 124.68C884.046 122.347 884.562 121.64 884.568 118.531ZM880.33 254.906H898.316H918.404L906.193 189.065C905.511 185.373 901.776 164.023 900.731 161.601L880.33 254.906Z" fill="#D8D3CB"/>
<path d="M1586.92 115.613C1606.92 112.845 1613.45 122.476 1630.95 126.402C1638.52 128.099 1626.61 116.056 1642.44 115.981V180.392H1632.26C1632.29 157.075 1622.12 127.941 1594.85 125.596C1584.65 124.719 1574.25 130.101 1571.39 140.353C1570.3 144.299 1569.85 148.836 1569.72 152.944C1569.62 183.844 1569.66 214.75 1569.67 245.651L1569.68 280.896C1569.68 299.752 1565.75 321.098 1592 321.244C1615.11 321.373 1616.82 310.466 1617.01 290.364C1617.11 279.913 1616.99 268.98 1616.95 258.411C1617.06 250.951 1618.27 237.661 1613.63 231.764C1611.91 229.581 1609.27 229.481 1607.76 227.387C1607.76 224.91 1607.43 225.814 1608.96 223.973C1612.91 222.097 1647.05 222.497 1653.21 223.43L1653.51 224.648C1652.3 229.076 1644.59 234.754 1644.32 239.222C1642.76 265.438 1650.13 290.596 1632.15 313.009C1614.39 336.091 1576.88 336.154 1554.97 319.025C1537.16 305.104 1538.58 281.329 1538.56 261.408V220.011V182.628C1538.56 173.879 1537.99 163.94 1539.58 155.406C1544.57 128.666 1561.58 118.038 1586.92 115.613Z" fill="#D8D3CB"/>
<path d="M1163.26 113.615C1181.06 112.867 1183.97 114.697 1199.3 122.89C1201.74 124.191 1206.24 125.514 1209.15 124.36C1210.96 122.842 1211.05 119.922 1211.99 117.145C1213.3 115.787 1213.55 115.432 1215.46 114.996C1217.82 115.866 1218.44 118.03 1218.44 120.466C1218.46 137.158 1218.26 153.859 1218.47 170.551C1218.5 173.102 1218.84 177.117 1218.2 179.469C1216.6 181.306 1217.41 180.76 1215.09 181.528C1212.18 180.46 1211.29 174.21 1210.59 171.161C1207.2 156.338 1202.52 141.12 1190.84 130.625C1181.93 122.603 1167.72 120.324 1159.54 130.735C1153.21 138.847 1150.82 150.955 1151.57 161.093C1152.85 176.083 1164.23 188.07 1176.48 195.579C1185.45 200.988 1193.87 205.143 1202.19 211.977C1217.98 224.953 1227.42 242.487 1229.17 262.962C1230.67 280.524 1227.43 300.318 1216.01 314.359C1205.53 326.817 1192.98 330.012 1177.59 331.351C1163.23 331.237 1155.85 326.118 1142.66 321.657C1132.27 318.145 1136.44 328.814 1130.09 330.89C1128.54 330.581 1128.32 330.241 1127.11 329.19C1126.72 323.031 1126.63 258.512 1127.4 256.923C1128.47 256.775 1131.96 256.352 1132.8 257.111C1135.6 259.629 1138.19 301.883 1159.47 317.186C1164.71 320.951 1170.85 322.489 1177.22 321.384C1184.01 320.209 1189.77 316.555 1193.77 310.925C1199.96 302.185 1202.75 288.369 1200.95 277.864C1197.56 258.121 1173.62 245.441 1158.63 234.838C1141.16 222.477 1130.41 206.5 1126.83 185.201C1123.79 167.094 1125.84 145.063 1136.8 129.75C1143.45 120.45 1152.09 115.501 1163.26 113.615Z" fill="#D8D3CB"/>
<path d="M516.236 119.215H626.744L626.76 159.362L619.303 159.365C614.279 131.829 601.582 130.276 576.22 129.13C566.829 128.705 565.907 131.086 565.329 140.264C564.767 149.159 565.087 158.607 565.086 167.574L565.118 217.692C590.031 215.785 590.557 209.778 594.59 187.034H600.47V259.052H594.62C590.085 235.844 590.284 230.211 565.118 228.561V259.049C565.094 269.744 563.345 305.675 567.172 313.497C568.351 315.908 570.286 317.202 572.776 318.067C582.584 321.476 601.039 319.496 610.373 314.976C620.107 310.261 624.743 300.322 628.095 290.639L636.518 290.636L628.132 328.722L555.769 328.756C543.779 328.76 528.542 329.186 516.758 328.589C514.454 316.441 526.43 324.573 531.497 311.532C536.402 298.907 534.796 286.297 534.737 273.045L534.709 229.969L534.718 178.664C534.737 166.403 535.979 150.823 532.584 138.956C529.998 129.915 524.291 128.851 516.863 125.364C515.931 123.939 516.211 121.044 516.236 119.215Z" fill="#D8D3CB"/>
<path d="M1805.06 119.215H1915.28V159.363L1907.87 159.362C1902.63 133.057 1892.69 130.755 1867.36 129.196C1857.05 128.561 1854.59 128.9 1853.86 140.259C1853.27 149.636 1853.56 159.163 1853.58 168.531L1853.54 217.702C1878.85 215.544 1878.71 210.161 1883.21 187.033L1889.03 187.082V259.004L1883.21 259.054C1878.29 235.564 1878.87 230.231 1853.51 228.541C1853.74 238.427 1853.58 248.951 1853.61 258.889C1853.58 268.538 1849.37 316.309 1861.49 318.088C1889.14 322.142 1907.03 318.642 1916.58 290.639L1925.07 290.638L1916.69 328.722H1805.2C1803.61 317.869 1814.48 323.35 1819.34 313.078C1824.82 301.484 1823.3 289.765 1823.3 277.325L1823.32 236.426L1823.35 182.603C1823.36 169.167 1824.41 152.342 1821.35 139.251C1819.28 130.355 1812.72 128.848 1805.61 125.218C1804.79 123.765 1805.04 121.024 1805.06 119.215Z" fill="#D8D3CB"/>
<path d="M226.935 119.214C246.197 119.208 275.804 118.332 294.296 119.309C297.244 127.464 287.016 127.14 283.31 130.89C273.772 140.544 276.139 162.837 276.126 175.689L276.102 220.358L276.116 261.973C276.124 271.592 275.961 280.946 276.788 290.656C277.905 303.772 280.982 318.672 297.334 319.143C306.862 319.417 319.581 320.381 327.183 313.669C334.445 307.258 336.096 295.657 336.812 286.539C337.506 264.262 337.128 241.679 337.191 219.38C337.037 196.494 337.489 173.523 336.968 150.648C336.801 143.28 335.03 135.077 329.015 130.313C325.875 127.826 321.374 126.609 318.827 123.659C318.087 121.108 318.12 122.129 318.767 119.514C324.187 118.905 334.184 119.188 340.015 119.214C346.796 119.186 358.195 118.842 364.57 119.528C367.5 126.662 355.875 126.412 351.394 133.642C346.999 140.73 346.402 145.843 346.391 154.009L346.415 241.065C346.424 257.725 347.108 275.395 345.653 291.879C343.904 311.688 337.65 328.083 316.137 331.283C281.078 336.497 245.944 330.047 245.965 287.29C245.969 279.817 245.911 271.534 245.912 264L245.953 189.434C245.963 175.936 246.391 162.206 245.585 148.755C244.73 134.497 240.122 130.394 227.687 125.472C226.615 123.62 226.972 121.593 226.935 119.214Z" fill="#D8D3CB"/>
<path d="M1659.16 119.215C1677.21 119.194 1705.98 118.948 1725.11 119.442C1725.56 119.877 1725.95 120.25 1726.26 120.561C1727.37 125.536 1723.06 125.684 1719.44 127.479C1711.15 131.592 1707.92 141.696 1707.86 150.38C1707.53 196.119 1707.25 241.962 1708.05 287.692C1708.94 316.46 1720.32 322.15 1747.3 318.651C1767.78 315.996 1768.55 292.014 1768.61 276.03C1768.72 240.512 1768.63 204.918 1768.64 169.393C1768.62 159.128 1769.14 150.286 1767.04 140.255C1764.61 128.629 1753.08 127.722 1750.67 122.915C1750.39 121.242 1750.29 120.938 1751.01 119.428C1756.78 118.985 1766.06 119.226 1772.09 119.215C1775.31 119.242 1792.23 118.664 1793.49 119.521C1801.8 125.186 1785.34 128.549 1782.97 132.305C1778.35 139.645 1777.81 148.716 1777.8 157.121L1777.86 242.644C1777.89 277.154 1786.12 330.757 1739.87 332.241C1715.36 333.027 1686.14 332.186 1679.27 302.276C1675.66 286.592 1677.41 261.638 1677.4 245.242L1677.43 174.144C1677.43 163.568 1678.3 148.316 1675.17 138.41C1672.57 130.16 1666.78 128.57 1659.84 125.315C1658.82 123.795 1659.13 121.185 1659.16 119.215Z" fill="#D8D3CB"/>
<path d="M1929.09 119.215H2046.85C2046.88 131.76 2047.24 146.454 2046.73 158.799C2045.11 159.62 2041.86 159.376 2039.92 159.365C2037.01 132.042 2027.31 130.625 2003.09 130.503L2003.11 246.83L2003.07 280.045C2003.04 293.468 2001.46 303.23 2008.47 315.213C2015.36 323.556 2019.01 320.71 2021.07 322.744C2021.26 325.216 2021.1 325.856 2020.59 328.306C2015.52 329.876 1963.72 328.734 1955.06 328.722C1954.86 324.935 1954.32 323.026 1958.12 321.671C1966.31 318.749 1971.5 312.238 1972.1 303.039C1973.32 284.265 1972.71 264.72 1972.71 245.738L1972.73 130.499C1946.25 130.622 1940.45 132.284 1935.75 159.304L1929.09 159.367V119.215Z" fill="#D8D3CB"/>
<path d="M1454.24 119.214C1472.79 119.192 1500.53 118.861 1519.93 119.531C1520.59 119.553 1521.11 120.855 1521.48 121.528C1519.81 127.821 1508.3 126.62 1505.3 135.949C1501.17 148.74 1502.6 162.489 1502.65 175.826L1502.64 222.664L1502.62 272.963C1502.62 285.171 1501.15 301.351 1505.59 312.841C1508.2 319.574 1513.84 320.177 1519.83 322.41C1521.02 324.431 1520.62 326.136 1520.67 328.722C1499.19 328.733 1475.97 329.19 1454.62 328.542L1454.11 327.772C1454.15 322.781 1454.35 323.326 1459.27 321.44C1475.51 315.203 1472.28 292.924 1472.27 278.717L1472.25 237.153V183.88C1472.28 170.511 1473.38 152.046 1470.64 139.297C1468.23 128.123 1461.91 128.855 1455.08 124.992C1453.76 122.633 1454.22 122.185 1454.24 119.214Z" fill="#D8D3CB"/>
<path d="M977.498 403.664C983.878 402.957 995.394 403.064 1001.43 404.329C1031.12 410.556 1026.83 440.967 997.383 444.799C1020.82 453.861 1018.96 479.198 997.905 489.644C995.547 490.815 992.8 491.526 990.251 492.244C983.342 493.699 946.976 494.993 941.967 493.293L941.527 492.094C944.453 488.012 950.934 491.746 954.319 481.663C959.666 465.719 964.159 449.438 969.385 433.441C971.119 428.128 975.357 416.255 974.656 411.196C971.329 406.57 967.887 409.78 964.331 407.568C964.159 405.966 964.006 406.574 964.841 405.263C968.015 404.217 973.961 403.951 977.498 403.664ZM989.276 486.88C1011.26 473.328 1006.03 444.251 976.058 447.464C973.094 451.586 972.202 458.196 970.373 462.888C962.744 482.42 961.782 497.694 989.276 486.88ZM996.937 440.216C1019.05 428.873 1011.91 403.624 987.708 407.865C986.083 412.531 977.186 438.64 977.97 441.79C979.652 443.285 981.73 443.192 983.916 443.064C988.377 442.81 992.775 441.848 996.937 440.216Z" fill="#D8D3CB"/>
<path d="M1127.92 434.396C1130.06 434.507 1130.55 434.726 1132.54 435.423C1132.92 435.841 1133.39 436.354 1133.94 436.96C1132.5 444.144 1114.89 482.438 1116.14 487.345C1119.6 488.177 1128.42 479.726 1132.45 479.458C1131.93 484.545 1112.85 500.587 1106.49 493.395C1105.35 489.406 1109.74 480.473 1111.36 475.684L1110.88 474.925C1106.43 479.845 1078.72 508.183 1076.07 488.8C1074.07 474.159 1107.4 427.589 1123.95 443.251L1127.92 434.396ZM1094.43 485.684C1101.89 480.191 1125.14 456.623 1118.62 447.109C1115.75 444.912 1113.9 445.058 1110.37 445.521C1097.65 454.15 1090.72 467.337 1086.98 482.272C1086.57 483.917 1086.66 485.482 1087.3 487.062C1089.97 488.94 1091.87 487.253 1094.43 485.684Z" fill="#D8D3CB"/>
<path d="M789.702 403.429C799.753 403.267 813.723 403.387 823.723 403.654L824.29 404.452C823.984 409.093 813.813 406.41 812.423 410.042C806.98 424.313 788.651 472.513 789.371 485.503C791.755 491.926 819.338 490.125 824.469 484.979C826.495 482.947 833.207 474.318 835.31 475.34L835.437 476.895C833.034 482.774 830.217 488.477 827.012 493.962L765.286 493.66L764.738 492.264C767.613 488.591 775.77 491.061 778.205 481.197C780.729 470.994 801.525 415.668 798.657 409.434C797.134 407.736 793.603 407.415 791.124 406.827C789.454 405.24 789.887 406.006 789.702 403.429Z" fill="#D8D3CB"/>
<path d="M1255.96 437.817L1259.23 439.032C1263.64 444.452 1243.78 477.944 1245.1 485.203C1245.65 485.658 1246.41 486.51 1247.03 486.195C1259.59 479.867 1270.38 464.498 1277.54 452.791C1280.92 447.276 1282.06 442.906 1285.01 439.265C1287.3 438.461 1288.84 438.94 1290.48 440.55C1291.99 445.403 1275.9 476.949 1275.37 486.213C1279.18 489.41 1285.98 476.779 1291.16 476.721L1291.67 477.81C1291.16 480.097 1289.05 482.137 1287.47 483.966C1283.94 487.587 1270.02 499.596 1265.57 493.599C1264.33 488.012 1271.87 471.234 1274.36 464.78C1268.35 472.399 1246.84 498.662 1236.9 494.672C1228.58 486.454 1251.06 454.808 1248.36 446.915C1245.76 447.07 1238.2 454.453 1233.93 455.652L1233.37 455.048C1235.6 447.849 1249.06 440.118 1255.96 437.817Z" fill="#D8D3CB"/>
<path d="M886.099 437.961C893.874 438.582 897.392 445.729 893.479 452.052C887.59 461.554 872.084 465.87 861.804 468.798C860.663 472.858 859.235 481.855 860.72 485.621C864.156 494.358 877.769 482.687 881.854 481L882.523 481.533C882.326 483.822 881.886 484.117 880.274 485.791C875.201 491.178 862.524 500.029 855.431 493.903C844.175 483.777 853.009 463.771 860.593 454.09C867.221 445.63 875.334 439.306 886.099 437.961ZM866.616 463.738C873.072 461.194 889.152 452.11 886.596 443.795C884.958 442.339 884.646 442.321 882.473 442.127C876.278 445.291 864.583 456.884 864.258 463.862C865.195 464.256 865.628 464.012 866.616 463.738Z" fill="#D8D3CB"/>
<path d="M1048.88 437.873C1056.61 439.652 1053.82 447.414 1051.99 453.085C1050.15 458.789 1047.93 464.135 1046.33 469.961C1050.48 462.633 1063.57 435.455 1073.71 438.454C1079.25 442.171 1077 452.575 1071.57 454.492C1069.28 453.025 1069.12 447.418 1067.46 447.166C1063.23 446.526 1054.75 462.36 1053.5 464.46C1050.52 469.881 1040.11 492.517 1037.69 495.016C1035.76 495.613 1036 495.307 1033.73 494.718C1033.41 494.385 1033.02 493.978 1032.57 493.5C1032.77 485.333 1047.5 452.666 1046.07 446.906C1042.59 444.791 1037.32 452.314 1033.7 452.514C1033.73 450.78 1035.06 448.364 1035.98 446.922C1038.91 442.316 1043.55 439.061 1048.88 437.873Z" fill="#D8D3CB"/>
<path d="M1170.01 437.894C1175.21 438.684 1177.76 440.571 1179.12 446.366C1179.43 447.66 1178.82 448.317 1178.02 449.212C1171.42 451.138 1172.9 443.918 1165.02 444.706C1162.65 444.943 1162.44 445.135 1160.9 446.853C1157.98 455.611 1169.08 466.112 1169.41 475.493C1169.87 488.726 1160.73 494.507 1148.7 495.488C1142.39 494.686 1138.31 488.3 1142.73 483.596C1144.81 483.168 1146.38 483.375 1147.84 485.128C1153.01 491.339 1163.67 490.425 1161.84 480.501C1159.98 470.44 1148.38 460.291 1154.67 449.019C1157.95 443.151 1163.78 439.84 1170.01 437.894Z" fill="#D8D3CB"/>
<path d="M1213.04 437.947C1217.88 438.582 1223.9 443.296 1220.68 448.384C1217.28 453.504 1208.66 438.832 1203.92 446.587C1199.3 454.142 1211.45 466.222 1211.79 474.54C1212.39 489.293 1203.18 494.34 1190.44 495.592C1185.04 494.181 1180.99 489.254 1184.15 483.971C1190.24 482.577 1194.82 490.302 1199.65 489.031C1211.34 485.956 1197.7 467.454 1195.98 460.416C1194.88 456.051 1195.61 451.425 1198.01 447.615C1201.19 442.553 1207.29 439.267 1213.04 437.947Z" fill="#D8D3CB"/>
<path d="M1329.3 437.893C1334.9 438.82 1340.76 443.994 1337.26 449.237C1330.77 451.219 1332.17 443.784 1323.92 444.673C1321.67 444.915 1321.46 445.275 1320.12 446.874C1317.44 455.848 1328.18 465.802 1328.64 475.119C1329.32 488.863 1319.83 494.594 1307.49 495.509C1302.37 494.305 1299.12 490.691 1300.39 485.237C1305.8 478.997 1310.66 491.494 1316.22 489.086C1328.16 483.911 1315.27 468.856 1313.15 461.777C1309.25 448.822 1318.45 441.252 1329.3 437.893Z" fill="#D8D3CB"/>
</svg>
