<svg width="1409" height="888" viewBox="0 0 1409 888" fill="none" xmlns="http://www.w3.org/2000/svg">
<path d="M745.188 256.484C806.268 231.024 848.008 194.323 836.711 125.924C835.727 119.985 833.622 113.98 831.255 108.429C822.903 87.1684 807.974 71.7952 786.894 63.1087C782.876 61.4532 772.418 58.3422 768.043 58.0147C752.577 56.8566 733.533 56.507 718.191 57.3243C710.183 57.7513 694.304 61.6458 686.923 64.276C686.661 63.3546 686.419 62.2817 687.318 61.4404C695.887 53.4125 707.404 45.7771 715.804 37.5933C744.122 10.0102 755.941 20.408 782.098 43.1952L813.753 71.2869C818.651 75.5901 824.403 78.7204 829.226 82.8412C839.442 91.5727 848.324 101.629 857.715 111.213C864.568 118.206 872.693 124.482 878.603 132.335C880.77 135.216 881.774 139.795 882.366 143.278C887.443 172.366 882.634 201.105 872.514 228.556C869.59 237.499 865.641 249.225 859.793 256.737C845.331 275.326 826.673 293.484 803.344 299.834C791.352 303.098 779.773 307.75 767.176 307.463C763.819 307.386 760.22 307.542 756.822 307.522C755.012 307.511 751.93 307.362 750.265 307.535C745.064 307.011 741.707 306.803 736.657 305.327C729.048 302.544 721.26 301.362 712.935 297.9C669.549 278.736 647.419 238.384 644.419 192.439C644.133 188.061 648.104 171.462 648.893 166.285C651.463 153.676 656.132 140.752 663.323 130.046C680.616 104.303 719.051 85.8327 749.336 97.1923C763.482 102.497 779.677 122.298 784.383 136.277C787.444 145.358 788.683 155.038 792.57 164.526C796.526 139.53 789.969 131.723 776.65 111.397L781.225 107.877C805.855 134.071 806.316 165.216 790.457 195.289C788.077 199.8 787.038 203.676 783.908 207.998C782.16 209.066 779.216 209.175 777.062 209.442C776.134 204.873 775.803 198.583 774.895 194.804C772.136 183.385 765.965 165.937 759.202 156.349C746.812 162.893 745.958 166.72 736.973 176.538C743.344 186.982 745.209 190.291 749.089 201.74L746.791 206.018C743.619 201.757 736.788 194.114 734.607 190.733L733.76 191.419C733.286 196.355 739.244 204.287 740.881 209.311C746.103 225.364 744.906 239.924 745.188 256.484Z" fill="#D8D3CB"/>
<path d="M193.812 461.122C206.469 459.704 224.274 461.537 234.174 469.46C266.295 495.165 272.688 543.219 252.369 578.317C241.122 597.745 231.778 603.661 210.628 606.558C193.535 607.29 180.335 607.521 166.206 596.318C123.219 562.233 133.425 467.373 193.812 461.122ZM208.385 592.845C223.72 585.629 226.428 581.484 234.403 565.898C248.381 538.582 234.927 468.585 195.093 474.037C162.501 484.225 161.587 529.07 167.983 556.579C171.773 572.878 189.347 595.728 208.385 592.845Z" fill="#D8D3CB"/>
<path d="M923.143 571.065C926.06 563.74 930.168 555.246 932.527 547.915C940.9 521.87 947.299 495.123 955.85 469.148C959.38 458.438 966.542 462.704 975.616 461.115C976.572 476.725 966.115 495.743 961.609 510.898C958.368 521.788 955.19 532.724 951.832 543.577C946.686 558.505 932.892 591.767 932.782 606.323C926.845 606.58 920.515 607.615 915.41 604.825C910.182 599.036 906.226 577.717 903.666 569.167C899.497 555.247 895.734 541.137 890.409 527.477C888.558 522.428 887.34 514.315 885.572 508.836C881.823 522.724 879.078 530.665 873.498 546.764C869.48 558.362 862.552 594.606 855.425 605.566C854.001 607.753 842.078 605.562 838.142 604.823C837.977 597.717 836.12 592.168 833.725 585.531C821.328 551.222 813.526 515.623 798.748 482.214C796.505 477.151 794.84 467.345 794.744 461.862C802.491 461.896 815.48 460.572 820.956 465.551C826.116 477.47 829.804 497.759 833.602 510.731C837.193 523 841.83 534.046 845.6 546.196C848.483 555.473 849.535 563.935 852.659 573.206C856.271 552.452 864.602 529.383 869.879 508.709C871.565 502.118 875.252 494.7 876.745 488.415C878.287 484.232 878.899 480.733 879.642 476.402C880.935 471.205 882.16 462.671 888.73 462.636C890.54 463.46 892.672 464.632 893.25 466.703C900.784 493.86 911.468 519.88 917.619 547.45C919.518 555.942 922.194 562.052 923.143 571.065Z" fill="#D8D3CB"/>
<path d="M695.969 460.393C697.269 460.218 698.57 460.089 699.87 460.007C749.082 457.031 744.472 492.538 743.764 528.313C743.633 534.928 744.197 604.987 743.323 605.954C736.017 606.422 728.401 604.61 721.824 605.026C687.791 607.176 638.599 613.37 647.472 562.028C651.511 533.742 698.639 524.741 721.473 517.778C721.679 505.717 722.58 489.416 715.577 480.042C705.415 466.434 683.939 472.029 679.481 487.918C678.567 491.177 675.457 497.508 674.028 500.388C663.7 501.984 660.783 503.456 653.244 495.029C654.979 469.842 674.765 463.769 695.969 460.393ZM681.208 588.137C694.256 597.401 708.786 594.981 720.152 584.367C722.553 566.805 721.645 547.804 721.101 529.994L719.952 529.719C696.244 537.432 663.6 544.06 674.856 577.46C676.449 582.187 677.926 584.422 681.208 588.137Z" fill="#D8D3CB"/>
<path d="M1029.57 459.677C1039.85 459.027 1056.78 461.386 1064.14 468.523C1077.17 481.162 1074.98 508.52 1074.97 525.261L1074.9 575.246C1074.89 585.281 1074.6 596.875 1075.26 606.764C1069.04 606.765 1060.21 604.374 1055.81 604.583C1040.22 605.161 1024.02 608.387 1008.47 605.718C982.819 601.318 974.921 583.512 978.801 559.771C989.726 528.134 1030.13 528.409 1052.49 517.151C1053.11 502.192 1053.36 491.724 1047.04 478.119C1033.98 468.759 1023.13 470.509 1012.93 482.822C1002.73 495.126 1005.76 506.518 987.242 500.222C984.965 492.092 984.621 485.871 989.884 478.527C999.695 464.834 1014.07 462.338 1029.57 459.677ZM1013.26 589.165C1027.61 594.359 1041.99 596.653 1051.78 582.65C1052.64 575.79 1053.62 535.472 1051.52 531.315C1049.29 530.593 1048.45 530.862 1046.15 531.132C1023.58 538.614 993.159 546.325 1003.68 578.049C1005.53 583.635 1008.32 586.182 1013.26 589.165Z" fill="#D8D3CB"/>
<path d="M1304.99 399.486L1306.72 399.991C1309.04 404.347 1307.78 466.899 1308.72 478.137C1321.37 466.211 1327.6 461.591 1345.17 460.242C1395.86 456.33 1394 492.53 1394.84 530.399C1395.37 554.434 1393.64 582.469 1395.33 605.878C1386.7 606.382 1379.77 606.36 1371.18 606.231C1371.23 572.815 1372.36 531.836 1370.85 499.189C1369.16 493.634 1366.5 488.127 1362.35 484.003C1356.86 478.571 1349.45 475.524 1341.72 475.528C1333.1 475.616 1310.33 484.509 1309.02 494.174C1307.7 503.884 1308.09 517.221 1308.03 527.363C1307.91 553.668 1308.07 579.972 1308.49 606.273C1301.58 606.309 1294.67 606.242 1287.76 606.071C1287.89 582.509 1287.81 558.945 1287.53 535.384C1287.42 496.66 1287.67 457.538 1288 418.806C1288.06 412.179 1299.81 403.709 1304.99 399.486Z" fill="#D8D3CB"/>
<path d="M521.44 457.947L522.24 458.018C531.891 458.93 536.786 461.212 544.736 462.193C555.73 462.832 565.544 459.657 576.645 459.866C595.74 459.93 624.124 463.313 629.26 485.869C631.76 496.846 630.166 515.67 630.431 527.627C631.013 553.761 630.052 580.112 630.532 606.241C621.835 606.313 615.728 606.659 606.953 605.981C607.353 590.217 607.065 573.125 607.067 557.28C607.23 537.226 607.082 517.17 606.624 497.12C604.215 478.397 591.759 472.494 574.517 472.446C560.731 472.408 547.279 475.774 545.603 491.809C544.2 505.238 544.764 518.866 544.766 532.219L544.934 606.2C536.495 606.318 529.337 606.735 520.893 606.077C522.522 558.202 520.532 506.542 521.44 457.947Z" fill="#D8D3CB"/>
<path d="M73.4419 437.027C79.8636 436.106 96.4778 437.525 102.836 439.301C117.327 443.349 128.481 453.271 136.027 465.877L135.377 473.45C118.406 488.136 113.028 468.152 101.827 458.145C79.5052 438.091 49.4963 455.587 38.6819 479.053C35.2339 486.535 29.6454 507.158 30.4379 514.813C32.8901 538.5 37.2025 565.395 56.5317 581.564C65.2994 588.898 80.1072 593.173 90.9361 592.477C105.97 592.119 121.048 578.267 130.087 576.411C132.831 579.213 131.144 586.986 128.736 589.817C110.465 611.749 58.5684 611.999 37.6207 594.508C10.7837 572.1 5.19463 540.236 8.30451 507.016C11.2402 475.658 28.5326 448.897 59.6388 439.053C63.4089 437.86 69.5197 437.48 73.4419 437.027Z" fill="#D8D3CB"/>
<path d="M1016.9 682.274L1018.17 682.492C1019.18 685.03 1019.03 709.361 1019.08 713.585C1027.17 713.956 1071.5 712.587 1074.51 715.517C1074.14 722.974 1053.23 720.642 1047.24 720.614C1037.75 720.594 1028.26 720.752 1018.78 721.075L1018.87 735.437C1030.49 736.579 1044.79 735.389 1056.46 735.953C1057.05 735.981 1057.66 740.115 1057.96 741.394C1055.16 743.258 1024.51 742.818 1019.1 742.907C1018.9 746.979 1019.07 751.966 1019.11 756.107C1034.71 755.887 1050.31 755.99 1065.91 756.409C1068.93 756.519 1071.8 756.155 1073.8 758.301L1073.68 759.952C1069.17 763.384 1029.34 761.795 1020.99 761.754C1024.73 774.231 1033.53 785.244 1040.06 797.047C1041.94 794.791 1044.08 792.363 1045.72 789.942C1048.65 785.622 1049.05 778.971 1054.67 777.581C1058.9 778.42 1061.57 783.015 1064.19 786.496C1056.83 795.149 1053.72 796.043 1043.38 800.411C1060.85 813.019 1064.34 815.667 1084.8 818.831C1081.66 828.804 1072.46 839.989 1061.09 833.035C1035.29 817.242 1022.52 793.264 1013.96 765.2L1007.42 769.251C1004.37 771.913 1001.1 774.61 998.347 777.574C992.169 784.239 995.141 814.085 995.581 823.859C998.643 823.357 1001.34 822.683 1004.05 822.077C1007.99 821.204 1023.29 813.803 1025.71 814.484L1026.03 815.612C1024.5 820.612 1019.01 824.506 1014.58 826.94C1003.93 832.78 998.003 837.691 985.819 834.713C984.835 832.925 982.035 828.282 981.45 826.514C978.464 817.441 978.457 802.79 980.7 793.642C975.1 797.088 954.935 809.965 948.901 807.048C948.695 804.042 954.949 801.8 957.274 800.135C972.575 789.178 986.156 776.309 998.34 762.256C989.169 761.892 959.414 762.435 953.752 760.598C951.681 758.707 951.929 759.463 951.268 757.118C954.013 755.027 996.242 756.444 1003.85 756.52L1003.91 742.914C991.694 742.02 978.726 743.286 966.425 742.529C964.381 742.405 964.402 742.144 963.356 740.885C963.363 739.826 963.384 737.129 963.92 736.999C973.201 734.77 994.543 736.868 1003.71 735.004L1004.08 734.921L1003.78 720.49C988.653 720.8 973.366 720.264 958.224 720.669C954.447 720.766 951.117 719.177 951.433 714.967C956.69 712.594 993.277 714.403 1003.67 713.234C1005 698.039 999.668 688.726 1016.9 682.274Z" fill="#D8D3CB"/>
<path d="M1214.1 461.115C1223.86 460.221 1241.52 460.696 1249.9 466.406C1258.44 472.218 1274.77 489.597 1267.28 501.022C1265.37 503.935 1260 504.271 1256.72 504.741C1246.19 499.498 1245.49 493.015 1239.27 483.792C1231.48 471.831 1215.03 470.785 1204.13 479.227C1177.91 499.523 1180.03 546.731 1198.14 571.674C1211.22 589.688 1228.93 592.78 1246.48 579.037C1252.24 573.351 1260.92 557.47 1268.07 557.64C1275.99 562.907 1264.85 583.377 1261.17 589.104C1247.78 610.048 1207.56 612.455 1188.66 598.242C1158.18 575.318 1157.04 525.886 1170.8 493.378C1178.81 474.488 1193.6 463.706 1214.1 461.115Z" fill="#D8D3CB"/>
<path d="M864.127 727.775C864.114 723.607 864.045 719.273 864.045 715.105C864.038 698.384 859.759 690.164 878.754 684.605C878.954 698.549 878.885 712.883 879.201 726.75C886.7 727.197 908.847 726.372 910.168 731.909C911.874 739.049 910.291 766.837 911.42 775.58C898.823 774.479 891.915 772.87 879.009 773.344L879.016 833.276C874.055 833.248 869.019 833.152 864.066 833.406C864.093 814.326 864.63 792.095 863.921 773.22C855.589 773.042 835.638 776.213 831.613 774.582C831.221 772.168 831.462 770.669 831.682 768.282L832.17 767.608C833.202 769.355 833.691 770.387 834.503 772.257C835.287 770.916 835.108 769.974 835.094 768.412C831.971 760.131 829.811 736.882 834.757 729.605C840.426 726.434 857.557 727.218 864.127 727.775ZM879.346 765.585C883.838 765.599 888.799 765.654 893.243 765.221C896.834 763.591 896.153 757.593 896.277 753.679C896.587 744.09 898.933 732.322 884.967 734.234C882.614 734.371 881.286 734.055 879.538 735.183C878.541 741.882 879.194 757.916 879.346 765.585ZM847.746 764.107C853.14 765.303 855.012 765.716 860.467 765.551C863.027 764.953 862.346 765.51 863.618 763.728C864.698 757.104 864.052 741.807 863.907 734.447C860.626 734.523 855.287 734.481 852.198 734.915L848.682 735.52C846.721 738.347 847.568 759.312 847.746 764.107Z" fill="#D8D3CB"/>
<path d="M834.758 729.604C836.932 733.092 835.59 762.971 835.095 768.412C831.971 760.131 829.811 736.882 834.758 729.604Z" fill="#D8D3CB"/>
<path d="M390.489 436.515C394.373 433.089 408.493 422.821 412.983 420.929C414.339 432.172 413.166 450.328 414.26 463.572C421.012 463.484 432.94 462.231 439.106 464.013C441.152 464.606 441.652 467.287 442.134 469.015C433.863 471.532 416.65 467.936 413.651 473.158L413.714 476.079C411.94 506.884 413.836 541.07 414.183 572.093C414.283 581.009 418.711 587.298 424.971 593.269C431.691 594.858 433.751 594.968 440.587 593.904L445.214 598.719C444.012 600.838 443.047 603.073 442.031 605.291C435.228 606.272 428.071 606.591 421.123 606.634C409.349 607.437 390.516 596.266 390.443 583.056C390.248 547.345 388.953 509.004 390.817 473.401C386.018 473.423 376.849 473.479 372.461 472.146C371.244 470.231 370.929 466.81 372.166 464.832C376.326 461.383 385.392 462.585 390.806 462.953C389.728 454.901 390.086 444.631 390.489 436.515Z" fill="#D8D3CB"/>
<path d="M1124.01 422.012L1125.84 422.27C1128.57 425.015 1127.44 455.592 1128.36 463.347C1133.15 462.916 1153.52 461.992 1156.46 465.277C1157.3 467.869 1156.83 470.763 1156.62 473.523C1149.91 473.624 1137.51 474.284 1131.15 472.613C1129.97 472.304 1130.41 471.676 1128.33 472.219C1127.78 474.1 1127.63 478.39 1127.62 480.499C1127.54 507.639 1127.44 534.87 1127.63 562.001C1128.11 574.039 1126.78 580.545 1135.15 589.935C1143.25 599.035 1154.58 591.063 1159.96 596.608C1162.03 601.71 1158.32 603.666 1154.54 605.431C1134.57 609.256 1111 607.035 1106.26 583.368C1103.84 571.273 1104.89 554.544 1104.85 541.996C1104.78 518.524 1105.36 495.582 1104.08 472.105L1089.2 473.725C1087.89 471.645 1086.97 470.52 1086.62 468.04C1086.96 465.502 1088.32 464.653 1090.22 462.816C1095.57 462.957 1099.57 462.914 1104.93 462.623C1106.7 434.097 1100.54 442.26 1124.01 422.012Z" fill="#D8D3CB"/>
<path d="M282.674 457.229C291.825 457.923 292.662 458.004 300.578 462.46C321.044 460.413 339.03 456.65 358.15 466.392C361.638 480.184 361.757 482.16 348.482 486.088C347.954 485.878 347.506 485.691 346.985 485.451L346.329 485.144C337.903 481.269 335.063 471.188 321.186 471.91C313.508 472.309 307.238 475.528 306.306 483.954C304.42 501.012 305.157 519.136 305.177 536.342L305.269 580.064C305.289 586.233 304.991 600.48 306.163 605.992C297.875 606.669 291.056 606.402 282.775 606.007L282.674 457.229Z" fill="#D8D3CB"/>
<path d="M477.2 461.823C480.664 461.614 484.63 461.428 487.688 463.265C490.224 466.258 489.151 497.68 489.133 503.485L489.124 573.979C489.138 581.517 488.76 599.837 490.088 606.135L479.808 606.516C475.079 606.636 469.136 606.239 464.307 606.04C466.039 569.123 464.356 531.713 465.071 494.732C465.267 484.599 465.379 473.946 464.878 463.855C470.122 462.434 471.692 462.212 477.2 461.823Z" fill="#D8D3CB"/>
<path d="M616.703 754.367C630.043 754.346 643.736 755 657.032 754.938C664.498 754.896 689.199 752.283 692.852 759.305C696.471 766.253 694.833 789.625 694.29 798.113C691.531 797.178 687.909 796.579 684.987 796.002C676.057 794.777 668.802 792.163 659.362 792.157C647.017 792.157 633.997 790.293 621.825 793.016C617.943 793.883 613.878 796.607 609.956 794.908C607.721 792.315 609.069 765.709 608.851 759.429C612.032 757.82 613.805 756.471 616.703 754.367ZM624.542 762.401C623.452 769.527 622.948 775.703 623.289 782.933C637.439 784.927 651.174 783.676 665.47 784.006C669.693 784.075 675.196 784.941 678.044 782.279C679.344 778.242 680.731 762.972 674.893 762.511C663.65 761.63 649.077 760.791 637.875 761.747C633.652 761.94 628.691 762.043 624.542 762.401Z" fill="#D8D3CB"/>
<path d="M404.347 760.86C431.766 759.918 459.156 760.984 486.641 760.942C500.485 760.929 523.883 759.402 536.979 760.908C538.379 762.538 540.361 764.719 541.627 766.37C541.226 784.48 542.388 806.195 540.327 823.976C539.969 827.071 537.099 831.281 534.98 833.654C523.934 837.444 514.313 833.723 504.463 828.117C501.842 826.624 501.719 824.898 502.192 822.353C506.666 820.723 520.036 831.597 522.503 823.653C525.86 812.84 524.699 786.221 524.186 775.091C523.089 773.303 521.802 770.724 520.158 769.644C518.192 767.126 517.542 766.947 514.623 766.06C510.71 765.001 438.977 765.166 434.056 766.211C431.633 766.363 428.1 766.459 425.846 766.961C423.064 766.789 423.62 766.37 421.988 767.697C418.708 783.194 418.927 816.953 420.944 832.698C415.677 832.918 408.886 833.014 403.754 833.482L403.795 788.951C403.811 780.209 403.573 769.417 404.347 760.86Z" fill="#D8D3CB"/>
<path d="M504.127 715.022L510.994 716.446C512.349 717.966 513.999 719.734 515.281 721.268C515.953 732.053 516.015 746.119 515.73 757.029C503.754 751.863 489.578 751.168 476.715 751.952C460.883 752.922 440.941 748.795 427.458 757.943C426.681 750.817 425.137 726.86 428.279 721.165L430.119 719.975C435.613 719.528 442.401 712.512 450.034 716.604L446.943 717.787L446.795 718.62C452.733 720.394 491.649 719.693 498.801 717.148L500.211 717.526L501.208 715.641L504.127 715.022ZM441.995 724.102C441.523 731.386 441.532 736.4 441.768 743.719C451.429 742.35 459.747 742.398 469.437 742.921C475.716 743.258 482.041 742.206 488.329 743.038C489.838 743.402 494.125 744.53 495.411 744.31C502.353 743.12 500.101 729.446 499.82 724.542C486.099 723.572 464.81 723.276 450.991 723.971L441.995 724.102Z" fill="#D8D3CB"/>
<path d="M813.236 335.202C813.945 336.974 814.481 338.761 815.706 340.182C806.39 349.016 795.617 357.16 785.627 365.597C775.383 374.253 757.605 391.266 743.44 390.754C727.003 390.159 711.854 371.628 698.817 363.184C694.95 360.669 688.27 355.854 686.496 351.75L686.698 350.155C688.91 349.278 695.913 352.67 699.58 352.594C708.387 352.411 720.131 354.934 728.703 354.322C740.034 353.511 758.885 353.733 769.377 350.612C775.19 349.972 783.322 347.045 789.115 345.129C799.05 342.311 803.962 339.695 813.236 335.202Z" fill="#D8D3CB"/>
<path d="M454.208 774.727C467.773 775.208 482.176 774.699 495.859 774.919C497.964 774.919 504.906 774.685 505.274 776.488C507.217 786 506.65 806.862 505.986 816.004C503.596 815.715 487.175 812.441 484.931 811.492C475.599 807.53 440.647 817.662 436.705 814.78C435.127 807.014 437.704 792.954 436.562 784.356C434.954 772.264 446.202 774.651 454.208 774.727ZM491.147 802.639C491.33 798.381 492.648 787.548 490.324 783.944C489.955 783.373 487.221 781.502 486.482 781.007C478.904 780.291 459.344 778.558 453.31 783.022C451.409 786.104 451.067 800.142 452.621 802.804C453.734 803.341 454.416 803.712 455.628 804.056C462.486 804.668 484.794 804.964 491.147 802.639Z" fill="#D8D3CB"/>
<path d="M455.629 804.056C462.487 804.668 484.795 804.964 491.148 802.639C490.396 805.308 486.901 807.179 484.518 808.678C476.253 809.249 464.783 809.793 457.014 807.089C455.841 805.796 455.947 805.721 455.629 804.056Z" fill="#D8D3CB"/>
<path d="M661.364 701.362C660 694.256 658.387 695.46 658.029 685.55L658.743 685.332C661.227 688.451 666.337 697.338 669.153 701.52C671.162 703.563 671.367 704.491 673.772 704.98C679.956 700.495 684.544 692.09 687.272 685.127L687.583 684.32C695.316 689.18 696.458 690.466 701.734 697.971C689.825 704.347 689.784 708.068 674.384 710.269C679.386 717.76 680.756 717.884 686.628 724.109C690.204 721.639 691.222 720.896 694.428 717.98C698.783 714.025 702.553 701.713 707.101 701.609C711.098 703.817 720.785 713.186 717.118 718.076C712.254 724.556 699.106 727.355 691.38 729.57C699.898 736.875 721.129 748.107 725.979 754.009C722.89 756.905 714.992 764.388 711.167 763.308C692.109 757.923 664.845 717.849 661.364 701.362Z" fill="#D8D3CB"/>
<path d="M661.364 701.362C660 694.256 658.387 695.46 658.029 685.551L658.743 685.332C661.227 688.451 666.337 697.338 669.153 701.52C665.198 700.647 665.562 697.847 664.183 697.372C661.522 700.385 665.096 699.016 661.364 701.362Z" fill="#D8D3CB"/>
<path d="M592.922 155.394C594.725 152.368 599.098 150.183 602.177 148.478C594.073 160.839 591.538 162.727 590.424 177.568C586.894 198.966 586.232 214.181 589.678 236.093C590.077 238.623 590.49 247.037 591.082 248.863C592.521 253.299 595.343 257.854 596.798 262.87L595.907 263.792C589.709 263.182 578.065 245.126 574.129 240.132C567.7 231.975 560.327 225.727 558.409 215.002C557.645 210.807 558.027 206.484 559.515 202.488C563.854 190.495 584.681 166.954 592.922 155.394Z" fill="#D8D3CB"/>
<path d="M592.92 155.394C594.724 152.368 599.096 150.183 602.175 148.478C594.071 160.839 591.536 162.727 590.422 177.568C588.731 166.608 590.911 166.544 593.97 156.964L592.92 155.394Z" fill="#D8D3CB"/>
<path d="M901.588 159.872C905.592 160.403 908.97 165.037 910.456 168.521C915.623 180.611 937.164 200.486 928.055 214.505C918.134 229.774 906.7 244.742 894.75 258.459C889.968 265.905 887.966 269.246 879.992 272.707C894.839 244.752 900.006 219.968 902.173 188.754C902.51 183.9 900.102 162.153 901.588 159.872Z" fill="#D8D3CB"/>
<path d="M632.83 692.475C620.433 691.037 610.132 691.711 597.848 691.12C595.826 691.024 594.443 690.012 593.22 688.458L593.611 687.347C599.471 683.944 627.878 686.313 636.517 685.469C639.51 685.176 647.594 685.765 650.038 688.19C652.638 702.504 630.406 729.267 631.324 733.037C633.584 734.371 635.908 733.945 638.642 733.862L638.585 735.513L636.779 736.799L636.762 737.817C641.441 741.043 673.117 736.118 675.158 739.867C668.262 744.565 653.191 737.769 643.643 742.268C637.561 742.378 628.799 742.261 622.937 742.77C613.63 749.18 604.533 755.515 594.75 761.197C593.797 759.305 593.228 758.968 591.631 757.503C616.166 736.008 626.583 724.968 632.83 692.475Z" fill="#D8D3CB"/>
<path d="M790.024 741.924C792.164 740.809 795.521 739.833 797.874 740.142C803.894 740.947 825.222 736.696 826.109 745.452C822.614 748.603 811.833 745.122 808.139 747.523L806.962 746.243C804.967 746.25 805.752 745.975 804.094 747.523C802.986 750.446 802.215 763.584 803.674 766.28C804.341 773.406 801.197 804.166 804.155 808.472C805.05 808.541 807.678 808.692 808.393 808.878C812.762 810.02 822.27 803.231 826.274 805.92C825.297 811.21 803.364 824.127 798.067 827.477C791.235 831.797 788.036 823.687 785.938 819.12L792.157 816.582C793.237 804.318 792.625 785.189 792.46 772.574C792.618 770.985 792.515 768.055 792.515 766.356C792.79 760.819 792.584 753.431 792.597 747.75L785.965 745.666C787.699 743.478 787.644 742.845 790.024 741.924Z" fill="#D8D3CB"/>
<path d="M785.964 745.665C783.219 748.651 771.069 757.249 767.059 757.765L766.212 756.712C766.082 751.877 775.934 743.705 779.435 734.316C785.283 722.086 781.045 709.045 783.852 696.643C784.987 691.656 793.601 684.949 798.885 686.859C799.607 689.338 799.188 708.729 799.497 713.213C807.134 719.507 811.64 718.888 820.405 722.554C823.742 723.95 826.418 726.97 824.457 730.677C822.593 729.68 803.254 723.675 799.821 722.602C796.807 728.456 792.899 734.681 789.666 740.837L790.024 741.924C787.643 742.845 787.698 743.478 785.964 745.665Z" fill="#D8D3CB"/>
<path d="M476.122 699.739L480.649 700.289C479.436 701.664 478.671 701.988 478.566 703.432C488.28 702.277 500.146 703.081 510.135 703.109C517.677 703.136 535.963 701.334 541.694 705.014C542.709 706.988 542.628 705.998 541.977 708.096C538.673 710.847 502.05 709.375 494.979 709.244C466.537 708.722 438.207 710.001 409.787 709.781C406.907 709.76 402.409 708.887 400.256 706.899C401.155 697.902 466.473 708.089 476.122 699.739Z" fill="#D8D3CB"/>
<path d="M636.09 824.836C635.511 825.015 648.247 825.888 649.066 825.902C671.626 826.273 694.29 826.053 716.795 826.218C718.92 826.239 721.143 829.21 720.076 831.934C716.244 833.771 674.857 832.312 667.177 832.519L610.443 832.656C604.747 832.691 586.856 834.603 583.584 830.882C583.087 829.018 583.12 828.956 583.74 827.064C586.729 825.352 601.027 826.232 605.496 826.253C616.413 826.301 625.175 827.064 636.09 824.836Z" fill="#D8D3CB"/>
<path d="M592.498 194.442L593.159 197.641L593.961 197.872C595.406 193.671 595.047 189.071 596.57 184.419L597.251 184.207C599.706 189.771 596.256 191.527 598.392 197.065L598.42 197.599C599.336 217.981 598.91 233.377 607.794 252.51C608.698 254.455 612.794 264.575 613.048 266.221C610.288 273.871 619.93 279.611 615.333 283.725C614.304 282.209 613.56 280.951 612.21 279.684L610.821 279.434C607.012 275.478 607.053 270.578 605.102 266.197C594.383 242.118 590.363 220.695 592.498 194.442Z" fill="#D8D3CB"/>
<path d="M493.307 766.335C500.618 765.984 507.558 766.307 514.623 766.06C517.542 766.947 518.192 767.126 520.158 769.644L519.427 770.531L519.811 772.863L518.997 773.695C513.573 771.934 515.525 768.178 507.806 770.042C506.363 771.287 506.633 772.869 505.924 773.55C504.821 774.617 490.806 773.605 487.964 774.011C490.618 774.355 494.354 773.784 495.86 774.919C482.177 774.699 467.774 775.208 454.209 774.727L455.669 774.321C454.439 773.041 445.169 774.197 443.059 773.867C442.624 773.798 441.745 770.448 439.792 770.311C435.376 770.001 427.374 771.294 423.665 769.802L423.299 768.694L425.348 768.13L425.846 766.961C428.1 766.459 431.632 766.362 434.056 766.211C438.593 766.232 448.162 765.661 451.931 766.679C452.551 767.938 452.959 769.43 453.998 769.857C460.078 772.34 468.511 771.129 474.121 772.065L473.82 772.25C483.143 772.333 486.125 771.721 493.307 766.335Z" fill="#D8D3CB"/>
<path d="M455.285 678.123C469.602 678.324 480.549 680.004 489.205 692.963C484.447 695.364 483.31 695.694 480.648 700.289L476.122 699.739C468.702 690.693 460.999 689.387 455.285 678.123Z" fill="#D8D3CB"/>
<path d="M587.041 704.237C595.325 706.046 613.152 717.588 613.919 726.654C612.96 729.102 613.046 728.469 610.395 730.141C608.204 731.441 604.12 734.082 601.878 734.646C600.197 733.023 588.149 707.456 587.041 704.237Z" fill="#D8D3CB"/>
<path d="M672.35 799.647C676.203 800.108 682.667 800.087 684.99 803.595C688.765 809.291 679.208 815.412 675.291 818.019C672.465 819.87 667.753 823.336 664.435 821.589C663.711 817.228 669.525 811.285 670.931 807.138C671.544 805.329 672.069 801.573 672.35 799.647Z" fill="#D8D3CB"/>
<path d="M614.484 798.361C621.318 799.819 637.091 808.046 637.794 815.632C636.708 817.875 636.506 817.448 634.005 818.783L632.66 821.108C630.48 822.889 627.273 823.116 624.41 823.632C624.444 809.132 620.975 810.315 614.484 798.361Z" fill="#D8D3CB"/>
<path d="M434.057 766.211C438.977 765.166 510.71 765.001 514.623 766.06C507.559 766.308 500.618 765.984 493.308 766.335C486.126 771.721 483.143 772.333 473.82 772.25L474.121 772.065C468.512 771.129 460.078 772.34 453.999 769.857C452.96 769.43 452.552 767.938 451.931 766.679C448.162 765.661 438.593 766.232 434.057 766.211Z" fill="#D8D3CB"/>
<path d="M807.856 765.62L808.379 765.716L809.92 766.596L809.762 766.954C808.42 769.96 808.014 770.964 808.131 774.238C808.331 785.911 807.815 797.061 808.393 808.878C807.677 808.692 805.049 808.541 804.155 808.472C801.196 804.166 804.34 773.406 803.673 766.28C805.992 766.363 806.322 766.796 807.856 765.62Z" fill="#D8D3CB"/>
<path d="M638.644 733.862C645.25 734.729 667.112 735.644 673.519 735.004C675.557 737.487 677.438 739.86 679.723 742.116C668.641 742.639 654.822 742.646 643.645 742.268C653.193 737.769 668.264 744.565 675.16 739.867C673.118 736.118 641.443 741.043 636.764 737.817L636.78 736.799L638.586 735.513L638.644 733.862Z" fill="#D8D3CB"/>
<path d="M792.459 772.574C788.117 774.066 775.025 775.683 771.551 772.189C771.055 769.685 771 770.73 771.957 768.172C775.974 764.561 786.783 766.129 792.514 766.356C792.514 768.055 792.617 770.985 792.459 772.574Z" fill="#D8D3CB"/>
<path d="M430.119 719.975C439.657 711.748 455.145 714.19 467.293 713.977C479.034 713.764 492.604 713.626 504.127 715.022L501.209 715.641L500.212 717.526L498.802 717.148C485.655 715.497 464.038 716.838 450.034 716.604C442.402 712.512 435.613 719.528 430.119 719.975Z" fill="#D8D3CB"/>
<path d="M808.38 765.716L827.43 766.184L826.543 774.486C820.723 774.266 813.843 773.846 808.132 774.238C808.015 770.964 808.421 769.96 809.763 766.954L809.921 766.596L808.38 765.716Z" fill="#D8D3CB"/>
<path d="M450.034 716.604C464.037 716.838 485.655 715.497 498.801 717.148C491.65 719.693 452.733 720.394 446.795 718.62L446.943 717.787L450.034 716.604Z" fill="#D8D3CB"/>
<path d="M613.05 266.22C618.195 282.119 624.174 287.017 628.813 300.427C623.336 296.497 613.47 285.563 610.822 279.434L612.211 279.684C613.561 280.951 614.306 282.209 615.335 283.725C619.931 279.611 610.29 273.871 613.05 266.22Z" fill="#D8D3CB"/>
<path d="M803.673 766.28C802.214 763.584 802.985 750.446 804.092 747.523C805.75 745.975 804.966 746.25 806.961 746.243L808.138 747.523C808.158 751.175 808.434 762.655 807.856 765.62C806.321 766.796 805.991 766.363 803.673 766.28Z" fill="#D8D3CB"/>
<path d="M413.715 476.079L413.652 473.158C416.651 467.936 433.864 471.532 442.135 469.015C441.698 470.765 441.825 471.864 440.49 472.637C434.762 475.951 417.572 471.531 414.045 474.29L413.715 476.079Z" fill="#D8D3CB"/>
<path d="M749.089 201.74C752.095 208.126 753.368 222.39 751.311 228.594L750.231 229.483L749.178 228.917C749.02 223.013 748.745 211.634 746.791 206.018L749.089 201.74Z" fill="#D8D3CB"/>
<path d="M776.649 111.397C773.574 107.467 767.148 100.061 766.254 95.168C768.971 94.8702 778.782 105.431 781.225 107.877L776.649 111.397Z" fill="#D8D3CB"/>
<path d="M591.632 757.503C593.23 758.968 593.798 759.305 594.752 761.197C591.122 763.804 586.585 768.055 582.265 768.233L581.496 766.995C583.44 762.125 587.471 759.862 591.632 757.503Z" fill="#D8D3CB"/>
<path d="M592.498 194.442C593.121 189.035 596.456 180.314 597.781 173.197C599.993 180.974 600.203 189.184 598.393 197.064C596.257 191.527 599.707 189.77 597.251 184.207L596.57 184.419C595.047 189.071 595.406 193.671 593.961 197.872L593.159 197.641L592.498 194.442Z" fill="#D8D3CB"/>
<path d="M813.236 335.203C817.275 333.056 820.515 331.078 825.022 330.104L825.909 330.446C823.577 334.907 818.21 336.945 815.706 340.182C814.482 338.761 813.945 336.974 813.236 335.203Z" fill="#D8D3CB"/>
</svg>
