<svg width="1029" height="597" viewBox="0 0 1029 597" fill="none" xmlns="http://www.w3.org/2000/svg">
<path d="M92.8222 319.727H112.713V356.873H42.433V319.727H62.3235V297.173H0V319.727H19.8905V431.167H0V453.72H62.3235V431.167H42.433V379.427H112.713V431.167H92.8222V453.72H155.146V431.167H135.255V319.727H155.146V297.173H92.8222M846.008 429.84H785.01V378.1H838.052V355.547H785.01V318.4H847.334V339.627H868.55V295.847H741.251V318.4H762.468V429.84H741.251V452.393H868.55V400.653H846.008M312.943 400.653H290.401V429.84H229.403V378.1H282.445V355.547H229.403V318.4H291.727V339.627H312.943V295.847H185.644V318.4H206.861V429.84H185.644V452.393H312.943M790.314 289.213H835.399L823.465 275.947H777.054M991.871 363.507C975.959 359.527 965.35 359.527 949.438 354.22C934.852 348.913 932.2 340.953 932.2 334.32C932.2 329.013 938.83 313.093 961.372 313.093C983.915 313.093 998.501 327.687 999.827 340.953H1021.04V295.847H999.827V305.133V307.787C999.827 307.787 998.501 306.46 997.175 303.807C990.545 297.173 977.285 291.867 958.72 291.867C936.178 291.867 908.331 306.46 908.331 334.32C908.331 360.853 928.222 370.14 944.134 375.447C960.046 379.427 969.329 379.427 982.589 383.407C995.849 387.387 1005.13 395.347 1005.13 407.287C1005.13 419.227 998.501 433.82 969.329 433.82C940.156 433.82 928.222 417.9 925.57 395.347H904.353V449.74H925.57V439.127L924.244 436.473C924.244 436.473 925.57 437.8 926.896 440.453C937.504 448.413 952.09 453.72 970.655 453.72C990.545 453.72 1026.35 443.107 1026.35 405.96C1029 382.08 1015.74 370.14 991.871 363.507ZM648.429 429.84V452.393H712.079V429.84H690.862V318.4H712.079V295.847H655.059L617.93 386.06L616.604 390.04L615.278 386.06L578.149 295.847H521.13V318.4H542.347V429.84H521.13V452.393H584.78V429.84H564.889V327.687V321.053L566.215 326.36L609.974 429.84H623.235L666.994 326.36L668.32 321.053V327.687V431.167M216.143 232.167V237.473H237.36C234.707 236.147 233.381 234.82 230.729 232.167H216.143ZM790.314 232.167H779.706C777.054 232.167 774.402 234.82 774.402 237.473H791.64L790.314 232.167ZM216.143 252.067H790.314V241.453H420.352C411.07 245.433 399.135 245.433 389.853 241.453H278.466C267.858 246.76 255.924 245.433 245.316 241.453H216.143V252.067ZM377.919 232.167H291.727C291.727 232.167 287.749 236.147 286.423 237.473H384.549C380.571 234.82 379.245 233.493 377.919 232.167Z" fill="#1a1715"/>
<path d="M225.421 192.367C224.095 196.347 224.095 199 224.095 202.98C224.095 222.88 241.333 240.127 262.549 238.8C282.44 238.8 298.352 222.88 298.352 202.98C298.352 199 297.026 195.02 295.7 191.04C299.678 189.713 303.656 189.713 307.634 188.387C308.961 188.387 308.961 187.06 307.634 187.06C302.33 185.733 295.7 184.407 290.396 183.08C283.766 173.793 271.832 167.16 259.897 167.16C254.593 167.16 250.615 168.487 246.637 169.813C245.311 167.16 245.311 163.18 246.637 159.2C250.615 152.567 258.571 151.24 265.201 149.913C267.854 149.913 273.158 149.913 273.158 151.24C274.484 152.567 277.136 152.567 279.788 151.24C282.44 152.567 282.44 152.567 285.092 153.893C308.961 161.853 335.481 165.833 360.676 161.853C364.654 165.833 367.306 172.467 369.958 177.773C371.284 179.1 371.284 176.447 384.544 176.447C388.522 176.447 395.153 176.447 399.131 176.447C388.522 177.773 380.566 183.08 375.262 191.04C367.306 193.693 360.676 196.347 358.024 197.673C358.024 197.673 358.024 199 360.676 199C364.654 200.327 368.632 200.327 372.61 201.653C372.61 202.98 372.61 205.633 372.61 206.96C372.61 225.533 387.196 240.127 405.761 240.127C424.325 240.127 438.912 225.533 438.912 206.96C438.912 201.653 437.586 196.347 434.933 191.04C438.912 189.713 442.89 188.387 448.194 185.733C452.172 187.06 454.824 189.713 456.15 192.367C458.802 195.02 462.78 193.693 465.432 193.693C469.41 192.367 470.736 188.387 470.736 184.407C470.736 183.08 470.736 180.427 472.062 179.1C477.366 167.16 498.583 165.833 509.191 163.18C509.191 163.18 503.887 169.813 499.909 171.14C498.583 188.387 491.953 204.307 491.953 221.553C497.257 221.553 497.257 228.187 498.583 230.84C497.257 233.493 494.605 230.84 491.953 232.167C483.997 228.187 493.279 220.227 487.975 214.92C490.627 200.327 497.257 187.06 495.931 172.467C493.279 172.467 493.279 175.12 491.953 176.447C490.627 191.04 486.649 204.307 482.671 216.247C483.997 217.573 486.649 217.573 486.649 220.227C481.345 222.88 486.649 228.187 485.323 232.167H434.933L429.629 237.473H507.865L509.191 234.82C497.257 222.88 502.561 204.307 507.865 191.04L521.125 172.467C531.734 168.487 539.69 153.893 550.298 149.913C550.298 155.22 543.668 157.873 539.69 161.853C535.712 171.14 522.452 172.467 521.125 183.08C526.43 188.387 533.06 192.367 539.69 197.673C546.32 201.653 543.668 209.613 548.972 213.593C550.298 214.92 548.972 216.247 547.646 217.573C542.342 218.9 542.342 222.88 546.32 225.533C548.972 226.86 550.298 229.513 550.298 230.84H514.495C514.495 232.167 515.821 233.493 517.147 236.147H716.052C717.378 233.493 714.726 229.513 713.4 226.86C698.814 221.553 698.814 208.287 698.814 193.693C698.814 193.693 697.488 192.367 698.814 188.387C696.162 187.06 686.879 163.18 692.184 144.607L694.836 137.973C697.488 133.993 694.836 131.34 696.162 127.36L738.595 119.4C739.921 119.4 738.595 116.747 738.595 116.747L725.334 119.4C714.726 115.42 700.14 106.133 690.857 92.8667C693.51 71.64 692.183 55.72 690.857 43.78C697.488 38.4733 701.466 34.4933 701.466 34.4933C705.444 37.1467 706.77 35.82 706.77 34.4933C705.444 33.1667 700.14 30.5133 701.466 27.86C705.444 29.1867 706.77 27.86 706.77 25.2067L698.814 26.5333V25.2067C700.14 23.88 702.792 25.2067 705.444 25.2067C708.096 23.88 705.444 21.2267 705.444 19.9C700.14 13.2667 689.531 13.2667 682.901 9.28667C681.575 5.30667 680.249 3.98 677.597 2.65333C676.271 0 666.989 0 664.337 0C663.011 0 659.033 3.98 659.033 3.98C653.729 5.30667 649.75 2.65333 644.446 0C644.446 0 645.772 5.30667 651.077 7.96C647.098 9.28667 644.446 13.2667 643.12 18.5733C637.816 19.9 636.49 26.5333 637.816 29.1867C632.512 31.84 632.512 35.82 635.164 41.1267C631.186 43.78 631.186 49.0867 632.512 51.74C628.534 54.3933 632.512 61.0267 632.512 65.0067C643.12 62.3533 657.707 87.56 677.597 90.2133C681.575 72.9667 676.271 63.68 672.293 55.72C676.271 53.0667 678.923 50.4133 682.901 47.76C685.553 58.3733 686.879 75.62 684.227 92.8667C682.901 92.8667 681.575 91.54 680.249 91.54C680.249 91.54 682.901 95.52 682.901 96.8467C682.901 96.8467 676.271 100.827 663.011 95.52C659.033 103.48 615.274 123.38 615.274 123.38C616.6 135.32 623.23 143.28 628.534 149.913C637.816 156.547 648.424 160.527 660.359 163.18C663.011 169.813 670.967 191.04 672.293 195.02C673.619 199 674.945 199 674.945 199C676.271 200.327 680.249 206.96 680.249 210.94L681.575 222.88C681.575 225.533 685.553 222.88 685.553 225.533L684.227 233.493H551.624C552.95 224.207 548.972 216.247 551.624 208.287C546.32 199 531.734 192.367 534.386 180.427C541.016 171.14 563.558 161.853 558.254 149.913C578.145 139.3 588.753 156.547 607.317 155.22C613.948 155.22 620.578 153.893 627.208 152.567C619.252 145.933 612.622 136.647 608.644 128.687C568.863 144.607 531.734 157.873 487.975 165.833L485.323 164.507C482.671 164.507 434.933 175.12 422.999 180.427C420.347 179.1 416.369 176.447 412.391 176.447H413.717C417.695 176.447 424.325 173.793 428.303 172.467C446.868 165.833 453.498 139.3 461.454 123.38C468.084 148.587 485.323 151.24 494.605 148.587L495.931 156.547C495.931 156.547 503.887 156.547 510.517 153.893C510.517 152.567 509.191 148.587 507.865 143.28C511.843 141.953 513.169 139.3 515.821 139.3C515.821 145.933 517.147 151.24 514.495 153.893L535.712 148.587C539.69 130.013 551.624 103.48 571.515 84.9067C544.994 74.2933 525.104 86.2333 519.799 91.54C494.605 99.5 493.279 133.993 494.605 147.26C490.627 148.587 472.062 153.893 462.78 122.053C466.758 106.133 476.04 92.8667 487.975 82.2533C489.301 80.9267 487.975 79.6 485.323 80.9267C464.106 95.52 456.15 122.053 444.216 144.607C434.933 157.873 422.999 165.833 404.435 164.507C381.892 164.507 369.958 140.627 359.35 124.707C343.437 88.8867 301.004 102.153 269.18 94.1933C267.854 92.8667 263.875 83.58 258.571 83.58C254.593 83.58 258.571 87.56 255.919 88.8867C251.941 87.56 249.289 84.9067 243.985 84.9067C241.333 84.9067 240.007 88.8867 240.007 91.54C242.659 103.48 254.593 107.46 263.875 111.44C267.854 116.747 266.528 133.993 262.549 140.627C258.571 147.26 243.985 144.607 241.333 160.527C241.333 163.18 241.333 167.16 242.659 168.487C237.355 171.14 232.051 176.447 228.073 181.753C221.442 183.08 216.138 184.407 209.508 187.06C208.182 187.06 208.182 188.387 209.508 188.387C216.138 191.04 221.442 191.04 225.421 192.367ZM689.531 103.48C694.836 108.787 708.096 118.073 716.052 120.727L692.184 124.707C694.836 115.42 685.553 111.44 689.531 103.48ZM692.184 22.5533C693.51 22.5533 696.162 22.5533 696.162 23.88C696.162 23.88 696.162 25.2067 696.162 26.5333C694.836 26.5333 692.184 26.5333 692.184 25.2067C690.857 23.88 690.857 22.5533 692.184 22.5533ZM692.184 27.86C692.184 29.1867 693.51 31.84 694.836 33.1667C694.836 34.4933 690.857 38.4733 685.553 42.4533C684.227 35.82 682.901 31.84 682.901 30.5133C682.901 29.1867 689.531 27.86 692.184 27.86ZM669.641 6.63333C670.967 6.63333 672.293 6.63333 672.293 6.63333C672.293 6.63333 672.293 7.96 672.293 9.28667L669.641 10.6133C669.641 10.6133 666.989 9.28667 666.989 7.96C668.315 7.96 668.315 6.63333 669.641 6.63333ZM672.293 53.0667C669.641 47.76 666.989 41.1267 668.315 33.1667C670.967 33.1667 674.945 34.4933 680.249 33.1667C680.249 33.1667 681.575 38.4733 682.901 46.4333C678.923 47.76 674.945 50.4133 672.293 53.0667ZM636.49 151.24C628.534 147.26 633.838 149.913 635.164 148.587C648.425 155.22 655.055 153.893 665.663 152.567C666.989 153.893 669.641 156.547 669.641 159.2C656.381 161.853 647.098 157.873 636.49 151.24ZM684.227 217.573C682.901 210.94 682.901 206.96 680.249 202.98C677.597 196.347 670.967 177.773 665.663 161.853C668.315 159.2 670.967 160.527 672.293 168.487C673.619 175.12 676.271 180.427 677.597 185.733C680.249 191.04 681.575 199 682.901 202.98C682.901 202.98 684.227 202.98 685.553 205.633C689.531 217.573 690.857 220.227 690.857 225.533C692.183 229.513 698.814 226.86 697.488 232.167H684.227H689.531C688.205 226.86 690.857 221.553 684.227 217.573ZM421.673 228.187C417.695 230.84 413.717 232.167 408.413 233.493L407.087 232.167L405.761 214.92C405.761 214.92 407.087 214.92 408.413 213.593C408.413 213.593 408.413 213.593 409.739 213.593L420.347 226.86C421.673 226.86 421.673 228.187 421.673 228.187ZM404.435 233.493C400.457 233.493 395.153 232.167 392.5 229.513C392.5 229.513 392.5 228.187 392.5 226.86L401.783 212.267H403.109L404.435 229.513C405.761 232.167 405.761 233.493 404.435 233.493ZM381.892 199L380.566 197.673C381.892 195.02 381.892 193.693 384.544 191.04C387.196 191.04 388.522 189.713 391.174 189.713L397.805 199C392.5 199 388.522 200.327 384.544 200.327L381.892 199ZM401.783 179.1L403.109 180.427V181.753C399.131 183.08 393.826 183.08 389.848 184.407V183.08C393.826 181.753 397.805 180.427 401.783 179.1ZM400.457 197.673L392.5 188.387C396.479 187.06 400.457 187.06 403.109 185.733V196.347C403.109 197.673 401.783 197.673 400.457 197.673ZM399.131 200.327C399.131 201.653 397.805 201.653 397.805 201.653C397.805 201.653 397.805 201.653 396.479 201.653L391.174 200.327C395.153 201.653 396.479 201.653 399.131 200.327ZM405.761 196.347V185.733C409.739 184.407 415.043 184.407 419.021 183.08V184.407L412.391 195.02C409.739 195.02 408.413 196.347 405.761 196.347ZM420.347 185.733L421.673 184.407C422.999 185.733 425.651 187.06 426.977 189.713C422.999 191.04 419.021 192.367 415.043 193.693C415.043 193.693 420.347 185.733 420.347 185.733ZM405.761 181.753C405.761 180.427 405.761 179.1 407.087 179.1C409.739 179.1 412.391 179.1 415.043 180.427C411.065 181.753 408.413 181.753 405.761 181.753ZM365.98 197.673C364.654 197.673 364.654 196.347 365.98 197.673C368.632 195.02 372.61 193.693 375.262 192.367C373.936 193.693 373.936 196.347 372.61 199C371.284 199 368.632 199 365.98 197.673ZM379.24 201.653C381.892 201.653 383.218 201.653 385.87 201.653L397.805 204.307C397.805 204.307 397.805 205.633 397.805 206.96L381.892 213.593C381.892 213.593 380.566 213.593 379.24 213.593C377.914 210.94 377.914 208.287 377.914 205.633C377.914 205.633 377.914 202.98 379.24 201.653ZM380.566 218.9L381.892 217.573L397.805 210.94L399.131 212.267C399.131 212.267 399.131 212.267 399.131 213.593L389.848 228.187L388.522 229.513C385.87 225.533 383.218 222.88 380.566 218.9ZM424.325 225.533C424.325 225.533 422.999 225.533 422.999 224.207L412.391 210.94C412.391 210.94 412.391 209.613 413.717 209.613C413.717 209.613 413.717 209.613 415.043 209.613L430.955 213.593L432.281 214.92C429.629 218.9 428.303 222.88 424.325 225.533ZM432.281 212.267C432.281 212.267 430.955 212.267 429.629 212.267L413.717 208.287V206.96C413.717 206.96 413.717 206.96 413.717 205.633L429.629 199C429.629 199 430.955 199 432.281 199C433.607 201.653 433.607 204.307 433.607 206.96C432.281 208.287 432.281 209.613 432.281 212.267ZM429.629 195.02L412.391 202.98L411.065 201.653C411.065 201.653 411.065 201.653 411.065 200.327L412.391 197.673C417.695 196.347 422.999 195.02 428.303 192.367C429.629 193.693 429.629 193.693 429.629 195.02ZM473.388 171.14C466.758 176.447 469.41 183.08 465.432 184.407C464.106 184.407 454.824 185.733 453.498 187.06C450.846 184.407 446.868 181.753 442.89 180.427C450.846 175.12 465.432 172.467 473.388 171.14ZM444.216 184.407C442.89 185.733 438.912 187.06 432.281 188.387C430.955 185.733 429.629 184.407 426.977 183.08C434.933 181.753 440.238 183.08 444.216 184.407ZM522.452 91.54C511.843 103.48 513.169 119.4 514.495 132.667C511.843 133.993 509.191 136.647 506.539 136.647C505.213 120.727 507.865 96.8467 522.452 91.54ZM247.963 96.8467C246.637 94.1933 243.985 90.2133 245.311 87.56C246.637 86.2333 250.615 87.56 251.941 87.56C253.267 88.8867 265.201 95.52 269.18 95.52C294.374 102.153 326.199 92.8667 344.763 110.113C346.089 111.44 346.089 111.44 346.089 112.767C316.917 95.52 273.158 124.707 247.963 96.8467ZM270.506 130.013C273.158 131.34 273.158 133.993 275.81 136.647C279.788 143.28 286.418 144.607 290.396 149.913C289.07 149.913 287.744 149.913 286.418 149.913C283.766 149.913 282.44 148.587 281.114 147.26C279.788 145.933 277.136 144.607 275.81 145.933C274.484 145.933 269.18 145.933 266.528 144.607C266.528 140.627 271.832 135.32 270.506 130.013ZM241.333 183.08L249.289 191.04C243.985 191.04 238.681 191.04 233.377 191.04V189.713C234.703 187.06 236.029 185.733 237.355 184.407C238.681 183.08 240.007 183.08 241.333 183.08ZM286.418 184.407C287.744 185.733 287.744 187.06 289.07 188.387C285.092 188.387 281.114 189.713 277.136 189.713L282.44 184.407C285.092 184.407 286.418 184.407 286.418 184.407ZM281.114 183.08L273.158 189.713C270.506 189.713 269.18 189.713 266.528 189.713L270.506 180.427C274.484 180.427 278.462 180.427 282.44 181.753C282.44 183.08 282.44 183.08 281.114 183.08ZM279.788 226.86C277.136 229.513 273.158 230.84 269.18 232.167C269.18 232.167 267.854 230.84 266.528 229.513L263.875 212.267C263.875 212.267 265.201 212.267 265.201 210.94L277.136 224.207C279.788 225.533 279.788 226.86 279.788 226.86ZM253.267 196.347C253.267 197.673 253.267 197.673 251.941 197.673L238.681 192.367C242.659 192.367 246.637 192.367 250.615 192.367C251.941 193.693 253.267 196.347 253.267 196.347ZM266.528 195.02L265.201 193.693V192.367H270.506L266.528 195.02C267.854 195.02 267.854 195.02 266.528 195.02ZM263.875 191.04C262.549 191.04 261.223 191.04 259.897 191.04L258.571 180.427H259.897C262.549 180.427 265.201 180.427 266.528 180.427L263.875 191.04ZM255.919 181.753L257.245 191.04C255.919 191.04 253.267 191.04 251.941 191.04L243.985 181.753C247.963 181.753 251.941 181.753 255.919 181.753ZM258.571 193.693C257.245 193.693 257.245 195.02 257.245 195.02L255.919 193.693C255.919 193.693 257.245 193.693 258.571 193.693ZM230.725 195.02C230.725 195.02 232.051 193.693 234.703 193.693L251.941 200.327V201.653L234.703 204.307C233.377 204.307 232.051 204.307 232.051 202.98C232.051 201.653 232.051 201.653 232.051 200.327C229.399 200.327 230.725 197.673 230.725 195.02ZM230.725 210.94C230.725 209.613 232.051 208.287 233.377 208.287L250.615 205.633V206.96L238.681 218.9C237.355 220.227 236.029 220.227 234.703 218.9C233.377 216.247 232.051 213.593 230.725 210.94ZM238.681 224.207C238.681 224.207 238.681 221.553 240.007 220.227L254.593 209.613L255.919 210.94L249.289 228.187C249.289 229.513 246.637 230.84 246.637 230.84C243.985 228.187 241.333 226.86 238.681 224.207ZM253.267 232.167C253.267 232.167 251.941 230.84 251.941 228.187L258.571 210.94H259.897L263.875 228.187C263.875 229.513 263.875 230.84 262.549 230.84C261.223 230.84 261.223 230.84 259.897 230.84C258.571 233.493 255.919 233.493 253.267 232.167ZM283.766 222.88C283.766 222.88 281.114 222.88 279.788 221.553L267.854 208.287C267.854 208.287 267.854 206.96 269.18 206.96L286.418 213.593C287.744 214.92 289.07 216.247 289.07 216.247C287.744 218.9 286.418 221.553 283.766 222.88ZM289.07 214.92C289.07 214.92 289.07 213.593 290.396 213.593C290.396 213.593 289.07 214.92 289.07 214.92ZM291.722 209.613C291.722 209.613 290.396 210.94 287.744 210.94L270.506 204.307V202.98L289.07 200.327C290.396 200.327 291.722 200.327 291.722 201.653V202.98C291.722 204.307 291.722 206.96 291.722 209.613ZM291.722 195.02C291.722 196.347 290.396 197.673 289.07 197.673L270.506 200.327C270.506 200.327 270.506 199 269.18 199L274.484 195.02C279.788 195.02 285.092 193.693 290.396 193.693C290.396 192.367 290.396 193.693 291.722 195.02ZM301.004 185.733C302.33 185.733 302.33 187.06 301.004 187.06C299.678 187.06 297.026 188.387 295.7 188.387C294.374 187.06 294.374 185.733 293.048 184.407C295.7 184.407 298.352 184.407 301.004 185.733ZM270.506 179.1L271.832 176.447C271.832 175.12 274.484 173.793 274.484 173.793C277.136 175.12 279.788 176.447 282.44 179.1C278.462 179.1 274.484 179.1 270.506 179.1ZM269.18 172.467C269.18 172.467 270.506 175.12 270.506 176.447L269.18 179.1C266.528 179.1 263.875 179.1 261.223 179.1C259.897 179.1 259.897 179.1 258.571 179.1L257.245 175.12C257.245 173.793 257.245 172.467 258.571 172.467C259.897 172.467 259.897 172.467 261.223 172.467C263.875 171.14 266.528 171.14 269.18 172.467ZM251.941 172.467C253.267 172.467 253.267 173.793 254.593 175.12V177.773C253.267 176.447 251.941 175.12 250.615 173.793L251.941 172.467ZM251.941 179.1C249.289 179.1 246.637 179.1 242.659 180.427C242.659 179.1 242.659 177.773 242.659 177.773C243.985 176.447 245.311 176.447 246.637 175.12C247.963 176.447 249.289 177.773 251.941 179.1ZM220.116 187.06C222.769 185.733 225.421 185.733 228.073 184.407C226.747 185.733 226.747 187.06 225.421 189.713C222.769 189.713 221.442 189.713 218.79 188.387C218.79 188.387 218.79 188.387 220.116 187.06ZM767.767 99.5C767.767 99.5 766.441 100.827 767.767 100.827C769.093 100.827 769.093 100.827 770.419 102.153C770.419 102.153 770.419 102.153 770.419 100.827C770.419 99.5 769.093 98.1733 767.767 99.5Z" fill="#1a1715"/>
<path d="M745.235 232.168H716.062C716.062 233.495 717.388 236.148 718.714 237.475H750.539L759.821 233.495C761.147 229.515 758.495 225.535 758.495 222.881C758.495 213.595 753.191 204.308 750.539 195.021C751.865 193.695 754.517 188.388 757.169 189.715C763.799 200.328 765.125 213.595 763.799 228.188C762.473 232.168 757.169 234.821 757.169 237.475C757.169 238.801 765.125 237.475 767.778 234.821C767.778 232.168 771.756 229.515 773.082 229.515C774.408 225.535 771.756 225.535 773.082 222.881C774.408 221.555 773.082 202.981 771.756 200.328C771.756 200.328 771.756 200.328 770.43 200.328C769.104 196.348 773.082 191.041 774.408 187.061L785.016 185.735C783.69 176.448 781.038 167.161 778.386 157.875C779.712 155.221 782.364 153.895 783.69 152.568C794.298 145.935 785.016 133.995 785.016 124.708C783.69 120.728 777.06 116.748 775.734 111.441C777.06 112.768 778.386 111.441 778.386 112.768C781.038 110.115 781.038 107.461 779.712 103.481C785.016 98.1745 787.668 95.5212 787.668 94.1945C787.668 88.8879 779.712 82.2545 775.734 82.2545C773.082 83.5812 771.756 86.2345 766.452 90.2145C766.452 90.2145 761.147 88.8879 758.495 90.2145C757.169 91.5412 757.169 95.5212 759.821 98.1745C759.821 99.5012 758.495 99.5012 758.495 100.828C758.495 102.155 758.495 102.155 758.495 102.155C759.821 103.481 759.821 104.808 758.495 106.135C757.169 108.788 759.821 110.115 761.147 110.115C761.147 110.115 761.147 110.115 762.473 111.441C762.473 114.095 754.517 118.075 754.517 120.728C753.191 126.035 750.539 126.035 746.561 145.935C746.561 151.241 746.561 155.221 746.561 157.875C742.583 169.815 738.605 176.448 735.953 184.408C733.301 191.041 747.887 210.941 747.887 224.208C747.887 230.841 745.235 230.841 745.235 232.168ZM767.778 210.941C766.452 209.615 766.452 206.961 766.452 204.308C767.778 202.981 770.43 204.308 770.43 204.308C773.082 210.941 773.082 212.268 767.778 210.941ZM767.778 116.748L769.104 115.421C773.082 112.768 770.43 114.095 766.452 112.768C765.126 111.441 765.126 110.115 765.126 108.788C765.126 106.135 763.799 106.135 763.799 104.808C763.799 104.808 763.799 103.481 765.126 102.155C766.452 100.828 766.452 96.8479 767.778 96.8479C775.734 96.8479 773.082 100.828 774.408 100.828C774.408 102.155 778.386 106.135 779.712 107.461C779.712 111.441 775.734 108.788 777.06 114.095C777.06 122.055 767.778 120.728 763.799 127.361C761.147 119.401 767.778 119.401 767.778 116.748ZM759.821 149.915C762.473 151.241 763.799 153.895 765.126 153.895C766.452 156.548 762.473 156.548 761.147 157.875C758.495 157.875 757.169 155.221 755.843 156.548H753.191C754.517 155.221 757.169 151.241 759.821 149.915ZM741.257 189.715C739.931 184.408 747.887 176.448 751.865 159.201C753.191 157.875 754.517 163.181 757.169 161.855C761.147 161.855 759.821 173.795 763.799 165.835C763.799 163.181 763.799 159.201 766.452 157.875C769.104 157.875 770.43 159.201 771.756 160.528L767.778 167.161C775.734 167.161 765.125 180.428 775.734 177.775C775.734 183.081 773.082 196.348 770.43 195.021C769.104 187.061 767.778 191.041 767.778 192.368C767.778 195.021 767.778 197.675 769.104 200.328C769.104 200.328 766.452 200.328 766.452 201.655C761.147 193.695 761.147 181.755 757.169 172.468L755.843 173.795C755.843 179.101 753.191 187.061 749.213 189.715C746.561 191.041 755.843 189.715 747.887 193.695C750.539 195.021 747.887 197.675 745.235 197.675C743.909 195.021 742.583 192.368 741.257 189.715ZM749.213 208.288C747.887 206.961 746.561 202.981 745.235 201.655L749.213 200.328C750.539 201.655 751.865 204.308 751.865 206.961C751.865 206.961 750.539 208.288 749.213 208.288ZM609.98 119.401C609.98 110.115 612.632 103.481 608.654 94.1945C608.654 90.2145 611.306 87.5612 611.306 83.5812L604.676 84.9079C603.35 92.8679 602.024 94.1945 603.35 102.155C604.676 110.115 606.002 116.748 609.98 119.401ZM541.026 144.608C566.221 137.975 584.785 131.341 604.676 122.055C595.394 103.481 598.046 98.1745 598.046 86.2345C598.046 86.2345 587.437 86.2345 574.177 83.5812C560.917 91.5412 543.678 126.035 541.026 144.608ZM628.544 149.915C629.87 149.915 627.218 148.588 628.544 149.915ZM659.043 92.8679C648.435 84.9079 640.479 67.6612 628.544 68.9878C627.218 55.7212 621.914 34.4945 639.153 11.9412C641.805 10.6145 645.783 10.6145 647.109 9.28785C640.479 7.96118 629.87 13.2678 623.24 9.28785C623.24 9.28785 625.892 14.5945 629.87 15.9212C628.544 18.5745 623.24 21.2278 625.892 26.5345C620.588 30.5145 621.914 35.8212 624.566 38.4745C621.914 41.1279 619.262 46.4345 623.24 50.4145C617.936 55.7212 624.566 59.7012 625.892 61.0279C623.24 66.3345 625.892 70.3145 625.892 70.3145C625.892 74.2945 619.262 79.6012 616.61 80.9279C613.958 90.2145 615.284 107.461 615.284 118.075C631.196 110.115 647.109 103.481 659.043 92.8679ZM476.051 398.001C476.051 388.715 469.421 378.101 461.464 372.795C458.812 371.468 457.486 371.468 454.834 370.141C457.486 370.141 460.138 370.141 462.79 368.815C470.747 364.835 481.355 354.221 481.355 335.648C481.355 322.381 476.051 310.441 465.442 303.808C456.16 297.175 445.552 295.848 433.618 295.848H347.426V318.401H367.316V429.841H347.426V452.395H409.749V429.841H389.859V380.755H432.292C446.878 380.755 452.182 390.041 453.508 399.328L454.834 452.395H497.267V429.841H477.377L476.051 398.001ZM436.27 359.528H388.533V318.401H433.618C437.596 318.401 444.226 318.401 448.204 321.055C453.508 323.708 458.812 330.341 458.812 339.628C460.138 351.568 449.53 359.528 436.27 359.528ZM339.47 506.788H310.297V595.675H323.557V557.201H338.144C359.36 557.201 368.642 546.588 368.642 531.995C368.642 518.728 359.36 506.788 339.47 506.788ZM339.47 546.588H323.557V518.728H339.47C351.404 518.728 355.382 525.361 355.382 531.995C355.382 541.281 348.752 546.588 339.47 546.588ZM419.031 506.788L379.25 595.675H393.837L404.445 569.141H442.9L453.508 595.675H468.095L426.988 506.788H419.031ZM409.749 558.528L423.01 524.035L437.596 558.528H409.749ZM604.676 506.788H617.936V595.675H604.676V506.788ZM672.303 528.015C672.303 521.381 678.933 517.401 688.216 517.401C694.846 517.401 702.802 520.055 710.758 526.688V512.095C704.128 508.115 696.172 505.461 689.542 505.461C672.303 505.461 660.369 514.748 660.369 529.341C660.369 553.221 702.802 555.875 702.802 574.448C702.802 579.755 697.498 585.061 686.89 585.061C677.607 585.061 668.325 581.081 661.695 571.795V587.715C669.651 593.021 677.607 595.675 688.216 595.675C704.128 595.675 714.736 585.061 714.736 571.795C713.41 545.261 672.303 545.261 672.303 528.015ZM558.265 578.428C551.634 567.815 546.33 558.528 537.048 553.221C547.656 549.241 552.961 541.281 552.961 531.995C552.961 516.075 541.026 506.788 522.462 506.788H498.593V595.675H511.854V557.201H517.158C523.788 557.201 529.092 559.855 542.352 577.101L554.287 595.675H570.199L563.569 585.061C560.917 583.735 559.591 581.081 558.265 578.428ZM519.81 545.261H511.854V517.401H519.81C533.07 517.401 538.374 522.708 538.374 530.668C538.374 538.628 534.396 545.261 519.81 545.261Z" fill="#1a1715"/>
</svg>
