<svg width="1973" height="523" viewBox="0 0 1973 523" fill="none" xmlns="http://www.w3.org/2000/svg">
<g clip-path="url(#clip0_147_5)">
<path d="M557.181 8.91309L558.089 8.94141C563.906 9.13853 565.536 8.66025 569.263 12.6415C570.836 25.1364 550.473 32.0298 541.046 37.3784C536.342 40.0738 531.968 43.3052 528.009 47.0079C513.699 60.3403 501.919 77.3503 490.03 92.5823C449.901 143.995 422.472 202.491 390.234 258.694C389.074 260.718 389.225 261.992 389.927 263.957C403.793 272.695 454.517 239.276 461.302 225.64C463.228 221.77 476.463 204.024 478.81 202.978L479.912 204.063C480.58 229.572 431.691 265.34 409.2 270.414C400.557 272.365 390.523 273.437 382.31 277.14L382.015 277.276C351.5 329.767 330.838 388.11 286.845 433.433C242.978 477.381 184.482 502.055 122.851 506.042C76.8799 509.017 3.3904 484.894 2.78708 428.925C1.94708 350.998 92.0679 313.715 159.723 312.182C175.273 309.048 261.595 316.511 265.829 328.997C259.835 330.807 239.21 324.672 230.997 323.416C176.727 315.12 123.826 318.108 73.6289 342.383C49.9483 353.834 25.0086 378.114 16.3054 402.987C10.683 418.888 11.6725 436.378 19.0524 451.543C49.5876 514.237 158.126 499.175 208.629 474.169C270.243 443.662 299.229 386.854 326.707 327.197C334.003 311.359 344.623 291.95 350.065 275.881C284.973 263.405 264.909 202.788 300.457 152.018C345.094 88.2663 448.976 69.103 516.756 38.9664C532.058 32.1625 538.281 17.8436 557.181 8.91309ZM319.78 251.671C332.486 259.746 341.176 261.399 355.893 264.452C357.727 260.368 359.703 256.242 361.882 252.334C389.771 202.313 422.491 151.781 459.643 108.005C472.065 93.4164 484.727 79.034 497.623 64.8637C502.093 60.0247 508.016 54.8998 511.708 50.6918C510.319 49.774 510.963 49.9356 509.269 50.1148C497.446 56.5505 474.546 63.2412 460.601 68.4489C400.006 91.0758 326.52 121.928 305.192 188.89C298.109 211.127 299.835 236.568 319.78 251.671Z" fill="#D8D3CB"/>
<path d="M923.007 210.032C946.548 210.973 925.23 233.698 925.051 244.911C933.111 251.752 952.047 231.416 962.735 230.385C981.461 228.577 979.419 249.874 984.795 253.969C998.831 251.274 995.064 192.847 1016.25 216.354C1024.44 225.442 992.193 248.055 1006.72 262.788C1010.57 266.697 1013.05 273.973 1019.26 275.271C1028.5 260.707 1035.92 251.071 1049.5 240.098C1067.72 225.368 1115.49 216.469 1109.02 253.628C1104 282.48 1065.86 297.302 1039.32 292.512C1026.74 308.169 1021.82 321.088 1019.4 340.725C1021.17 344.715 1023.1 348.477 1026.76 351.047C1064.65 377.63 1132.54 237.095 1170.8 230.707C1176.09 229.824 1180.92 231.505 1185.2 234.608C1192.79 240.111 1193.76 248.401 1195.08 256.995C1205.19 248.174 1216.37 238.062 1229.33 233.932C1247.38 230.478 1253.97 235.489 1260.73 250.287C1272.77 276.71 1216.75 334.942 1220.57 349.274C1233.63 360.775 1281.34 307.673 1290.11 298.876L1291.95 299.778C1296.55 309.231 1269.64 332.684 1262.02 338.602C1252.28 346.155 1233.8 360.988 1220.64 359.892C1216.43 359.542 1210.4 356.587 1207.75 352.836C1192.66 315.427 1239.43 282.438 1245.7 248.263C1246.27 245.157 1245.56 242.554 1244.17 240.816C1237.74 236.881 1225.77 243.031 1220.46 246.835C1191.82 267.299 1177.89 298.814 1161.42 328.632C1156.91 336.792 1151.38 348.673 1144.46 355.008C1137.25 357.739 1127.25 355.258 1119.32 354.061C1128.1 343.655 1180.04 253.396 1180.66 243.787C1180.73 242.611 1180.01 240.868 1179.2 240.032C1177.52 238.285 1175.89 237.492 1173.43 237.464C1157.28 237.285 1122.49 288.345 1110.93 301.786C1101.12 313.185 1090.57 323.9 1079.97 334.551C1063.91 350.761 1029.13 379.195 1009.11 345.766C997.877 327.026 1007.37 301.681 1013.79 282.259C1003.36 269.782 1005.09 274.044 996.076 257.615C989.361 264.183 985.276 274.142 980.402 282.111C968.013 302.354 957.172 323.329 946.187 344.339C944.322 347.906 941.628 353.089 937.558 353.97C931.206 355.345 923.151 354.611 916.611 354.374C929.653 332.9 942.161 306.019 954.057 283.61C959.486 273.383 965.614 260.489 970.103 249.847C970.893 247.622 972.02 242.828 970.411 240.856C962.043 230.569 946.581 247.417 938.393 251.471C930.516 255.37 924.939 252.595 917.08 250.676C915.184 255.658 904.092 273.276 900.694 279.343C890.727 297.282 881.167 315.443 872.02 333.814C861.406 354.767 861.185 357.905 836.762 352.06C845.177 330.275 889.015 267.37 890.113 250.418C890.319 247.229 889.78 243.394 887.509 240.982C886.036 239.417 884.353 238.948 882.244 238.921C876.257 238.842 870.708 243.389 866.795 247.453C859.003 255.546 853.086 265.598 846.935 274.951C832.322 297.167 814.668 326.971 796.127 345.227C789.88 351.377 781.798 356.778 772.689 356.638C767.483 356.558 762.324 354.789 758.668 350.992C752.444 344.531 752.287 334.986 752.378 326.604C741.765 337.837 717.404 359.132 701.211 356.372C677.445 352.322 680.346 325.104 682.73 307.438L682.461 307.547C667.646 313.682 654.816 325.305 640.631 325.713L639.742 324.732C643.357 319.129 660.996 313.391 670.088 305.995C686.365 292.756 688.167 283.748 700.671 268.229C717.236 247.67 744.818 231.564 771.153 228.573C782.92 227.236 784.761 231.62 792.002 238.774C795.708 242.436 797.171 237.667 799.033 236.747C803.314 234.629 819.247 234.011 824.337 233.509C817.826 253.843 763.319 330.249 766.094 342.414C766.603 344.645 768.043 346.918 770.072 348.045C788.408 358.232 832.769 281.273 841.386 268.132C845.609 261.693 850.134 255.345 855.245 249.576C861.659 242.336 870.1 234.737 879.673 232.382C883.785 231.369 887.979 231.597 891.629 233.881C899.108 238.561 900.734 248.107 902.511 256.015C904.168 253.401 908.7 246.243 909.548 243.749C915.137 227.31 912.038 224.15 923.007 210.032ZM711.526 347.314C744.941 330.594 768.765 289.204 784.633 256.722C790.123 245.487 779.28 232.804 768.726 236.042C731.734 248.213 664.318 357.685 711.526 347.314ZM1044.27 284.598L1060.23 284.021C1074.95 281.621 1085.34 274.438 1094.31 262.434C1103.69 249.883 1104.09 238.292 1086.68 233.864C1054.56 250.264 1059.92 260.002 1044.27 284.598Z" fill="#D8D3CB"/>
<path d="M802.421 66.4714C804.697 66.3537 805.042 66.3361 807.2 67.0448C807.519 70.3531 794.821 78.1688 791.405 80.4915C765.373 98.194 748.07 128.959 732.924 156.177C749.373 162.192 786.858 161.653 804.551 157.674C809.539 156.552 823.602 148.491 828.17 149.032L828.818 150.805C826.19 156.209 815.078 160.707 809.707 163.231C781.042 176.702 752.481 178.142 721.454 179.877C713.928 187.7 700.839 215.409 695.007 226.028C686.652 241.59 678.571 257.167 668.636 271.833C625.194 335.96 536.051 398.487 456.394 363.196C435.23 353.821 425.497 340.417 417.741 319.25C416.241 313.063 413.042 304.162 417.522 299.144L419.057 299.369C424.208 326.098 441.172 349.864 467.234 359.839C492.672 369.574 532.354 366.816 556.884 355.331C613.053 329.032 644.81 269.118 670.578 215.655C675.792 204.795 686.943 187.011 690.749 176.768C664.869 172.691 648.913 171.181 623.229 180.503C617.698 182.511 613.324 185.365 607.391 187.562C605.591 186.081 605.985 186.85 605.734 184.595C606.296 183.722 607.082 182.654 607.92 182.054C632.45 164.475 671.302 152.966 700.945 157.24C707.343 150.654 713.591 138.007 720.804 130.34C738.13 111.921 752.852 96.3968 774.621 82.9269C783.827 77.2303 793.827 72.2161 802.421 66.4714Z" fill="#D8D3CB"/>
<path d="M1440.65 259.962L1443.21 260.045L1444.05 260.985C1441.73 268.237 1430.78 272.717 1424.34 275.391C1413.16 280.028 1401.14 285.893 1389.11 287.533C1361.47 291.295 1326.03 276.78 1304.13 281.646C1299.32 282.712 1294.41 285.821 1290.06 288.105C1288.59 288.79 1286.88 288.803 1285.28 288.952L1284.79 287.861C1287.27 282.566 1294.24 278.815 1299.22 276.082C1305.17 272.819 1312.05 269.368 1318.7 267.813C1358.62 258.464 1402.9 284.485 1440.65 259.962Z" fill="#D8D3CB"/>
<path d="M1727.05 163.724C1732.09 163.747 1738.48 163.958 1741.72 168.369C1743.13 170.278 1743.7 172.673 1743.31 175.01C1742.28 181.044 1737.2 185.048 1732.49 188.24C1726.33 189.031 1716.68 189.23 1716.85 180.298C1716.99 172.559 1721.87 168.648 1727.05 163.724Z" fill="#D8D3CB"/>
<path d="M1638.81 70.2499C1603.49 41.0363 1565.92 34.1958 1520.01 38.2325C1472.01 42.4528 1425.81 62.684 1393.9 100.166C1362.32 137.27 1345.53 189.99 1381.07 230.91C1383.34 233.519 1388.35 236.981 1387.47 239.906C1385.69 240.558 1384.16 241.32 1382.3 239.902C1347.73 213.651 1344.67 163.68 1364.08 126.722C1409.33 40.541 1532.42 4.56545 1619.13 46.0153C1629.85 51.1425 1640.27 59.5247 1649.58 66.8989C1659 63.7517 1696.83 50.2833 1705.63 54.8309C1704.37 57.0323 1702.18 58.2815 1698.97 59.164C1689.4 61.7922 1666.18 65.7546 1659.55 72.3239C1654.97 76.851 1667.45 91.2195 1668.71 95.8101C1694.74 157.296 1643.22 213.36 1586.45 230.573C1573.06 234.634 1559.31 237.386 1545.39 238.788C1536.62 239.676 1521.9 239.235 1513.27 241.312C1510.71 243.197 1507.24 249.823 1505.93 252.224C1454.31 346.904 1387.81 441.995 1289.51 492.484C1259.26 508.019 1235.68 514.994 1202.24 520.072C1196.69 520.914 1185.84 521.677 1180.9 523H1127.64C1076.74 512.917 1034.31 504.633 1001.63 458.009C982.165 430.232 975.103 409.103 980.643 374.324C981.067 371.681 981.799 369.567 983.822 367.664L986.047 367.382C988.36 372.314 984.207 388.974 985.518 397.379C1005.05 522.722 1165.68 538.548 1261.79 492.768C1345.15 453.059 1410.13 357.032 1457.13 279.657C1463.48 269.19 1477.66 247.14 1481.39 236.749C1481.46 236.536 1481.54 236.321 1481.61 236.106C1471.98 231.615 1440.73 216.938 1447.23 202.704C1452.19 201.29 1454.93 208.331 1458.38 211.55C1486.36 237.679 1487.43 224.923 1503.96 200.318C1517.18 180.643 1531.18 160.095 1546.9 142.294C1577.76 106.129 1599 93.3311 1638.81 70.2499ZM1535.84 229.149C1578.09 221.557 1615.89 204.47 1641.49 168.69C1654.17 150.962 1661.07 127.98 1657.13 106.236C1655.71 98.4753 1651.64 81.5062 1642.08 80.7765C1591.27 112.571 1564.94 145.531 1536.46 197.855C1533.81 202.753 1520.02 224.485 1521.05 228.919C1524.35 230.933 1532.03 229.728 1535.84 229.149Z" fill="#D8D3CB"/>
<path d="M1595.43 242.123C1570.86 249.888 1528.31 288.514 1510.4 287.492L1509.99 286.006C1510.01 285.976 1510.63 284.997 1510.72 284.952C1537.1 271.56 1559.28 248.699 1587.28 238.14C1611.78 228.905 1608.33 253.22 1612.25 256.637C1625.07 251.365 1617.93 229.892 1626.03 220.215C1629.06 216.593 1639.69 214.89 1642.45 218.762C1649.47 228.603 1628.44 249.495 1628.64 254.127C1630.29 260.355 1637.87 266.131 1644.25 266.439C1660.87 267.063 1668.93 253.068 1676.99 241.071C1678.91 238.222 1700.29 236.921 1703.33 239.243C1700.77 246.72 1689.67 258.967 1685.73 266.268C1679.02 278.7 1637.95 339.785 1642.46 350.863C1653.39 358.571 1671.34 338.272 1679.31 332.03C1693.79 320.705 1696.2 315.293 1701.26 298.584C1711.11 266.073 1739.46 241.467 1772.98 235.705C1794.4 232.024 1811.76 239.482 1809.08 264.178C1807.23 278.027 1792.17 284.718 1781.58 276.255C1776.59 266.797 1790.74 256.312 1797.03 250.009L1796.76 248.263C1775.85 217.014 1729.43 289.429 1725.2 305.711C1722.21 317.223 1706.14 336.314 1715.35 349.27C1727.45 366.313 1755.13 341.885 1765.75 333.605C1784.7 318.4 1806.44 302.439 1814.32 278.247C1821.35 263.541 1834.98 247.889 1849.36 239.965C1896.19 214.168 1933.06 245.611 1888.09 288.443C1873.23 302.588 1851.21 307.394 1831.1 301.885C1817.47 316.019 1809.18 353.45 1833.34 358.346C1880.32 367.87 1932.22 317.224 1954.61 280.765C1959.87 272.2 1964.9 256.983 1973 252.97V258.602C1963.2 292.526 1931.17 328.099 1902.36 347.593C1879.6 362.994 1838.03 379.041 1814.38 357.281C1801.49 345.427 1801.41 331.719 1800.76 315.692C1780.75 329.127 1763.2 352.496 1739.21 360.68C1709.99 370.648 1703.38 348.526 1695.9 327.021C1682.41 339.597 1657.57 368.067 1637.61 359.172C1632.54 356.86 1628.58 352.668 1626.56 347.484C1617.28 323.092 1647.37 291.827 1655.87 272.546C1635.96 272.816 1635.11 272.641 1620.15 259.945C1614.52 268.927 1604.04 280.385 1597.41 290.015C1586.97 305.195 1566.95 346.478 1555.28 357.506C1547.8 356.323 1539.96 356.202 1532.37 355.92C1536.73 345.147 1543.21 336.928 1549.19 327.063C1557.36 313.509 1565.01 299.642 1572.98 285.97C1581.67 271.063 1591.83 259.4 1595.43 242.123ZM1834.76 293.696C1840.83 294.794 1846.68 295.783 1852.89 295.543C1870.09 291.149 1886.1 280.038 1895.29 264.663C1897.97 260.19 1901.55 253.034 1900.07 247.64C1899.38 245.105 1897.6 243.404 1895.35 242.193C1891.48 240.1 1887.23 238.855 1882.84 238.735C1860.32 252.442 1846.45 270.171 1834.76 293.696Z" fill="#D8D3CB"/>
<path d="M990.99 0H992.55C992.782 0.323304 993.003 0.651945 993.215 0.985648C994.92 3.65686 995.074 5.89974 994.4 8.9718C991.789 20.9289 981.472 31.7176 971.597 38.3868C912.955 78.0134 782.161 51.6696 713.611 45.9244C690.993 44.0287 668.791 43.8688 646.15 45.2336C622.712 46.6465 601.264 48.8409 581.008 61.6698C563.604 72.6927 545.091 90.5642 540.513 111.3C533.882 141.34 551.519 143.77 564.158 163.613C541.465 155.552 528.067 131.881 533.343 108.25C537.505 89.6142 553.039 72.5338 568.121 61.4516C608.899 31.4871 663.472 25.9395 712.647 28.0089C757.947 30.0957 802.187 37.4587 847.157 42.0122C886.565 46.0024 931.132 53.0049 966.501 30.6379C977.425 23.6583 988.148 12.9844 990.99 0Z" fill="#D8D3CB"/>
</g>
<defs>
<clipPath id="clip0_147_5">
<rect width="1973" height="523" fill="white"/>
</clipPath>
</defs>
</svg>
