<svg width="2220" height="464" viewBox="0 0 2220 464" fill="none" xmlns="http://www.w3.org/2000/svg">
<mask id="mask0_149_112" style="mask-type:luminance" maskUnits="userSpaceOnUse" x="24" y="24" width="2172" height="416">
<path d="M2195.33 24.0421H24.6621V439.958H2195.33V24.0421Z" fill="white"/>
</mask>
<g mask="url(#mask0_149_112)">
<path d="M1632.08 408.436C1632.59 404.919 1635.59 396.916 1640.6 395.421L1647.59 407.43C1643.1 409.433 1637.09 408.436 1632.08 408.436ZM1647.59 378.4H1640.6C1628.09 394.913 1621.58 413.938 1605.58 428.956C1601.07 431.457 1593.07 431.457 1591.57 436.46C1604.07 437.965 1620.08 438.961 1632.08 434.955C1627.58 433.958 1623.08 432.454 1619.08 428.956C1620.08 424.451 1622.08 418.442 1626.08 415.941C1638.09 418.442 1657.1 408.436 1661.09 425.448C1667.1 433.958 1651.6 431.955 1652.6 437.457L1695.61 436.46V433.958L1686.11 432.454L1647.59 378.4ZM701.677 403.932C703.181 398.919 705.183 391.914 711.188 390.409L718.688 402.418L701.677 403.932ZM717.184 373.896H709.186C694.675 389.412 690.173 409.433 673.162 424.451C670.173 429.952 658.162 422.956 659.666 431.457C672.664 432.962 688.679 433.958 700.681 430.451C699.177 422.439 684.177 431.457 687.175 419.448C689.675 401.929 710.681 412.931 722.194 409.931C725.69 414.436 730.69 420.445 730.69 425.448C727.194 427.451 719.186 425.946 721.188 432.454L764.205 431.457V428.956C759.205 428.956 755.709 426.454 751.198 425.448L717.184 373.896ZM1532.54 392.92C1531.55 384.4 1541.05 387.409 1544.54 383.403C1558.06 384.4 1569.56 389.412 1574.56 402.418C1560.56 402.926 1545.55 397.923 1532.54 392.92ZM1575.57 404.919C1584.06 401.43 1580.06 386.911 1579.56 378.4C1573.56 375.899 1575.06 384.908 1569.56 383.403C1555.05 376.397 1530.04 374.892 1519.53 389.412C1515.53 415.442 1550.55 407.43 1566.06 415.941C1570.06 417.944 1577.06 423.445 1571.06 427.949C1564.05 436.46 1551.05 430.959 1541.05 432.454C1531.55 427.949 1524.05 417.944 1520.54 408.436C1512.03 412.931 1516.54 428.448 1517.04 437.457C1523.54 434.955 1528.54 430.959 1535.04 436.46C1551.55 436.46 1574.05 442.967 1585.57 425.448C1590.57 416.937 1582.56 409.433 1575.57 404.919ZM785.718 386.911C787.222 382.406 792.222 380.902 796.724 379.895C809.732 379.895 823.735 381.41 829.233 395.421C829.233 396.418 828.735 398.421 830.239 398.919C816.226 395.92 799.224 394.913 785.718 386.911ZM832.739 401.43C838.735 394.415 835.737 382.406 835.239 373.896C829.233 370.886 831.235 378.899 826.733 378.4C810.728 371.893 784.713 368.893 772.711 385.904C772.213 409.931 801.226 403.424 817.231 409.931C821.733 411.436 829.731 414.944 827.739 421.94C819.233 430.451 803.726 430.451 793.218 426.454C781.216 422.956 780.211 407.938 771.207 403.932C769.215 412.931 769.713 423.445 771.207 432.454H775.211C782.213 422.439 791.216 436.46 801.226 433.958C816.226 434.955 831.235 433.46 839.741 421.94C842.739 414.436 841.245 404.919 832.739 401.43ZM1331.96 414.436C1326.95 428.448 1311.45 431.955 1297.44 431.457C1282.43 432.962 1290.44 414.436 1289.94 407.43C1302.45 402.418 1306.45 416.937 1312.95 420.445C1314.45 410.43 1314.45 398.421 1312.95 388.406H1310.45C1308.44 388.914 1309.45 391.415 1309.45 392.92C1306.95 400.922 1297.44 404.919 1289.94 401.43C1289.94 394.913 1284.94 388.406 1291.44 383.403C1302.45 381.41 1315.94 381.41 1324.95 388.406C1330.95 391.415 1326.45 401.929 1335.46 400.424C1335.46 392.92 1336.46 384.4 1334.46 377.394H1258.92V382.406C1262.93 379.406 1267.42 381.908 1270.93 384.4C1270.43 400.922 1271.93 413.43 1269.43 428.956C1265.93 430.959 1257.93 429.454 1257.42 434.955H1336.96V410.938C1333.45 409.931 1333.45 412.433 1331.96 414.436ZM521.602 402.418C529.609 405.427 539.609 409.433 533.604 420.445C526.104 427.949 512.598 424.95 502.598 424.451C490.587 417.944 492.091 402.418 494.083 390.409C497.09 384.4 501.094 378.4 508.594 377.394C518.604 376.905 527.607 377.902 535.107 383.403L544.609 397.923C537.607 400.922 525.108 395.92 521.602 402.418ZM548.115 397.923C549.619 388.406 550.615 378.4 545.615 370.398L539.609 376.397C527.607 373.397 514.102 366.391 501.094 372.391C487.091 375.899 475.577 389.911 473.585 404.919C479.083 418.94 490.089 428.448 505.098 431.457C521.602 438.463 539.111 416.937 550.615 431.457C552.617 425.448 551.611 417.944 551.611 410.938C551.611 402.418 561.621 406.932 566.122 403.932C564.121 396.418 552.617 403.424 548.115 397.923ZM1168.89 376.397L1167.38 401.43C1180.39 404.919 1171.39 385.406 1184.38 382.406C1187.89 380.902 1194.39 379.406 1197.39 383.403L1198.9 421.94C1198.9 434.955 1181.89 423.445 1181.89 433.958C1197.39 435.463 1215.41 435.463 1231.41 433.958V431.457C1227.41 430.451 1223.91 427.949 1219.4 428.956C1210.4 420.445 1215.91 402.418 1214.4 391.914C1213.9 384.4 1218.41 380.403 1226.41 382.406C1235.92 386.412 1236.41 399.418 1244.42 402.418C1245.92 394.415 1246.92 383.403 1243.42 376.397H1168.89ZM1071.34 374.892L1070.34 401.43C1079.84 401.43 1075.84 387.907 1084.84 383.403C1088.35 379.895 1096.86 379.895 1100.35 383.403V422.956C1099.36 435.463 1082.85 422.956 1083.35 433.958C1098.35 435.952 1114.86 434.955 1130.37 434.955L1133.87 431.457C1129.36 425.946 1119.36 432.454 1117.36 424.451C1117.86 409.931 1114.86 393.917 1119.36 380.902C1125.36 380.403 1130.87 381.41 1135.37 385.904C1141.38 389.911 1137.37 402.926 1147.37 401.43L1145.88 376.397L1071.34 374.892ZM1018.82 376.397V379.895C1023.32 381.908 1029.83 379.895 1033.32 385.904C1033.83 398.421 1036.83 414.436 1030.82 425.448C1021.82 431.955 1008.31 428.956 998.312 427.949C985.305 419.947 993.303 401.43 991.301 388.406C988.303 377.394 1000.81 382.905 1005.31 379.895V374.892H961.292L959.797 379.895C964.797 378.899 968.791 381.41 973.293 382.406C977.795 394.415 974.797 409.433 975.305 422.956C986.809 437.457 1008.31 435.463 1025.82 433.958C1048.83 430.959 1037.33 404.919 1040.33 389.412C1041.83 382.406 1048.83 379.406 1055.83 380.902V377.394C1045.83 373.397 1030.32 374.892 1018.82 376.397ZM949.29 376.397C934.778 374.394 917.777 374.394 903.265 376.397V377.394C905.765 381.908 910.765 378.899 914.271 379.895C922.777 381.41 917.777 390.907 919.271 396.418C911.771 403.424 897.269 398.919 886.762 400.424C880.258 398.421 884.262 389.911 883.256 384.4C885.765 378.4 895.765 382.406 898.773 376.397C884.262 373.896 868.256 375.4 853.247 374.892C850.747 382.406 859.252 378.899 862.758 379.895C871.254 389.911 865.746 407.938 867.25 421.94C865.248 427.451 859.252 430.451 853.247 428.956V432.454H898.773C897.269 426.454 886.762 430.451 883.256 424.451C883.763 417.436 880.756 409.433 885.258 403.932C896.761 404.43 909.271 402.418 919.271 406.433V425.448C914.769 429.454 906.771 427.451 903.265 431.457C917.279 435.463 934.778 433.958 949.29 432.454C948.284 425.946 937.278 431.955 935.784 424.451L937.278 382.406C939.788 376.905 950.286 383.403 949.29 376.397ZM1497.52 372.391C1480.52 393.418 1465.51 416.937 1451.01 439.958H1458.01C1474.52 418.442 1489.03 396.418 1502.53 373.896C1501.53 371.893 1499.03 372.899 1497.52 372.391ZM641.658 418.442C634.149 429.454 619.139 426.454 608.143 425.448C603.641 413.43 606.639 397.923 605.634 384.4C608.641 378.4 616.141 376.905 622.645 376.397V374.892C610.145 373.397 589.13 373.397 573.124 374.892V376.397C575.126 378.4 578.124 376.905 580.624 377.394C598.134 382.905 586.63 406.433 590.136 420.445C589.13 432.962 574.12 420.943 573.124 431.457C599.139 433.46 626.649 433.46 652.664 431.457L651.16 407.43C644.656 407.43 646.151 415.442 641.658 418.442ZM1018.82 360.382C1018.82 362.884 1017.81 367.388 1019.82 367.887C1021.82 372.391 1026.82 371.394 1030.82 371.394C1033.83 369.391 1038.83 366.391 1036.83 361.887C1033.83 355.878 1022.81 352.37 1018.82 360.382ZM994.807 355.878C990.803 357.383 987.307 361.389 988.811 366.391C991.809 370.886 995.812 371.893 1000.81 371.394C1004.82 369.391 1008.31 365.884 1006.82 360.382C1003.81 356.376 999.309 355.379 994.807 355.878ZM1446.01 347.367C1432 345.364 1416.49 346.371 1401.49 346.371V350.875C1406.99 350.875 1412.99 349.869 1415.99 354.373V394.415C1414.99 403.932 1402.49 396.418 1401.49 403.932L1446.01 402.418C1419.5 402.926 1437.5 373.397 1430.5 359.386C1431 349.37 1444.01 353.376 1446.01 347.367ZM85.9157 347.367L53.397 365.385L52.4008 329.349C63.4064 334.352 75.9062 336.365 85.9157 343.869V347.367ZM154.44 348.364L52.4008 300.32L42.8894 306.329C39.8913 343.371 49.3931 377.902 38.8951 414.436C34.8913 422.956 22.8798 426.454 24.8913 436.46C44.3931 425.448 65.9064 414.944 83.4062 401.43C75.9063 395.92 68.9045 406.932 59.4026 404.919C50.3989 398.919 51.8931 384.908 53.397 374.892C75.9063 363.89 100.418 334.352 124.431 362.884C130.935 371.893 111.921 374.394 113.425 383.403C135.935 375.899 158.444 357.881 179.449 346.371L175.953 341.368C170.446 347.367 162.946 349.869 154.44 348.364ZM196.461 316.344C191.959 318.337 187.457 322.344 188.961 328.353C188.453 336.365 197.467 336.365 203.463 336.365C209.966 333.355 215.465 329.848 212.965 320.839C210.963 314.341 202.466 316.842 196.461 316.344ZM2079.78 282.302C2077.28 291.819 2095.29 294.32 2094.29 305.332C2081.28 326.848 2069.28 348.364 2054.77 368.893C2046.26 374.892 2036.25 368.385 2028.26 365.385C2025.76 366.89 2025.76 369.391 2027.26 371.394C2066.78 391.415 2104.3 415.442 2143.81 436.46L2166.32 401.43C2161.32 394.913 2155.81 402.418 2151.81 406.433C2127.8 421.442 2100.79 405.427 2081.28 391.914C2072.28 376.397 2091.28 365.883 2096.79 353.376C2105.3 354.872 2112.3 363.382 2118.29 368.893C2125.3 376.397 2115.79 384.908 2117.3 391.914L2123.3 392.92C2133.8 378.4 2142.8 362.884 2150.81 347.367C2142.8 339.863 2141.81 355.878 2133.8 355.878C2123.8 357.383 2112.3 354.373 2103.79 347.367C2099.79 337.362 2110.3 327.845 2117.3 319.842C2134.31 315.836 2151.31 329.848 2163.82 341.368C2175.31 352.37 2172.82 367.388 2169.82 379.895L2174.83 380.902C2181.83 370.398 2190.33 360.881 2195.33 349.869C2159.32 324.347 2118.8 303.319 2079.78 282.302ZM2070.28 280.299V276.302L2010.25 247.771C2004.75 258.783 2022.75 258.275 2025.76 268.29C2026.76 287.812 2012.75 308.332 2000.75 320.839L1965.74 224.75L1925.21 205.726L1922.71 210.23C1930.22 215.233 1938.72 220.744 1941.72 229.743C1933.72 252.275 1919.21 272.794 1905.71 293.314C1896.71 296.812 1886.7 291.311 1878.19 293.314V296.812C1897.19 305.83 1915.71 315.836 1934.72 323.34C1935.72 322.344 1937.72 321.347 1937.22 319.842C1927.71 313.843 1914.71 303.827 1920.21 290.812L1946.72 245.269C1960.73 281.305 1976.24 316.842 1988.74 353.376H1997.25L2031.76 289.806C2038.27 272.794 2057.77 280.299 2070.28 280.299ZM356.029 222.239C358.03 239.758 355.032 255.275 340.521 265.788C327.015 271.299 311.01 288.809 297.006 275.296L269.497 209.224C270.991 198.222 284.496 196.717 290.004 191.216L286.498 187.698L214.468 217.734V221.242C218.472 222.747 223.472 220.744 227.476 218.741C233.472 217.236 241.48 216.239 245.483 222.239C255.991 244.761 266.489 266.785 272.993 290.812C271.499 301.326 252.983 299.821 256.489 310.335C297.006 293.314 338.021 276.302 379.046 259.779C375.042 246.764 367.542 235.254 363.03 222.239H356.029ZM436.564 157.672L466.573 179.197C454.572 184.2 443.566 189.213 430.558 191.216C430.558 180.702 434.562 168.693 436.564 157.672ZM447.072 229.743C439.562 230.75 430.06 237.257 423.059 229.743C423.059 219.239 423.059 208.726 428.059 200.713C445.07 197.714 460.577 187.698 477.081 186.203C485.587 193.717 496.592 197.215 501.094 208.227C496.592 215.233 486.583 213.23 484.581 221.242C508.594 217.236 534.102 208.726 557.617 198.222C549.619 190.708 542.617 202.716 533.604 197.215L446.066 131.153C441.066 127.636 436.066 131.651 431.564 133.654L411.057 224.75C407.551 237.257 392.551 247.272 385.042 254.777C407.551 254.777 427.56 240.765 449.572 235.752C450.07 233.251 449.572 231.248 447.072 229.743ZM1848.18 271.788C1860.18 247.771 1866.69 221.741 1884.2 199.717C1893.2 196.717 1898.71 204.719 1905.71 202.218V197.215L1841.18 172.191H1833.67C1835.68 180.194 1847.68 179.696 1853.18 187.698C1854.19 198.72 1847.18 209.224 1841.18 218.741C1820.67 214.236 1801.16 204.221 1783.65 196.218C1790.15 187.21 1788.15 173.188 1800.15 167.189C1808.16 164.687 1816.16 172.191 1824.17 169.69V166.192L1752.14 138.159C1748.63 151.174 1772.64 146.669 1770.14 162.176C1758.64 182.695 1754.64 206.224 1741.64 226.255C1733.13 232.753 1722.63 229.743 1713.62 227.242V232.254L1783.65 259.779L1785.65 257.278C1783.15 251.278 1774.65 249.774 1769.15 245.269C1759.65 230.251 1775.65 216.239 1782.16 204.221L1837.67 226.255C1831.68 238.254 1831.68 253.272 1820.67 263.287C1810.66 266.785 1801.66 256.281 1795.66 263.287C1819.67 271.788 1843.68 285.809 1868.69 289.806C1867.68 280.797 1851.18 282.302 1848.18 271.788ZM1673.11 199.717C1656.09 210.23 1635.59 201.221 1620.08 193.717C1606.58 184.2 1605.58 163.183 1611.58 149.171C1617.58 136.654 1623.08 122.642 1637.09 115.636C1659.1 112.129 1689.11 116.633 1697.12 142.155C1696.62 164.687 1690.61 187.698 1673.11 199.717ZM1718.62 150.167C1709.12 136.654 1701.62 126.15 1687.61 116.633C1661.09 103.12 1620.08 100.11 1596.07 121.636C1586.07 131.153 1582.06 143.162 1584.06 157.672C1589.56 182.695 1613.08 200.713 1635.59 209.224C1662.6 215.731 1698.11 215.233 1715.12 191.216C1723.63 178.699 1724.13 164.687 1718.62 150.167ZM1706.62 106.129C1711.12 104.126 1713.62 99.1232 1715.12 95.1075C1713.12 88.6096 1706.11 84.1052 1699.62 84.1052C1691.11 84.1052 1690.61 93.1141 1691.11 100.11C1695.61 103.628 1700.12 107.624 1706.62 106.129ZM1664.6 94.1108C1670.61 92.1078 1675.61 88.6096 1676.6 82.1021C1674.61 73.5915 1665.61 71.5885 1658.59 71.0901C1654.09 73.0932 1650.09 78.096 1650.09 83.0988C1653.1 89.6064 1658.59 91.6094 1664.6 94.1108ZM1181.89 95.1075C1190.9 82.6005 1203.4 74.0899 1215.41 67.5824C1224.41 76.5913 1234.41 88.6096 1235.92 100.11C1220.91 108.123 1206.4 119.633 1186.89 113.125C1180.39 109.129 1176.88 100.618 1181.89 95.1075ZM1205.9 37.5558L1246.92 41.0635C1233.41 43.0666 1211.4 65.0809 1205.9 37.5558ZM1243.42 106.129L1265.93 127.636C1274.93 133.654 1289.94 135.648 1299.44 131.153L1293.43 122.642C1273.93 127.147 1259.92 113.125 1250.42 98.6153C1258.92 91.111 1267.42 83.0988 1279.43 83.0988C1292.94 80.5974 1282.43 96.6122 1292.44 100.11C1297.44 102.123 1303.44 101.126 1306.95 96.1139C1311.45 88.6096 1303.94 82.6005 1299.44 78.096C1279.43 68.5887 1259.42 79.6007 1244.42 92.6061C1237.92 82.1021 1225.41 73.0931 1225.41 61.5828C1242.41 50.0629 1262.43 45.0601 1281.43 38.5621C1282.43 36.5591 1280.44 35.5528 1279.43 34.0577C1247.92 32.553 1215.41 33.0513 1186.89 24.0424L1185.39 29.0453C1196.89 36.0607 1202.9 47.5615 1209.4 58.0751C1187.89 69.5854 1163.89 82.6005 1149.37 104.624C1146.38 112.129 1149.37 120.639 1154.37 126.15C1185.89 145.663 1218.41 124.147 1243.42 106.129ZM1559.05 142.155C1540.04 109.627 1498.53 112.129 1471.52 89.108C1466.52 82.6005 1474.52 77.5881 1478.52 74.5883C1501.03 70.0838 1526.55 75.0866 1541.05 95.1075C1547.05 102.123 1542.54 118.138 1554.05 119.135C1558.56 106.627 1560.05 91.111 1562.55 79.6007C1556.05 74.0899 1554.05 86.1082 1548.05 85.6002C1526.04 70.5917 1495.52 59.0814 1466.52 68.5887C1457.51 72.0869 1446.51 80.0991 1448.5 91.6094C1464.52 126.648 1509.04 119.633 1535.04 144.168C1537.54 149.669 1537.04 154.672 1532.54 158.678C1521.54 168.185 1504.53 166.192 1490.53 164.687C1476.52 160.681 1462.5 150.666 1454.51 137.152C1449.01 128.651 1452.01 113.633 1442.5 109.627C1437 124.645 1433.5 140.66 1431.5 157.672C1440.5 162.176 1442.01 148.672 1449.51 151.672C1476.02 170.687 1514.53 181.2 1545.55 166.192C1556.05 162.675 1558.56 151.672 1559.05 142.155ZM569.619 110.624C576.63 131.651 580.624 153.177 585.136 174.194C581.63 184.699 569.619 188.714 562.626 193.717L565.117 197.215C585.634 192.212 606.639 187.698 627.147 182.695V178.201H619.139C583.124 183.203 594.139 138.667 581.63 119.135L585.136 115.636L688.679 170.687L694.675 168.185C690.173 140.152 679.167 114.63 676.667 85.6002C679.675 73.0932 694.675 74.5883 699.177 66.0873C676.169 63.0779 655.164 76.1025 633.143 78.096L632.147 79.6007C637.147 86.1082 648.152 82.1021 656.16 83.0988C673.162 95.6155 674.666 120.141 676.667 139.654C645.154 122.642 613.143 106.129 583.124 89.108L538.613 100.11C543.613 109.129 562.626 98.6153 569.619 110.624ZM857.748 142.155C857.748 128.651 852.748 115.128 854.243 100.11C859.75 90.1047 871.254 95.1075 878.256 89.108C865.248 78.6039 851.743 93.6124 836.235 90.1047C825.239 95.6155 807.222 89.108 800.23 98.6153L819.233 100.11C830.737 104.624 827.739 118.138 826.733 127.636C812.73 145.165 785.718 148.672 765.211 143.162C750.699 136.156 742.701 119.633 741.198 103.628C739.694 87.1049 742.203 73.0931 754.703 62.5795C773.209 51.0692 802.222 49.5645 820.728 62.5795C829.731 68.5887 833.237 82.1021 843.237 82.1021L838.735 42.0603L835.239 40.0476L826.733 50.5708C790.22 42.5586 747.701 46.0664 724.694 76.1025C717.184 87.1049 709.685 100.11 713.688 114.141C719.694 126.648 728.688 137.651 741.198 143.162C772.213 158.18 815.728 153.177 841.245 130.147C846.245 132.648 850.248 138.159 851.743 143.162C854.243 143.66 856.245 142.654 857.748 142.155ZM913.275 49.5645L915.277 120.141L911.771 125.144C906.273 132.15 892.767 126.15 891.263 134.651C936.282 134.651 982.805 130.654 1028.32 128.651C1029.33 114.141 1026.82 101.615 1025.82 88.1017C1023.32 87.1049 1021.82 89.6063 1019.82 90.1047C1019.82 102.123 1010.81 112.129 1000.81 118.138C982.297 123.141 963.293 132.15 944.29 121.636C940.286 110.624 939.788 97.1106 941.78 84.1052C952.795 82.6005 966.301 81.1054 974.299 90.1047C979.299 94.6092 972.795 111.132 985.305 104.624C985.803 86.6066 983.801 69.5855 982.805 52.066C971.799 50.5709 979.299 65.5889 971.799 70.0838C963.293 76.5913 950.286 76.5913 939.29 74.5883C940.784 64.0842 936.282 51.0692 943.284 42.0603C964.299 37.0574 992.805 34.556 1009.32 52.066C1014.32 56.58 1012.81 71.5885 1023.32 66.0873C1017.32 54.069 1032.82 25.0391 1010.31 28.0485C972.297 34.0577 927.278 31.0483 886.762 35.0544V38.5621C894.262 43.0666 907.269 38.5621 913.275 49.5645Z" fill="#D8D3CB"/>
</g>
</svg>
