<svg width="2042" height="676" viewBox="0 0 2042 676" fill="none" xmlns="http://www.w3.org/2000/svg">
<path d="M103.515 334.51L64.5227 490.626H44.1414L5.14844 334.51H29.0161L54.4393 452.295L79.7014 334.51H103.515Z" fill="#D8D3CB"/>
<path d="M210.678 490.626H186.542L178.604 459.327H136.018L127.919 490.626H103.783L143.902 334.51H171.203L210.678 490.626ZM143.419 432.592H172.919L157.633 371.982L143.419 432.592Z" fill="#D8D3CB"/>
<path d="M326.21 437.317C325.996 453.154 319.398 471.138 310.709 480.372C303.951 487.62 290.971 494.92 276.758 495.565C251.174 496.636 233.314 474.359 227.199 441.397C225.912 434.095 225 424.217 225 413.964C225 403.442 225.751 392.759 227.682 383.955C234.118 354.857 247.848 331.934 277.723 331.934C285.929 331.934 297.461 333.223 308.671 344.12C325.244 359.313 325.995 379.445 326.21 387.39H303.576C302.985 378.639 297.622 356.575 274.559 358.937C263.832 359.958 255.465 370.479 251.657 383.739C250.101 389.323 248.493 399.63 248.01 410.743C247.741 421.856 248.493 433.881 251.657 443.49C255.465 454.871 260.668 461.69 266.514 465.34C269.517 467.058 272.521 467.919 275.846 467.919C278.957 468.114 282.443 467.491 285.769 466.201C302.181 460.028 302.664 444.137 303.576 437.319L326.21 437.317Z" fill="#D8D3CB"/>
<path d="M347.127 334.51H370.78V393.188H416.424V334.51H440.13V490.626H416.424V419.977H370.78V490.626H347.127V334.51Z" fill="#D8D3CB"/>
<path d="M550.566 334.51V361.246H490.87V396.838H546.007V423.628H490.87V463.837H553.248V490.626H467.217V334.51H550.566Z" fill="#D8D3CB"/>
<path d="M577.061 334.51H640.994C652.526 335.153 664.218 342.402 667.544 359.313C669.099 366.185 671.459 377.351 668.616 390.826C665.773 404.301 660.732 409.239 653.008 415.467C656.924 419.117 664.54 422.929 665.773 437.102C666.418 443.49 666.739 464.052 666.899 471.997C666.899 480.802 668.777 482.734 671.298 484.881V490.626H645.874C643.997 485.902 643.032 481.177 642.71 476.077C642.442 468.346 642.442 455.946 642.71 444.564C642.442 434.096 636.757 428.942 628.551 428.942H600.714V490.626H577.061L577.061 334.51ZM600.714 402.153H633.11C638.635 402.153 648.557 394.262 647.162 378.854C647.162 367.688 643.354 361.246 632.788 361.246H600.714V402.153Z" fill="#D8D3CB"/>
<path d="M782.859 476.077C773.258 489.552 759.205 495.565 744.509 495.565C729.813 495.565 715.761 489.552 706.107 476.077C695.379 460.884 689.051 437.317 689.051 413.749C689.051 390.182 695.379 366.614 706.107 351.421C715.761 337.893 729.813 331.934 744.509 331.934C759.205 331.934 773.258 337.893 782.859 351.421C793.586 366.614 799.914 390.182 799.914 413.749C799.914 437.317 793.586 460.884 782.859 476.077ZM765.642 457.019C773.258 447.571 777.013 430.66 777.173 413.749C777.014 396.839 773.258 379.928 765.642 370.479C759.688 362.963 752.072 360.011 744.509 360.011C736.947 360.011 729.331 362.964 723.324 370.479C715.761 379.928 711.953 396.839 711.792 413.749C711.951 430.66 715.761 447.571 723.324 457.019C729.331 464.481 736.947 467.487 744.509 467.487C752.072 467.487 759.688 464.48 765.642 457.019Z" fill="#D8D3CB"/>
<path d="M844.111 334.51L890.667 441.772V334.51H914.374V490.626H890.989L844.433 381.807V490.626H820.727V334.51H844.111Z" fill="#D8D3CB"/>
<path d="M1094.05 437.317C1093.89 453.154 1087.24 471.138 1078.55 480.372C1071.79 487.62 1058.81 494.92 1044.6 495.565C1019.02 496.636 1001.21 474.359 995.041 441.397C993.754 434.095 992.842 424.217 992.842 413.964C992.842 403.442 993.593 392.759 995.523 383.955C1002.01 354.857 1015.74 331.934 1045.57 331.934C1053.77 331.934 1065.3 333.223 1076.51 344.12C1093.09 359.313 1093.89 379.445 1094.05 387.39H1071.47C1070.83 378.639 1065.46 356.575 1042.4 358.937C1031.67 359.958 1023.31 370.479 1019.5 383.739C1017.94 389.323 1016.33 399.63 1015.9 410.743C1015.58 421.856 1016.33 433.881 1019.5 443.49C1023.31 454.871 1028.51 461.69 1034.36 465.34C1037.36 467.058 1040.36 467.919 1043.69 467.919C1046.85 468.114 1050.28 467.491 1053.61 466.201C1070.02 460.028 1070.51 444.137 1071.47 437.319L1094.05 437.317Z" fill="#D8D3CB"/>
<path d="M1204.33 476.077C1194.72 489.552 1180.62 495.565 1165.98 495.565C1151.28 495.565 1137.23 489.552 1127.57 476.077C1116.85 460.884 1110.52 437.317 1110.52 413.749C1110.52 390.182 1116.85 366.614 1127.57 351.421C1137.23 337.893 1151.28 331.934 1165.98 331.934C1180.62 331.934 1194.72 337.893 1204.33 351.421C1215.05 366.614 1221.38 390.182 1221.38 413.749C1221.38 437.317 1215.05 460.884 1204.33 476.077ZM1187.11 457.019C1194.72 447.571 1198.48 430.66 1198.64 413.749C1198.48 396.839 1194.72 379.928 1187.11 370.479C1181.1 362.963 1173.54 360.011 1165.98 360.011C1158.36 360.011 1150.8 362.964 1144.79 370.479C1137.23 379.928 1133.42 396.839 1133.26 413.749C1133.42 430.66 1137.23 447.571 1144.79 457.019C1150.8 464.481 1158.36 467.487 1165.98 467.487C1173.54 467.487 1181.1 464.48 1187.11 457.019Z" fill="#D8D3CB"/>
<path d="M1265.58 334.51L1312.13 441.772V334.51H1335.84V490.626H1312.45L1265.9 381.807V490.626H1242.19V334.51H1265.58Z" fill="#D8D3CB"/>
<path d="M1423.69 382.021C1424.02 369.406 1416.29 357.863 1399.99 357.434C1388.51 357.2 1379.93 362.534 1379.18 375.418C1378.53 386.102 1381.21 388.249 1386.42 391.041C1389.15 394.906 1410.93 399.577 1415.33 400.704C1421.65 402.208 1435.22 406.019 1442.52 416.112C1455.77 434.955 1449.6 471.997 1435.22 484.613C1425.46 493.203 1412 495.35 1399.24 495.565C1393.39 495.76 1379.5 492.99 1370.97 484.613C1360.73 474.574 1355.63 459.166 1354.88 444.349H1377.89C1377.89 448.429 1378.85 454.872 1382.82 460.401C1388.03 467.703 1396.55 470.065 1404.44 469.635C1412.32 469.401 1419.78 466.199 1422.73 462.334C1427.82 455.945 1428.9 443.705 1423.21 436.028C1415.65 425.292 1392.91 425.292 1378.05 418.474C1365.61 412.676 1355.31 400.489 1357.24 375.204C1359.12 350.347 1372.36 331.934 1400.47 331.934C1406.64 331.934 1428.15 332.576 1439.36 351.851C1445.31 362.319 1446.92 376.921 1445.95 382.021H1423.69Z" fill="#D8D3CB"/>
<path d="M1553.92 334.51V361.246H1520.29V490.626H1496.58V361.246H1461.72V334.51H1553.92Z" fill="#D8D3CB"/>
<path d="M1657.7 490.626H1633.51L1625.63 459.327H1582.99L1574.94 490.626H1550.22L1590.87 334.51H1618.23L1657.7 490.626ZM1590.45 432.592H1619.94L1604.66 371.982L1590.45 432.592Z" fill="#D8D3CB"/>
<path d="M1699.11 334.51L1745.72 441.772V334.51H1769.37V490.626H1746.04L1699.43 381.807V490.626H1675.78V334.51H1699.11Z" fill="#D8D3CB"/>
<path d="M1877.82 334.51V361.246H1844.19V490.626H1820.49V361.246H1785.57V334.51H1877.82Z" fill="#D8D3CB"/>
<path d="M1917.89 490.626H1894.18V334.51H1917.89V490.626Z" fill="#D8D3CB"/>
<path d="M1966.59 334.51L2013.14 441.772V334.51H2036.85V490.626H2013.52L1966.91 381.807V490.626H1943.2V334.51H1966.59Z" fill="#D8D3CB"/>
<path d="M939.366 128.952L919.414 73.2804L1022.18 117.731C1023.04 118.043 1023.9 118.214 1024.86 118.214C1026.9 118.214 1028.83 117.408 1030.17 116.013C1031.51 114.669 1032.37 112.791 1032.37 110.752C1032.37 109.786 1032.21 108.874 1031.83 108.013L987.477 5.15308L1043.04 25.1775L1098.61 5.15308L1054.25 108.013C1053.93 108.87 1053.77 109.786 1053.77 110.752C1053.77 112.793 1054.63 114.671 1055.97 116.013C1057.31 117.408 1059.19 118.214 1061.28 118.214C1062.19 118.214 1063.1 118.058 1063.91 117.731L1166.67 73.2804L1146.72 128.952L1166.67 184.569L1063.91 140.172C1063.1 139.782 1062.19 139.634 1061.28 139.634C1059.19 139.634 1057.31 140.495 1055.97 141.835C1054.63 143.179 1053.77 145.057 1053.77 147.15C1053.77 148.062 1053.93 148.974 1054.25 149.835L1098.61 252.748L1043.04 232.724L987.477 252.748L1031.83 149.835C1032.21 148.974 1032.37 148.062 1032.37 147.15C1032.37 145.054 1031.51 143.178 1030.17 141.835C1028.83 140.491 1026.9 139.634 1024.86 139.634C1023.9 139.634 1023.04 139.79 1022.18 140.172L919.414 184.569L939.366 128.952Z" fill="#D8D3CB"/>
<path d="M762.906 625.214C762.906 601.432 768.699 582.052 792.03 582.052C799.914 582.052 806.673 583.341 815.415 586.454L812.894 595.687C803.508 592.68 798.895 592.092 793.532 592.092C777.817 592.092 774.062 607.069 774.062 625.215C774.062 644.595 777.548 659.573 792.674 659.573C797.394 659.573 801.416 657.964 804.795 655.493V633.321H792.191V623.336H815.415V662.204C808.389 666.499 801.524 669.613 792.03 669.613C768.699 669.613 762.906 649.587 762.906 625.214Z" fill="#D8D3CB"/>
<path d="M904.236 595.472H870.713V621.509H899.73V631.495H870.713V660.538H904.718V670.524H860.094V585.487H904.236V595.472Z" fill="#D8D3CB"/>
<path d="M947.68 670.846V585.809H958.031L989.783 647.922H989.997V585.809H1000.24V670.846H989.783L958.031 609.967H957.817V670.846H947.68Z" fill="#D8D3CB"/>
<path d="M1088.96 595.419H1055.49V621.456H1084.45V631.441H1055.49V660.431H1089.44V670.47H1044.87V585.433H1088.96V595.419ZM1056.99 565.409H1065.46L1071.2 580.441H1065.57L1056.99 565.409Z" fill="#D8D3CB"/>
<path d="M1158.79 655.438L1176.27 585.165H1187.48L1165.01 670.846H1151.87L1128.91 585.165H1140.77L1158.63 655.438H1158.79Z" fill="#D8D3CB"/>
<path d="M1271.21 595.472H1237.69V621.509H1266.7V631.495H1237.69V660.538H1271.69V670.524H1227.12V585.487H1271.21V595.472Z" fill="#D8D3CB"/>
</svg>
